{
copyright = "Copyright \U00A9 2013 by Viadeo. All rights reserved.";
date = "2012-08-21 13:17:00 +0000";
designer = Viadeo;
designerURL = "http://viadeo.com";
familyName = "Viadeoicons";
featurePrefixes = (
{
automatic = 1;
code = "languagesystem DFLT dflt;\012languagesystem latn dflt;\012";
name = Languagesystems;
}
);
fontMaster = (
{
ascender = 1800;
capHeight = 2400;
descender = "-600";
id = "B666C820-39E7-4854-9B1A-8391CFDDE462";
xHeight = 2400;
}
);
glyphs = (
{
glyphname = B;
lastChange = "2013-04-22 12:53:08 +0100";
layers = (
{
layerId = "B666C820-39E7-4854-9B1A-8391CFDDE462";
name = Regular;
paths = (
{
closed = 1;
nodes = (
"2207 1190 OFFCURVE",
"1771 1474 OFFCURVE",
"1234 1474 CURVE SMOOTH",
"697 1474 OFFCURVE",
"261 1190 OFFCURVE",
"261 839 CURVE SMOOTH",
"261 618 OFFCURVE",
"435 423 OFFCURVE",
"699 309 CURVE",
"813 -214 LINE",
"1276 205 LINE",
"1794 220 OFFCURVE",
"2207 498 OFFCURVE",
"2207 839 CURVE SMOOTH"
);
}
);
width = 2400;
}
);
unicode = 0042;
},
{
glyphname = C;
lastChange = "2013-01-24 17:44:53 +0100";
layers = (
{
anchors = (
{
name = bottom;
position = "{300, 0}";
},
{
name = top;
position = "{300, 2400}";
}
);
layerId = "B666C820-39E7-4854-9B1A-8391CFDDE462";
name = Regular;
paths = (
{
closed = 1;
nodes = (
"300 800 LINE SMOOTH",
"245.02 800 OFFCURVE",
"200 754.981 OFFCURVE",
"200 700 CURVE SMOOTH",
"200 0 LINE SMOOTH",
"200 -55 OFFCURVE",
"245.02 -100 OFFCURVE",
"300 -100 CURVE SMOOTH",
"1050 -100 LINE SMOOTH",
"1104.98 -100 OFFCURVE",
"1150 -55 OFFCURVE",
"1150 0 CURVE SMOOTH",
"1150 700 LINE SMOOTH",
"1150 754.981 OFFCURVE",
"1104.98 800 OFFCURVE",
"1050 800 CURVE SMOOTH"
);
},
{
closed = 1;
nodes = (
"350 0 LINE",
"350 150 LINE",
"500 150 LINE",
"500 0 LINE"
);
},
{
closed = 1;
nodes = (
"350 250 LINE",
"350 400 LINE",
"500 400 LINE",
"500 250 LINE"
);
},
{
closed = 1;
nodes = (
"350 500 LINE",
"350 650 LINE",
"500 650 LINE",
"500 500 LINE"
);
},
{
closed = 1;
nodes = (
"600 250 LINE",
"600 400 LINE",
"750 400 LINE",
"750 250 LINE"
);
},
{
closed = 1;
nodes = (
"600 500 LINE",
"600 650 LINE",
"750 650 LINE",
"750 500 LINE"
);
},
{
closed = 1;
nodes = (
"850 0 LINE",
"850 150 LINE",
"1000 150 LINE",
"1000 0 LINE"
);
},
{
closed = 1;
nodes = (
"850 250 LINE",
"850 400 LINE",
"1000 400 LINE",
"1000 250 LINE"
);
},
{
closed = 1;
nodes = (
"850 500 LINE",
"850 650 LINE",
"1000 650 LINE",
"1000 500 LINE"
);
},
{
closed = 1;
nodes = (
"1350 1300 LINE SMOOTH",
"1295.02 1300 OFFCURVE",
"1250 1254.98 OFFCURVE",
"1250 1200 CURVE SMOOTH",
"1250 0 LINE SMOOTH",
"1250 -55 OFFCURVE",
"1295.02 -100 OFFCURVE",
"1350 -100 CURVE SMOOTH",
"2100 -100 LINE SMOOTH",
"2154.98 -100 OFFCURVE",
"2200 -55 OFFCURVE",
"2200 0 CURVE SMOOTH",
"2200 1200 LINE SMOOTH",
"2200 1254.98 OFFCURVE",
"2154.98 1300 OFFCURVE",
"2100 1300 CURVE SMOOTH"
);
},
{
closed = 1;
nodes = (
"1400 0 LINE",
"1400 150 LINE",
"1550 150 LINE",
"1550 0 LINE"
);
},
{
closed = 1;
nodes = (
"1400 250 LINE",
"1400 400 LINE",
"1550 400 LINE",
"1550 250 LINE"
);
},
{
closed = 1;
nodes = (
"1400 500 LINE",
"1400 650 LINE",
"1550 650 LINE",
"1550 500 LINE"
);
},
{
closed = 1;
nodes = (
"1400 750 LINE",
"1400 900 LINE",
"1550 900 LINE",
"1550 750 LINE"
);
},
{
closed = 1;
nodes = (
"1400 1000 LINE",
"1400 1150 LINE",
"1550 1150 LINE",
"1550 1000 LINE"
);
},
{
closed = 1;
nodes = (
"1650 250 LINE",
"1650 400 LINE",
"1800 400 LINE",
"1800 250 LINE"
);
},
{
closed = 1;
nodes = (
"1650 500 LINE",
"1650 650 LINE",
"1800 650 LINE",
"1800 500 LINE"
);
},
{
closed = 1;
nodes = (
"1650 750 LINE",
"1650 900 LINE",
"1800 900 LINE",
"1800 750 LINE"
);
},
{
closed = 1;
nodes = (
"1650 1000 LINE",
"1650 1150 LINE",
"1800 1150 LINE",
"1800 1000 LINE"
);
},
{
closed = 1;
nodes = (
"1900 0 LINE",
"1900 150 LINE",
"2050 150 LINE",
"2050 0 LINE"
);
},
{
closed = 1;
nodes = (
"1900 250 LINE",
"1900 400 LINE",
"2050 400 LINE",
"2050 250 LINE"
);
},
{
closed = 1;
nodes = (
"1900 500 LINE",
"1900 650 LINE",
"2050 650 LINE",
"2050 500 LINE"
);
},
{
closed = 1;
nodes = (
"1900 750 LINE",
"1900 900 LINE",
"2050 900 LINE",
"2050 750 LINE"
);
},
{
closed = 1;
nodes = (
"1900 1000 LINE",
"1900 1150 LINE",
"2050 1150 LINE",
"2050 1000 LINE"
);
}
);
width = 2400;
}
);
unicode = 0043;
},
{
glyphname = E;
lastChange = "2013-04-23 13:08:19 +0100";
layers = (
{
anchors = (
{
name = bottom;
position = "{300, 0}";
},
{
name = ogonek;
position = "{540, 10}";
},
{
name = top;
position = "{300, 2400}";
}
);
layerId = "B666C820-39E7-4854-9B1A-8391CFDDE462";
name = Regular;
paths = (
{
closed = 1;
nodes = (
"1607 816 LINE",
"1544 832 OFFCURVE",
"1478 838 OFFCURVE",
"1420 838 CURVE SMOOTH",
"991 838 OFFCURVE",
"721 480 OFFCURVE",
"721 480 CURVE",
"721 1264 OFFCURVE",
"1592 1269 OFFCURVE",
"1607 1269 CURVE SMOOTH",
"1607 1269 OFFCURVE",
"1603 1269 OFFCURVE",
"1603 1269 CURVE",
"1607 1633 LINE",
"2259 1033 LINE",
"1607 449 LINE"
);
},
{
closed = 1;
nodes = (
"303 1413 LINE",
"303 0 LINE",
"2042 0 LINE",
"2042 619 LINE",
"1824 435 LINE",
"1824 218 LINE",
"520 218 LINE",
"520 1196 LINE",
"846 1196 LINE SMOOTH",
"1245 1413 LINE SMOOTH"
);
}
);
width = 2400;
}
);
unicode = 0045;
},
{
glyphname = F;
lastChange = "2013-02-26 10:19:30 +0100";
layers = (
{
layerId = "B666C820-39E7-4854-9B1A-8391CFDDE462";
name = Regular;
paths = (
{
closed = 1;
nodes = (
"1697.85 857.227 OFFCURVE",
"1642.09 804.102 OFFCURVE",
"1638.28 644.287 CURVE",
"1642.09 804.102 OFFCURVE",
"1588.96 859.717 OFFCURVE",
"1429.88 863.428 CURVE",
"1588.96 859.717 OFFCURVE",
"1644.63 912.842 OFFCURVE",
"1648.24 1072.61 CURVE",
"1644.63 912.842 OFFCURVE",
"1697.85 857.227 OFFCURVE",
"1856.84 853.516 CURVE"
);
},
{
closed = 1;
nodes = (
"1430.57 1695.31 OFFCURVE",
"1400.59 1666.8 OFFCURVE",
"1315.14 1668.85 CURVE",
"1400.59 1666.8 OFFCURVE",
"1429 1636.91 OFFCURVE",
"1427.25 1551.03 CURVE",
"1429 1636.91 OFFCURVE",
"1458.98 1665.38 OFFCURVE",
"1544.43 1663.48 CURVE",
"1458.98 1665.38 OFFCURVE",
"1430.57 1695.31 OFFCURVE",
"1432.62 1781.25 CURVE"
);
},
{
closed = 1;
nodes = (
"1859.18 1587.6 OFFCURVE",
"1749.41 1482.76 OFFCURVE",
"1435.64 1490.09 CURVE",
"1749.41 1482.76 OFFCURVE",
"1854.2 1373.05 OFFCURVE",
"1846.97 1057.76 CURVE",
"1854.2 1373.05 OFFCURVE",
"1964.06 1477.78 OFFCURVE",
"2277.93 1470.56 CURVE",
"1964.06 1477.78 OFFCURVE",
"1859.18 1587.6 OFFCURVE",
"1866.7 1902.78 CURVE"
);
},
{
closed = 1;
nodes = (
"1339.16 676.221 OFFCURVE",
"1448.83 764.99 OFFCURVE",
"1460.74 932.275 CURVE",
"1461.72 932.031 OFFCURVE",
"1487.6 949.756 OFFCURVE",
"1507.32 995.361 CURVE SMOOTH",
"1527.25 1040.92 OFFCURVE",
"1535.35 1082.13 OFFCURVE",
"1535.35 1158.89 CURVE SMOOTH",
"1535.35 1216.02 OFFCURVE",
"1525.2 1265.14 OFFCURVE",
"1511.04 1286.47 CURVE",
"1506.15 1332.67 OFFCURVE",
"1494.43 1362.99 OFFCURVE",
"1494.43 1362.99 CURVE SMOOTH",
"1494.24 1362.99 LINE",
"1472.75 1532.18 OFFCURVE",
"1349.51 1573.24 OFFCURVE",
"1349.51 1573.24 CURVE SMOOTH",
"1349.51 1573.24 OFFCURVE",
"1308.2 1706.3 OFFCURVE",
"1081.25 1653.86 CURVE SMOOTH",
"1071.97 1651.76 OFFCURVE",
"1062.99 1649.22 OFFCURVE",
"1054.3 1646.58 CURVE",
"1053.81 1646.53 OFFCURVE",
"1053.52 1646.44 OFFCURVE",
"1053.32 1646.34 CURVE",
"1047.75 1644.73 OFFCURVE",
"1042.38 1642.82 OFFCURVE",
"1037.11 1640.97 CURVE",
"1036.43 1640.67 OFFCURVE",
"1035.35 1640.48 OFFCURVE",
"1034.47 1640.14 CURVE",
"742.578 1539.65 OFFCURVE",
"788.477 1214.01 OFFCURVE",
"791.894 1189.16 CURVE",
"792.09 1189.21 LINE",
"791.602 1179.44 OFFCURVE",
"791.113 1169.38 OFFCURVE",
"791.113 1158.89 CURVE SMOOTH",
"791.113 1082.13 OFFCURVE",
"801.66 1021.04 OFFCURVE",
"822.852 979.053 CURVE SMOOTH",
"843.848 937.012 OFFCURVE",
"864.941 931.69 OFFCURVE",
"865.82 931.934 CURVE",
"910.254 724.219 OFFCURVE",
"987.012 676.221 OFFCURVE",
"987.012 676.221 CURVE",
"987.012 601.416 LINE",
"1172.46 479.199 LINE",
"1339.16 591.504 LINE",
"1339.16 676.221 LINE"
);
},
{
closed = 1;
nodes = (
"1966.99 -111 LINE",
"1217.09 -111 LINE",
"1172.46 -111 LINE",
"1124.61 -111 LINE",
"378.027 -111 LINE",
"378.027 239.404 LINE SMOOTH",
"378.027 343.31 OFFCURVE",
"778.027 470.02 OFFCURVE",
"930.957 519.727 CURVE",
"933.887 523.877 LINE",
"1104.98 -45 LINE",
"1143.55 255.469 LINE",
"1096.39 403.125 LINE",
"1172.46 479.199 LINE",
"1247.17 404.59 LINE",
"1201.27 256.641 LINE",
"1238.38 -32 LINE",
"1387.7 521.191 LINE",
"1537.21 468.457 OFFCURVE",
"1966.99 327.002 OFFCURVE",
"1966.99 220.703 CURVE SMOOTH"
);
}
);
width = 2400;
}
);
unicode = 0046;
},
{
glyphname = G;
lastChange = "2013-04-23 13:02:46 +0100";
layers = (
{
anchors = (
{
name = bottom;
position = "{300, 0}";
},
{
name = top;
position = "{300, 2400}";
}
);
layerId = "B666C820-39E7-4854-9B1A-8391CFDDE462";
name = Regular;
paths = (
{
closed = 1;
nodes = (
"1876 0 LINE",
"524 0 LINE",
"524 298 LINE SMOOTH",
"524 404 OFFCURVE",
"1008 536 OFFCURVE",
"1042 553 CURVE",
"1042 670 LINE",
"1042 670 OFFCURVE",
"977 711 OFFCURVE",
"939 887 CURVE",
"938 887 OFFCURVE",
"920 892 OFFCURVE",
"902 927 CURVE SMOOTH",
"885 963 OFFCURVE",
"875 1015 OFFCURVE",
"875 1081 CURVE SMOOTH",
"875 1089 OFFCURVE",
"876 1098 OFFCURVE",
"876 1106 CURVE",
"876 1106 LINE",
"873 1127 OFFCURVE",
"834 1404 OFFCURVE",
"1083 1490 CURVE",
"1083 1490 OFFCURVE",
"1084 1490 OFFCURVE",
"1085 1491 CURVE",
"1089 1492 OFFCURVE",
"1094 1494 OFFCURVE",
"1099 1495 CURVE",
"1099 1495 OFFCURVE",
"1099 1495 OFFCURVE",
"1099 1495 CURVE",
"1107 1498 OFFCURVE",
"1115 1500 OFFCURVE",
"1122 1502 CURVE SMOOTH",
"1315 1546 OFFCURVE",
"1350 1433 OFFCURVE",
"1350 1433 CURVE SMOOTH",
"1350 1433 OFFCURVE",
"1455 1398 OFFCURVE",
"1474 1254 CURVE",
"1474 1254 LINE",
"1474 1254 OFFCURVE",
"1484 1228 OFFCURVE",
"1488 1189 CURVE",
"1500 1171 OFFCURVE",
"1509 1129 OFFCURVE",
"1509 1081 CURVE SMOOTH",
"1509 1015 OFFCURVE",
"1502 980 OFFCURVE",
"1485 941 CURVE SMOOTH",
"1468 902 OFFCURVE",
"1446 887 OFFCURVE",
"1445 888 CURVE",
"1435 745 OFFCURVE",
"1342 670 OFFCURVE",
"1342 670 CURVE",
"1342 554 LINE",
"1379 534 OFFCURVE",
"1876 388 OFFCURVE",
"1876 282 CURVE SMOOTH"
);
},
{
closed = 1;
nodes = (
"449 386 OFFCURVE",
"540 455 OFFCURVE",
"795 548 CURVE",
"795 559 LINE",
"795 559 OFFCURVE",
"850 593 OFFCURVE",
"881 740 CURVE",
"882 740 OFFCURVE",
"890 742 OFFCURVE",
"900 755 CURVE",
"888 788 OFFCURVE",
"879 819 OFFCURVE",
"873 842 CURVE",
"860 854 OFFCURVE",
"847 870 OFFCURVE",
"835 894 CURVE SMOOTH",
"812 940 OFFCURVE",
"800 1003 OFFCURVE",
"800 1080 CURVE SMOOTH",
"800 1087 OFFCURVE",
"800 1095 OFFCURVE",
"801 1102 CURVE",
"798 1127 OFFCURVE",
"794 1172 OFFCURVE",
"800 1226 CURVE",
"789 1232 OFFCURVE",
"776 1238 OFFCURVE",
"762 1243 CURVE",
"761 1243 OFFCURVE",
"761 1243 OFFCURVE",
"760 1243 CURVE SMOOTH",
"756 1245 OFFCURVE",
"752 1246 OFFCURVE",
"748 1247 CURVE",
"748 1247 OFFCURVE",
"748 1247 OFFCURVE",
"748 1247 CURVE",
"741 1249 OFFCURVE",
"735 1251 OFFCURVE",
"728 1253 CURVE SMOOTH",
"567 1290 OFFCURVE",
"538 1195 OFFCURVE",
"538 1195 CURVE SMOOTH",
"538 1195 OFFCURVE",
"451 1166 OFFCURVE",
"435 1046 CURVE",
"435 1046 LINE SMOOTH",
"435 1046 OFFCURVE",
"427 1025 OFFCURVE",
"424 992 CURVE",
"413 977 OFFCURVE",
"406 942 OFFCURVE",
"406 901 CURVE SMOOTH",
"406 847 OFFCURVE",
"412 817 OFFCURVE",
"426 785 CURVE SMOOTH",
"440 753 OFFCURVE",
"459 740 OFFCURVE",
"459 740 CURVE",
"468 622 OFFCURVE",
"546 559 OFFCURVE",
"546 559 CURVE",
"546 462 LINE",
"515 445 OFFCURVE",
"100 323 OFFCURVE",
"100 235 CURVE SMOOTH",
"100 0 LINE",
"449 0 LINE",
"449 298 LINE SMOOTH"
);
},
{
closed = 1;
nodes = (
"1854 559 LINE",
"1854 559 OFFCURVE",
"1932 622 OFFCURVE",
"1941 740 CURVE",
"1941 740 OFFCURVE",
"1960 753 OFFCURVE",
"1974 785 CURVE SMOOTH",
"1988 817 OFFCURVE",
"1994 847 OFFCURVE",
"1994 901 CURVE SMOOTH",
"1994 942 OFFCURVE",
"1987 977 OFFCURVE",
"1976 992 CURVE",
"1973 1025 OFFCURVE",
"1964 1046 OFFCURVE",
"1964 1046 CURVE SMOOTH",
"1964 1046 LINE",
"1949 1166 OFFCURVE",
"1862 1195 OFFCURVE",
"1862 1195 CURVE SMOOTH",
"1862 1195 OFFCURVE",
"1833 1290 OFFCURVE",
"1672 1253 CURVE SMOOTH",
"1665 1251 OFFCURVE",
"1659 1249 OFFCURVE",
"1652 1247 CURVE",
"1652 1247 OFFCURVE",
"1652 1247 OFFCURVE",
"1652 1247 CURVE",
"1648 1246 OFFCURVE",
"1644 1245 OFFCURVE",
"1640 1243 CURVE SMOOTH",
"1639 1243 OFFCURVE",
"1639 1243 OFFCURVE",
"1638 1243 CURVE",
"1609 1233 OFFCURVE",
"1585 1219 OFFCURVE",
"1564 1204 CURVE",
"1581 1162 OFFCURVE",
"1584 1111 OFFCURVE",
"1584 1080 CURVE SMOOTH",
"1584 1007 OFFCURVE",
"1576 961 OFFCURVE",
"1554 911 CURVE SMOOTH",
"1550 902 OFFCURVE",
"1537 875 OFFCURVE",
"1517 852 CURVE",
"1512 819 OFFCURVE",
"1504 790 OFFCURVE",
"1494 763 CURVE",
"1506 743 OFFCURVE",
"1518 740 OFFCURVE",
"1519 740 CURVE",
"1550 593 OFFCURVE",
"1605 559 OFFCURVE",
"1605 559 CURVE",
"1605 538 LINE",
"1835 450 OFFCURVE",
"1951 378 OFFCURVE",
"1951 282 CURVE SMOOTH",
"1951 0 LINE",
"2300 0 LINE",
"2300 235 LINE SMOOTH",
"2300 323 OFFCURVE",
"1885 445 OFFCURVE",
"1854 462 CURVE"
);
}
);
width = 2400;
}
);
unicode = 0047;
},
{
glyphname = H;
lastChange = "2013-02-26 10:18:49 +0100";
layers = (
{
anchors = (
{
name = bottom;
position = "{300, 0}";
},
{
name = center;
position = "{300, 1200}";
},
{
name = top;
position = "{300, 2400}";
}
);
layerId = "B666C820-39E7-4854-9B1A-8391CFDDE462";
name = Regular;
paths = (
{
closed = 1;
nodes = (
"2255.96 918.066 OFFCURVE",
"1203.03 1383.69 OFFCURVE",
"1176.37 1396.68 CURVE SMOOTH",
"1148.24 1410.25 OFFCURVE",
"1110.94 1412.4 OFFCURVE",
"1077.15 1390.82 CURVE SMOOTH",
"1043.26 1369.24 OFFCURVE",
"140.527 828.223 OFFCURVE",
"116.113 813.477 CURVE SMOOTH",
"91.6992 798.633 OFFCURVE",
"97.2656 761.719 OFFCURVE",
"118.359 754.981 CURVE SMOOTH",
"139.453 748.242 OFFCURVE",
"537.402 620.703 OFFCURVE",
"537.402 620.703 CURVE",
"536.719 618.457 OFFCURVE",
"536.426 617.188 OFFCURVE",
"536.426 617.188 CURVE",
"536.426 227.148 LINE",
"536.426 227.148 OFFCURVE",
"536.426 227.148 OFFCURVE",
"536.523 227.148 CURVE",
"538.867 173.926 OFFCURVE",
"593.262 25.4883 OFFCURVE",
"1129.3 25.4883 CURVE SMOOTH",
"1658.89 25.4883 OFFCURVE",
"1835.64 197.949 OFFCURVE",
"1835.64 251.758 CURVE SMOOTH",
"1835.64 702.637 LINE",
"1930.47 736.133 LINE",
"1930.47 -183 LINE",
"2045.41 -47 LINE",
"2160.45 -183 LINE",
"2160.45 810.644 LINE",
"2181.74 817.871 OFFCURVE",
"2262.01 844.336 OFFCURVE",
"2283.2 852.441 CURVE SMOOTH",
"2304.3 860.547 OFFCURVE",
"2307.62 895.41 OFFCURVE",
"2281.64 906.836 CURVE SMOOTH"
);
},
{
closed = 1;
nodes = (
"1606.25 981.543 OFFCURVE",
"1782.91 747.168 OFFCURVE",
"1801.37 736.426 CURVE",
"1783.69 746.68 OFFCURVE",
"1583.79 919.336 OFFCURVE",
"1169.43 919.336 CURVE SMOOTH",
"754.981 919.336 OFFCURVE",
"584.18 688.281 OFFCURVE",
"584.18 688.281 CURVE SMOOTH",
"584.18 688.281 OFFCURVE",
"753.027 981.543 OFFCURVE",
"1179.69 981.543 CURVE SMOOTH"
);
},
{
closed = 1;
nodes = (
"1801.76 226.562 OFFCURVE",
"1660.55 56.4453 OFFCURVE",
"1129.3 56.4453 CURVE SMOOTH",
"843.262 56.4453 OFFCURVE",
"706.445 100 OFFCURVE",
"642.188 136.621 CURVE SMOOTH",
"576.465 174.023 OFFCURVE",
"567.773 213.281 OFFCURVE",
"567.383 229.688 CURVE",
"567.969 233.301 OFFCURVE",
"598.438 417.676 OFFCURVE",
"1184.18 417.676 CURVE SMOOTH",
"1769.92 417.676 OFFCURVE",
"1804.69 258.887 OFFCURVE",
"1804.69 252.246 CURVE"
);
}
);
width = 2400;
}
);
unicode = 0048;
},
{
glyphname = K;
lastChange = "2013-02-26 10:15:38 +0100";
layers = (
{
anchors = (
{
name = bottom;
position = "{300, 0}";
},
{
name = top;
position = "{300, 2400}";
}
);
layerId = "B666C820-39E7-4854-9B1A-8391CFDDE462";
name = Regular;
paths = (
{
closed = 1;
nodes = (
"1402.44 1293.65 OFFCURVE",
"1726.86 1335.74 OFFCURVE",
"2051.46 1267.77 CURVE",
"2051.46 2.14844 LINE",
"1809.86 87.4023 OFFCURVE",
"1426.86 60.7422 OFFCURVE",
"1232.13 -67 CURVE",
"1232.13 1165.33 LINE"
);
},
{
closed = 1;
nodes = (
"1474.22 -49 OFFCURVE",
"1989.84 -74 OFFCURVE",
"2200 -231 CURVE",
"2200 1158.4 LINE",
"2170.51 1164.55 OFFCURVE",
"2140.53 1169.82 OFFCURVE",
"2110.35 1174.32 CURVE",
"2110.35 -106 LINE",
"2070.51 -92 LINE SMOOTH",
"1977.54 -59 OFFCURVE",
"1862.7 -41 OFFCURVE",
"1738.18 -41 CURVE SMOOTH",
"1555.27 -41 OFFCURVE",
"1347.56 -81 OFFCURVE",
"1225 -155 CURVE SMOOTH",
"1206.54 -166 OFFCURVE",
"1190.62 -166 OFFCURVE",
"1172.95 -155 CURVE SMOOTH",
"1050 -82 OFFCURVE",
"844.629 -41 OFFCURVE",
"661.816 -41 CURVE SMOOTH",
"537.305 -41 OFFCURVE",
"422.363 -59 OFFCURVE",
"329.395 -92 CURVE SMOOTH",
"289.551 -106 LINE",
"289.551 1174.32 LINE",
"259.473 1169.82 OFFCURVE",
"229.492 1164.55 OFFCURVE",
"200 1158.4 CURVE",
"200 -231 LINE",
"410.059 -74 OFFCURVE",
"923.047 -50 OFFCURVE",
"1164.16 -175 CURVE SMOOTH",
"1187.89 -188 OFFCURVE",
"1209.08 -188 OFFCURVE",
"1233.89 -175 CURVE SMOOTH"
);
},
{
closed = 1;
nodes = (
"997.559 1293.65 OFFCURVE",
"673.144 1335.74 OFFCURVE",
"348.438 1267.77 CURVE",
"348.438 2.14844 LINE",
"590.039 87.4023 OFFCURVE",
"973.144 60.7422 OFFCURVE",
"1167.77 -67 CURVE",
"1167.77 1165.33 LINE"
);
}
);
width = 2400;
}
);
unicode = 004B;
},
{
glyphname = L;
lastChange = "2013-04-23 08:29:15 +0100";
layers = (
{
anchors = (
{
name = bottom;
position = "{300, 0}";
},
{
name = top;
position = "{300, 2400}";
}
);
layerId = "B666C820-39E7-4854-9B1A-8391CFDDE462";
name = Regular;
paths = (
{
closed = 1;
nodes = (
"847 1756 OFFCURVE",
"560 1470 OFFCURVE",
"560 1117 CURVE SMOOTH",
"560 1005 OFFCURVE",
"589 900 OFFCURVE",
"639 808 CURVE SMOOTH",
"748 611 OFFCURVE",
"1200 -127 OFFCURVE",
"1200 -127 CURVE SMOOTH",
"1200 -127 OFFCURVE",
"1652 611 OFFCURVE",
"1761 808 CURVE SMOOTH",
"1811 900 OFFCURVE",
"1840 1005 OFFCURVE",
"1840 1117 CURVE SMOOTH",
"1840 1470 OFFCURVE",
"1553 1756 OFFCURVE",
"1200 1756 CURVE SMOOTH"
);
},
{
closed = 1;
nodes = (
"1006 789 OFFCURVE",
"851 944 OFFCURVE",
"851 1136 CURVE SMOOTH",
"851 1327 OFFCURVE",
"1006 1483 OFFCURVE",
"1198 1483 CURVE SMOOTH",
"1390 1483 OFFCURVE",
"1545 1327 OFFCURVE",
"1545 1136 CURVE SMOOTH",
"1545 944 OFFCURVE",
"1390 789 OFFCURVE",
"1198 789 CURVE SMOOTH"
);
}
);
width = 2400;
}
);
unicode = 004C;
},
{
glyphname = M;
lastChange = "2013-04-23 12:42:36 +0100";
layers = (
{
layerId = "B666C820-39E7-4854-9B1A-8391CFDDE462";
name = Regular;
paths = (
{
closed = 1;
nodes = (
"1918 1021 LINE",
"1844 1091 LINE",
"1876 1184 LINE",
"1791 1235 LINE",
"1799 1334 LINE",
"1702 1362 LINE",
"1687 1461 LINE",
"1589 1464 LINE",
"1548 1557 LINE",
"1453 1535 LINE",
"1392 1618 LINE",
"1302 1573 LINE",
"1225 1635 LINE",
"1148 1573 LINE",
"1056 1618 LINE",
"997 1535 LINE",
"901 1557 LINE",
"863 1464 LINE",
"761 1461 LINE",
"746 1362 LINE",
"648 1334 LINE",
"659 1235 LINE",
"572 1184 LINE",
"604 1091 LINE",
"532 1021 LINE",
"587 936 LINE",
"532 851 LINE",
"604 783 LINE",
"572 687 LINE",
"659 640 LINE",
"648 539 LINE",
"746 513 LINE",
"761 414 LINE",
"863 410 LINE",
"865 402 LINE",
"600 -289 LINE",
"600 -289 OFFCURVE",
"878 -134 OFFCURVE",
"957 -13 CURVE",
"933 -150 OFFCURVE",
"1083 -447 OFFCURVE",
"1083 -447 CURVE",
"1246 206 LINE",
"1471 -287 LINE",
"1471 -287 OFFCURVE",
"1538 -26 OFFCURVE",
"1517 91 CURVE",
"1584 -5 OFFCURVE",
"1848 -89 OFFCURVE",
"1848 -89 CURVE",
"1570 369 LINE",
"1589 410 LINE",
"1687 414 LINE",
"1702 513 LINE",
"1799 539 LINE",
"1791 640 LINE",
"1876 687 LINE",
"1844 783 LINE",
"1918 851 LINE",
"1863 936 LINE"
);
}
);
width = 2400;
}
);
unicode = 004D;
},
{
glyphname = N;
lastChange = "2013-04-22 13:39:52 +0100";
layers = (
{
anchors = (
{
name = bottom;
position = "{300, 0}";
},
{
name = top;
position = "{300, 2400}";
}
);
layerId = "B666C820-39E7-4854-9B1A-8391CFDDE462";
name = Regular;
paths = (
{
closed = 1;
nodes = (
"818 257 OFFCURVE",
"853 325 OFFCURVE",
"923 325 CURVE SMOOTH",
"1110 325 LINE SMOOTH",
"1189 325 OFFCURVE",
"1218 250 OFFCURVE",
"1220 207 CURVE",
"1220 269 OFFCURVE",
"1239 325 OFFCURVE",
"1316 325 CURVE SMOOTH",
"1320 325 LINE",
"1342 342 LINE",
"1366 377 OFFCURVE",
"1418 449 OFFCURVE",
"1432 469 CURVE",
"1435 477 OFFCURVE",
"1438 515 OFFCURVE",
"1439 530 CURVE SMOOTH",
"1440 543 OFFCURVE",
"1442 561 OFFCURVE",
"1444 578 CURVE SMOOTH",
"1447 612 OFFCURVE",
"1452 655 OFFCURVE",
"1451 674 CURVE SMOOTH",
"1449 734 OFFCURVE",
"1485 792 OFFCURVE",
"1553 810 CURVE SMOOTH",
"1573 815 OFFCURVE",
"1593 820 OFFCURVE",
"1613 820 CURVE SMOOTH",
"1654 820 OFFCURVE",
"1694 776 OFFCURVE",
"1731 726 CURVE SMOOTH",
"1732 725 OFFCURVE",
"1733 724 OFFCURVE",
"1735 723 CURVE",
"1733 747 LINE",
"1823 798 LINE",
"1789 895 LINE",
"1864 966 LINE",
"1808 1053 LINE",
"1864 1140 LINE",
"1789 1211 LINE",
"1823 1309 LINE",
"1733 1359 LINE",
"1742 1462 LINE",
"1643 1490 LINE",
"1627 1592 LINE",
"1524 1595 LINE",
"1485 1691 LINE",
"1384 1669 LINE",
"1323 1752 LINE",
"1230 1707 LINE",
"1151 1773 LINE",
"1072 1707 LINE",
"979 1752 LINE",
"918 1669 LINE",
"817 1691 LINE",
"778 1595 LINE",
"675 1592 LINE",
"659 1490 LINE",
"560 1462 LINE",
"570 1359 LINE",
"479 1309 LINE",
"514 1211 LINE",
"438 1140 LINE",
"494 1053 LINE",
"438 966 LINE",
"514 895 LINE",
"479 798 LINE",
"570 747 LINE",
"560 644 LINE",
"659 616 LINE",
"675 514 LINE",
"778 511 LINE",
"781 504 LINE",
"492 -205 LINE",
"492 -205 OFFCURVE",
"718 -81 OFFCURVE",
"818 32 CURVE",
"818 187 LINE SMOOTH"
);
},
{
closed = 1;
nodes = (
"2048 262 OFFCURVE",
"2015 295 OFFCURVE",
"1974 295 CURVE SMOOTH",
"1854 295 LINE",
"1735 295 LINE SMOOTH",
"1735 295 OFFCURVE",
"1751 387 OFFCURVE",
"1751 415 CURVE SMOOTH",
"1752 443 OFFCURVE",
"1750 485 OFFCURVE",
"1743 513 CURVE SMOOTH",
"1729 575 OFFCURVE",
"1704 621 OFFCURVE",
"1670 647 CURVE SMOOTH",
"1636 673 OFFCURVE",
"1609 672 OFFCURVE",
"1585 664 CURVE SMOOTH",
"1575 661 OFFCURVE",
"1568 652 OFFCURVE",
"1568 642 CURVE SMOOTH",
"1569 604 OFFCURVE",
"1560 534 OFFCURVE",
"1556 489 CURVE SMOOTH",
"1551 435 OFFCURVE",
"1547 409 OFFCURVE",
"1532 387 CURVE SMOOTH",
"1517 365 OFFCURVE",
"1439 253 OFFCURVE",
"1427 237 CURVE SMOOTH",
"1416 223 OFFCURVE",
"1410 217 OFFCURVE",
"1393 214 CURVE SMOOTH",
"1383 213 OFFCURVE",
"1338 214 OFFCURVE",
"1316 214 CURVE SMOOTH",
"1295 214 OFFCURVE",
"1283 198 OFFCURVE",
"1283 183 CURVE SMOOTH",
"1283 170 OFFCURVE",
"1283 -87 OFFCURVE",
"1283 -172 CURVE SMOOTH",
"1283 -202 OFFCURVE",
"1293 -215 OFFCURVE",
"1322 -215 CURVE SMOOTH",
"1352 -215 OFFCURVE",
"1377 -295 OFFCURVE",
"1522 -295 CURVE SMOOTH",
"1583 -295 LINE",
"1847 -295 LINE",
"1847 -295 LINE",
"1863 -295 LINE SMOOTH",
"1904 -295 OFFCURVE",
"1937 -262 OFFCURVE",
"1937 -221 CURVE SMOOTH",
"1937 -181 OFFCURVE",
"1904 -148 OFFCURVE",
"1863 -148 CURVE",
"1912 -148 LINE SMOOTH",
"1952 -148 OFFCURVE",
"1986 -115 OFFCURVE",
"1986 -74 CURVE SMOOTH",
"1986 -33 OFFCURVE",
"1952 0 OFFCURVE",
"1912 0 CURVE",
"1948 0 LINE SMOOTH",
"1988 0 OFFCURVE",
"2022 33 OFFCURVE",
"2022 73 CURVE SMOOTH",
"2022 114 OFFCURVE",
"1988 147 OFFCURVE",
"1948 147 CURVE",
"1974 147 LINE SMOOTH",
"2015 147 OFFCURVE",
"2048 180 OFFCURVE",
"2048 221 CURVE SMOOTH"
);
},
{
closed = 1;
nodes = (
"1106 -280 OFFCURVE",
"1094 -292 OFFCURVE",
"1079 -292 CURVE SMOOTH",
"951 -292 LINE SMOOTH",
"936 -292 OFFCURVE",
"924 -280 OFFCURVE",
"924 -265 CURVE SMOOTH",
"924 187 LINE SMOOTH",
"924 202 OFFCURVE",
"936 214 OFFCURVE",
"951 214 CURVE SMOOTH",
"1079 214 LINE SMOOTH",
"1094 214 OFFCURVE",
"1106 202 OFFCURVE",
"1106 187 CURVE SMOOTH",
"1106 -265 LINE SMOOTH"
);
}
);
width = 2400;
}
);
unicode = 004E;
},
{
glyphname = O;
lastChange = "2013-01-16 10:32:10 +0100";
layers = (
{
anchors = (
{
name = top;
position = "{300, 2400}";
}
);
layerId = "B666C820-39E7-4854-9B1A-8391CFDDE462";
name = Regular;
paths = (
{
closed = 1;
nodes = (
"1800 1199.9 OFFCURVE",
"1699.8 1300 OFFCURVE",
"1576.27 1300 CURVE SMOOTH",
"723.731 1300 LINE SMOOTH",
"600.195 1300 OFFCURVE",
"500 1199.9 OFFCURVE",
"500 1076.37 CURVE SMOOTH",
"500 23.6328 LINE SMOOTH",
"500 -100 OFFCURVE",
"600.195 -200 OFFCURVE",
"723.731 -200 CURVE SMOOTH",
"1576.27 -200 LINE SMOOTH",
"1699.8 -200 OFFCURVE",
"1800 -100 OFFCURVE",
"1800 23.6328 CURVE SMOOTH",
"1800 1076.37 LINE SMOOTH"
);
},
{
closed = 1;
nodes = (
"1000 1000 LINE",
"1000 900 LINE",
"700 900 LINE",
"700 1000 LINE"
);
},
{
closed = 1;
nodes = (
"700 100 LINE",
"700 200 LINE",
"1600 200 LINE",
"1600 100 LINE"
);
},
{
closed = 1;
nodes = (
"700 300 LINE",
"700 400 LINE",
"1600 400 LINE",
"1600 300 LINE"
);
},
{
closed = 1;
nodes = (
"700 500 LINE",
"700 600 LINE",
"1600 600 LINE",
"1600 500 LINE"
);
}
);
width = 2400;
}
);
unicode = 004F;
},
{
glyphname = P;
lastChange = "2013-04-23 08:50:54 +0100";
layers = (
{
layerId = "B666C820-39E7-4854-9B1A-8391CFDDE462";
name = Regular;
paths = (
{
closed = 1;
nodes = (
"1366 906 OFFCURVE",
"1500 767 OFFCURVE",
"1500 603 CURVE",
"1500 439 OFFCURVE",
"1366 306 OFFCURVE",
"1200 306 CURVE",
"1034 306 OFFCURVE",
"900 439 OFFCURVE",
"900 603 CURVE",
"900 767 OFFCURVE",
"1034 906 OFFCURVE",
"1200 906 CURVE"
);
},
{
closed = 1;
nodes = (
"2000 144 LINE",
"2000 72 OFFCURVE",
"1924 0 OFFCURVE",
"1852 0 CURVE",
"548 0 LINE",
"476 0 OFFCURVE",
"400 72 OFFCURVE",
"400 144 CURVE",
"400 1032 LINE",
"400 1103 OFFCURVE",
"476 1156 OFFCURVE",
"548 1156 CURVE",
"1004 1156 LINE SMOOTH",
"1004 1227 LINE",
"1004 1263 OFFCURVE",
"1034 1306 OFFCURVE",
"1070 1306 CURVE",
"1331 1306 LINE",
"1367 1306 OFFCURVE",
"1396 1263 OFFCURVE",
"1396 1227 CURVE",
"1396 1156 LINE SMOOTH",
"1852 1156 LINE",
"1924 1156 OFFCURVE",
"2000 1103 OFFCURVE",
"2000 1032 CURVE"
);
},
{
closed = 1;
nodes = (
"1600 826 OFFCURVE",
"1421 1006 OFFCURVE",
"1200 1006 CURVE",
"979 1006 OFFCURVE",
"800 826 OFFCURVE",
"800 606 CURVE",
"800 385 OFFCURVE",
"979 206 OFFCURVE",
"1200 206 CURVE",
"1421 206 OFFCURVE",
"1600 385 OFFCURVE",
"1600 606 CURVE"
);
}
);
width = 2400;
}
);
unicode = 0050;
},
{
glyphname = R;
lastChange = "2013-05-17 12:41:47 +0100";
layers = (
{
anchors = (
{
name = bottom;
position = "{300, 0}";
},
{
name = top;
position = "{300, 2400}";
}
);
layerId = "B666C820-39E7-4854-9B1A-8391CFDDE462";
name = Regular;
paths = (
{
closed = 1;
nodes = (
"1704.39 415.82 OFFCURVE",
"1625.68 378.711 OFFCURVE",
"1569.63 319.727 CURVE",
"911.719 635.644 LINE",
"913.477 649.023 OFFCURVE",
"915.82 662.305 OFFCURVE",
"915.82 676.269 CURVE SMOOTH",
"915.82 693.75 OFFCURVE",
"913.477 710.352 OFFCURVE",
"910.742 727.051 CURVE",
"1576.07 1073.05 LINE",
"1631.64 1018.16 OFFCURVE",
"1707.91 984.18 OFFCURVE",
"1792.09 984.18 CURVE SMOOTH",
"1962.11 984.18 OFFCURVE",
"2100 1122.07 OFFCURVE",
"2100 1292.09 CURVE SMOOTH",
"2100 1462.16 OFFCURVE",
"1962.11 1600 OFFCURVE",
"1792.09 1600 CURVE SMOOTH",
"1622.07 1600 OFFCURVE",
"1484.18 1462.16 OFFCURVE",
"1484.18 1292.09 CURVE SMOOTH",
"1484.18 1274.76 OFFCURVE",
"1486.52 1258.01 OFFCURVE",
"1489.26 1241.41 CURVE",
"823.926 895.41 LINE",
"768.359 950.293 OFFCURVE",
"692.09 984.18 OFFCURVE",
"607.91 984.18 CURVE SMOOTH",
"437.891 984.18 OFFCURVE",
"300 846.387 OFFCURVE",
"300 676.269 CURVE SMOOTH",
"300 506.25 OFFCURVE",
"437.891 368.457 OFFCURVE",
"607.91 368.457 CURVE SMOOTH",
"695.606 368.457 OFFCURVE",
"774.316 405.566 OFFCURVE",
"830.371 464.453 CURVE",
"1488.28 148.633 LINE",
"1486.52 135.156 OFFCURVE",
"1484.18 121.875 OFFCURVE",
"1484.18 107.91 CURVE SMOOTH",
"1484.18 -62 OFFCURVE",
"1622.07 -200 OFFCURVE",
"1792.09 -200 CURVE SMOOTH",
"1962.11 -200 OFFCURVE",
"2100 -62 OFFCURVE",
"2100 107.91 CURVE SMOOTH",
"2100 277.93 OFFCURVE",
"1962.11 415.82 OFFCURVE",
"1792.09 415.82 CURVE SMOOTH"
);
}
);
width = 2400;
}
);
unicode = 0052;
},
{
glyphname = S;
lastChange = "2013-01-22 16:15:32 +0100";
layers = (
{
anchors = (
{
name = bottom;
position = "{300, 0}";
},
{
name = top;
position = "{300, 2400}";
}
);
layerId = "B666C820-39E7-4854-9B1A-8391CFDDE462";
name = Regular;
paths = (
{
closed = 1;
nodes = (
"812.598 1123.14 OFFCURVE",
"812.402 1109.28 OFFCURVE",
"812.402 1098.44 CURVE SMOOTH",
"812.402 1021.09 OFFCURVE",
"822.949 962.598 OFFCURVE",
"844.141 920.312 CURVE SMOOTH",
"865.332 877.832 OFFCURVE",
"879.199 873.828 OFFCURVE",
"879.785 874.316 CURVE",
"925.098 664.648 OFFCURVE",
"995.117 617.676 OFFCURVE",
"995.117 617.676 CURVE",
"995.117 542.285 LINE",
"1180.96 419.141 LINE",
"1347.56 532.422 LINE",
"1347.56 617.676 LINE",
"1347.56 617.676 OFFCURVE",
"1467.09 707.715 OFFCURVE",
"1479.2 876.367 CURVE",
"1480.27 875.586 OFFCURVE",
"1510.74 893.848 OFFCURVE",
"1530.57 939.844 CURVE SMOOTH",
"1550.68 986.133 OFFCURVE",
"1561.33 1027.34 OFFCURVE",
"1561.33 1104.79 CURVE SMOOTH",
"1561.33 1162.6 OFFCURVE",
"1551.95 1206.15 OFFCURVE",
"1537.7 1227.83 CURVE",
"1532.91 1274.61 OFFCURVE",
"1521.39 1299.61 OFFCURVE",
"1521.39 1299.61 CURVE",
"1521.58 1299.61 LINE",
"1499.9 1475.68 OFFCURVE",
"1375.49 1517.24 OFFCURVE",
"1375.49 1517.24 CURVE SMOOTH",
"1375.49 1517.24 OFFCURVE",
"1334.08 1654.49 OFFCURVE",
"1105.18 1601.46 CURVE SMOOTH",
"1095.9 1599.12 OFFCURVE",
"1086.82 1598.24 OFFCURVE",
"1077.64 1595.75 CURVE",
"1077.44 1595.56 OFFCURVE",
"1077.34 1595.95 OFFCURVE",
"1076.76 1595.85 CURVE",
"1071.19 1594.09 OFFCURVE",
"1065.92 1592.63 OFFCURVE",
"1060.55 1591.21 CURVE",
"1059.67 1590.43 OFFCURVE",
"1059.08 1584.23 OFFCURVE",
"1058.01 1584.03 CURVE",
"763.477 1482.71 OFFCURVE",
"809.18 1123.14 OFFCURVE",
"812.891 1123.14 CURVE"
);
},
{
closed = 1;
nodes = (
"1392.48 494.043 LINE",
"1230.47 -34 LINE",
"1118.36 -34 LINE",
"956.348 494.043 LINE",
"944.434 489.551 LINE",
"790.82 439.453 OFFCURVE",
"378.027 312.012 OFFCURVE",
"378.027 207.129 CURVE SMOOTH",
"378.027 -111 LINE",
"1970.8 -111 LINE",
"1970.8 207.129 LINE SMOOTH",
"1970.8 312.012 OFFCURVE",
"1558.01 439.453 OFFCURVE",
"1404.39 489.551 CURVE"
);
}
);
width = 2400;
}
);
unicode = 0053;
},
{
glyphname = T;
lastChange = "2013-04-23 08:19:50 +0100";
layers = (
{
anchors = (
{
name = bottom;
position = "{300, 0}";
},
{
name = center;
position = "{300, 1200}";
},
{
name = top;
position = "{300, 2400}";
}
);
layerId = "B666C820-39E7-4854-9B1A-8391CFDDE462";
name = Regular;
paths = (
{
closed = 1;
nodes = (
"699 1300 LINE",
"400 1061 LINE",
"400 828.613 LINE",
"1453.52 -308 LINE",
"2050.68 244.531 LINE",
"1025.2 1300 LINE"
);
},
{
closed = 1;
nodes = (
"705.664 828.613 OFFCURVE",
"643.164 891.309 OFFCURVE",
"643.164 968.359 CURVE SMOOTH",
"643.164 1045.61 OFFCURVE",
"705.664 1108.11 OFFCURVE",
"782.715 1108.11 CURVE SMOOTH",
"860.156 1108.11 OFFCURVE",
"922.754 1045.61 OFFCURVE",
"922.754 968.359 CURVE SMOOTH",
"922.754 891.309 OFFCURVE",
"860.156 828.613 OFFCURVE",
"782.715 828.613 CURVE SMOOTH"
);
}
);
width = 2400;
}
);
unicode = 0054;
},
{
glyphname = X;
lastChange = "2013-04-23 08:49:40 +0100";
layers = (
{
layerId = "B666C820-39E7-4854-9B1A-8391CFDDE462";
name = Regular;
paths = (
{
closed = 1;
nodes = (
"1600 130 OFFCURVE",
"1579 106 OFFCURVE",
"1550 106 CURVE SMOOTH",
"1522 106 OFFCURVE",
"1500 130 OFFCURVE",
"1500 159 CURVE SMOOTH",
"1500 200 LINE",
"900 200 LINE",
"900 159 LINE SMOOTH",
"900 130 OFFCURVE",
"878 106 OFFCURVE",
"850 106 CURVE SMOOTH",
"821 106 OFFCURVE",
"800 130 OFFCURVE",
"800 159 CURVE SMOOTH",
"800 200 LINE",
"500 200 LINE SMOOTH",
"500 200 OFFCURVE",
"591 0 OFFCURVE",
"735 0 CURVE SMOOTH",
"1664 0 LINE SMOOTH",
"1805 0 OFFCURVE",
"1900 200 OFFCURVE",
"1900 200 CURVE SMOOTH",
"1600 200 LINE",
"1600 159 LINE SMOOTH"
);
},
{
closed = 1;
nodes = (
"1500 1000 LINE",
"1500 1092 LINE SMOOTH",
"1500 1149 OFFCURVE",
"1463 1200 OFFCURVE",
"1406 1200 CURVE SMOOTH",
"994 1200 LINE SMOOTH",
"936 1200 OFFCURVE",
"900 1149 OFFCURVE",
"900 1092 CURVE SMOOTH",
"900 1000 LINE",
"581 1000 LINE SMOOTH",
"552 1000 OFFCURVE",
"500 965 OFFCURVE",
"500 937 CURVE SMOOTH",
"500 400 LINE SMOOTH",
"500 341 OFFCURVE",
"552 300 OFFCURVE",
"581 300 CURVE SMOOTH",
"800 300 LINE",
"800 418 LINE SMOOTH",
"800 446 OFFCURVE",
"821 469 OFFCURVE",
"850 469 CURVE SMOOTH",
"878 469 OFFCURVE",
"900 446 OFFCURVE",
"900 418 CURVE SMOOTH",
"900 300 LINE",
"1500 300 LINE",
"1500 418 LINE SMOOTH",
"1500 446 OFFCURVE",
"1522 469 OFFCURVE",
"1550 469 CURVE SMOOTH",
"1579 469 OFFCURVE",
"1600 446 OFFCURVE",
"1600 418 CURVE SMOOTH",
"1600 300 LINE",
"1819 300 LINE SMOOTH",
"1848 300 OFFCURVE",
"1900 350 OFFCURVE",
"1900 400 CURVE SMOOTH",
"1900 937 LINE SMOOTH",
"1900 965 OFFCURVE",
"1848 1000 OFFCURVE",
"1819 1000 CURVE SMOOTH"
);
},
{
closed = 1;
nodes = (
"1000 1000 LINE",
"1000 1100 LINE",
"1400 1100 LINE",
"1400 1000 LINE"
);
}
);
width = 2400;
}
);
unicode = 0058;
},
{
glyphname = Z;
lastChange = "2013-05-27 14:01:14 +0100";
layers = (
{
anchors = (
{
name = top;
position = "{300, 2400}";
}
);
layerId = "B666C820-39E7-4854-9B1A-8391CFDDE462";
name = Regular;
paths = (
{
closed = 1;
nodes = (
"2100 1150 LINE",
"2100 850 LINE",
"300 850 LINE",
"300 1150 LINE"
);
},
{
closed = 1;
nodes = (
"2099.51 1254.88 LINE",
"2100 1225 LINE",
"300 1225 LINE",
"300.195 1255.62 LINE",
"537.207 1425 LINE",
"1862.4 1425 LINE"
);
},
{
closed = 1;
nodes = (
"350 -138 LINE SMOOTH",
"350 -172 OFFCURVE",
"376.758 -200 OFFCURVE",
"409.668 -200 CURVE SMOOTH",
"1990.33 -200 LINE SMOOTH",
"2023.24 -200 OFFCURVE",
"2050 -172 OFFCURVE",
"2050 -138 CURVE SMOOTH",
"2050 700 LINE",
"350 700 LINE"
);
},
{
closed = 1;
nodes = (
"1575 281.885 OFFCURVE",
"1544.53 249.902 OFFCURVE",
"1506.74 249.902 CURVE SMOOTH",
"893.066 249.902 LINE SMOOTH",
"855.469 249.902 OFFCURVE",
"825 281.885 OFFCURVE",
"825 321.338 CURVE SMOOTH",
"825 428.516 LINE SMOOTH",
"825 468.018 OFFCURVE",
"855.469 500 OFFCURVE",
"893.066 500 CURVE SMOOTH",
"1506.74 500 LINE SMOOTH",
"1544.53 500 OFFCURVE",
"1575 468.018 OFFCURVE",
"1575 428.516 CURVE SMOOTH",
"1575 321.338 LINE SMOOTH"
);
}
);
width = 2400;
}
);
unicode = 005A;
},
{
glyphname = a;
lastChange = "2013-04-23 08:46:54 +0100";
layers = (
{
anchors = (
{
name = ogonek;
position = "{540, 10}";
},
{
name = top;
position = "{300, 2400}";
}
);
layerId = "B666C820-39E7-4854-9B1A-8391CFDDE462";
name = Regular;
paths = (
{
closed = 1;
nodes = (
"1146 0 LINE",
"378 0 LINE",
"378 318 LINE SMOOTH",
"378 423 OFFCURVE",
"791 550 OFFCURVE",
"944 601 CURVE",
"956 605 LINE",
"1129 43 LINE"
);
},
{
closed = 1;
nodes = (
"813 1234 OFFCURVE",
"812 1220 OFFCURVE",
"812 1209 CURVE SMOOTH",
"812 1132 OFFCURVE",
"823 1074 OFFCURVE",
"844 1031 CURVE SMOOTH",
"865 989 OFFCURVE",
"879 985 OFFCURVE",
"880 985 CURVE",
"925 776 OFFCURVE",
"995 729 OFFCURVE",
"995 729 CURVE",
"995 653 LINE",
"1181 530 LINE",
"1348 643 LINE",
"1348 729 LINE",
"1348 729 OFFCURVE",
"1467 819 OFFCURVE",
"1479 987 CURVE",
"1480 987 OFFCURVE",
"1511 1005 OFFCURVE",
"1531 1051 CURVE SMOOTH",
"1551 1097 OFFCURVE",
"1561 1138 OFFCURVE",
"1561 1216 CURVE SMOOTH",
"1561 1274 OFFCURVE",
"1552 1317 OFFCURVE",
"1538 1339 CURVE",
"1533 1386 OFFCURVE",
"1521 1411 OFFCURVE",
"1521 1411 CURVE",
"1522 1411 LINE",
"1500 1587 OFFCURVE",
"1375 1628 OFFCURVE",
"1375 1628 CURVE SMOOTH",
"1375 1628 OFFCURVE",
"1334 1765 OFFCURVE",
"1105 1712 CURVE SMOOTH",
"1096 1710 OFFCURVE",
"1087 1709 OFFCURVE",
"1078 1707 CURVE",
"1077 1707 OFFCURVE",
"1077 1707 OFFCURVE",
"1077 1707 CURVE",
"1071 1705 OFFCURVE",
"1066 1704 OFFCURVE",
"1061 1702 CURVE",
"1060 1701 OFFCURVE",
"1059 1695 OFFCURVE",
"1058 1695 CURVE",
"763 1594 OFFCURVE",
"809 1234 OFFCURVE",
"813 1234 CURVE"
);
},
{
closed = 1;
nodes = (
"1770 708 LINE SMOOTH",
"1570 708 LINE SMOOTH",
"1570 408 LINE SMOOTH",
"1270 408 LINE SMOOTH",
"1270 208 LINE SMOOTH",
"1570 208 LINE SMOOTH",
"1570 -92 LINE SMOOTH",
"1770 -92 LINE SMOOTH",
"1770 208 LINE SMOOTH",
"2070 208 LINE SMOOTH",
"2070 408 LINE SMOOTH",
"1770 408 LINE SMOOTH"
);
}
);
width = 2400;
}
);
unicode = 0061;
},
{
glyphname = atilde;
lastChange = "2013-07-16 08:57:54 +0100";
layers = (
{
layerId = "B666C820-39E7-4854-9B1A-8391CFDDE462";
name = Regular;
paths = (
{
closed = 1;
nodes = (
"1410.01 963.366 OFFCURVE",
"1483.77 1032.81 OFFCURVE",
"1574.92 1084.88 CURVE SMOOTH",
"1605.28 1102.24 OFFCURVE",
"1640.01 1119.6 OFFCURVE",
"1674.72 1132.63 CURVE",
"1739.83 1154.32 OFFCURVE",
"1809.25 1162.99 OFFCURVE",
"1878.67 1162.99 CURVE SMOOTH",
"1943.78 1162.99 OFFCURVE",
"2008.89 1154.32 OFFCURVE",
"2073.96 1132.63 CURVE",
"2086.98 1132.63 OFFCURVE",
"2095.65 1123.93 OFFCURVE",
"2100 1123.93 CURVE",
"2100 893.939 LINE",
"2095.65 902.612 OFFCURVE",
"2086.98 902.612 OFFCURVE",
"2073.96 906.958 CURVE",
"2008.89 946.013 OFFCURVE",
"1943.78 963.366 OFFCURVE",
"1874.36 963.366 CURVE SMOOTH",
"1800.56 963.366 OFFCURVE",
"1735.49 946.013 OFFCURVE",
"1674.72 906.958 CURVE",
"1648.68 893.939 OFFCURVE",
"1626.97 872.248 OFFCURVE",
"1605.28 854.884 CURVE",
"1531.52 776.774 OFFCURVE",
"1496.81 689.982 OFFCURVE",
"1496.81 581.49 CURVE SMOOTH",
"1496.81 507.736 OFFCURVE",
"1509.81 442.623 OFFCURVE",
"1544.54 386.203 CURVE",
"1574.92 329.784 OFFCURVE",
"1618.3 286.402 OFFCURVE",
"1674.72 256.02 CURVE",
"1679.07 256.02 OFFCURVE",
"1679.07 256.02 OFFCURVE",
"1683.39 251.674 CURVE",
"1739.83 221.291 OFFCURVE",
"1804.9 203.946 OFFCURVE",
"1878.67 203.946 CURVE SMOOTH",
"1939.43 203.946 OFFCURVE",
"1995.85 212.64 OFFCURVE",
"2047.93 234.329 CURVE",
"2052.27 243.023 OFFCURVE",
"2065.27 247.328 OFFCURVE",
"2073.96 251.674 CURVE SMOOTH",
"2082.66 256.02 OFFCURVE",
"2091.31 264.713 OFFCURVE",
"2100 269.059 CURVE",
"2100 34.7285 LINE",
"2095.65 30.3826 OFFCURVE",
"2086.98 30.3826 OFFCURVE",
"2073.96 26.0368 CURVE",
"2013.22 8.69175 OFFCURVE",
"1943.78 0 OFFCURVE",
"1874.36 0 CURVE SMOOTH",
"1800.56 0 OFFCURVE",
"1735.49 8.69175 OFFCURVE",
"1674.72 26.0368 CURVE SMOOTH",
"1592.26 52.0735 OFFCURVE",
"1514.15 99.799 OFFCURVE",
"1453.39 160.566 CURVE SMOOTH",
"1340.59 273.365 OFFCURVE",
"1284.17 412.24 OFFCURVE",
"1284.17 581.49 CURVE SMOOTH",
"1284.17 694.318 OFFCURVE",
"1310.21 794.13 OFFCURVE",
"1357.93 880.932 CURVE"
);
},
{
closed = 1;
nodes = (
"812.082 1141.29 LINE",
"1324.14 26.0368 LINE",
"1159.24 26.0368 LINE",
"1016.04 342.822 LINE",
"608.125 342.822 LINE",
"469.249 26.0368 LINE",
"300 26.0368 LINE"
);
},
{
closed = 1;
nodes = (
"812.082 837.531 LINE",
"651.505 481.678 LINE",
"972.64 481.678 LINE",
"972.64 481.678 LINE"
);
}
);
width = 2400;
}
);
unicode = 00E3;
},
{
glyphname = b;
lastChange = "2012-08-23 15:19:38 +0100";
layers = (
{
layerId = "B666C820-39E7-4854-9B1A-8391CFDDE462";
name = Regular;
paths = (
{
closed = 1;
nodes = (
"699.609 112.402 OFFCURVE",
"765.039 266.211 OFFCURVE",
"694.629 291.406 CURVE SMOOTH",
"429.98 386.23 OFFCURVE",
"250 572.461 OFFCURVE",
"250 786.816 CURVE SMOOTH",
"250 1097.27 OFFCURVE",
"627.441 1348.83 OFFCURVE",
"1093.07 1348.83 CURVE SMOOTH",
"1496.48 1348.83 OFFCURVE",
"1833.4 1159.77 OFFCURVE",
"1916.11 907.324 CURVE",
"1800.59 964.844 OFFCURVE",
"1659.08 998.633 OFFCURVE",
"1504.3 998.633 CURVE SMOOTH",
"1105.47 998.633 OFFCURVE",
"792.969 774.316 OFFCURVE",
"792.969 489.648 CURVE SMOOTH",
"792.969 360.059 OFFCURVE",
"858.301 243.066 OFFCURVE",
"966.406 153.613 CURVE",
"867.188 87.793 OFFCURVE",
"727.734 0 OFFCURVE",
"587.207 0 CURVE"
);
},
{
closed = 1;
nodes = (
"1166.7 900 OFFCURVE",
"892.969 717.578 OFFCURVE",
"892.969 492.383 CURVE SMOOTH",
"892.969 267.285 OFFCURVE",
"1166.7 84.7656 OFFCURVE",
"1504.3 84.7656 CURVE SMOOTH",
"1546.88 84.7656 OFFCURVE",
"1708.2 -78 OFFCURVE",
"1871.19 -78 CURVE",
"1789.65 3.22266 OFFCURVE",
"1742.29 114.844 OFFCURVE",
"1793.26 133.105 CURVE SMOOTH",
"1985.25 201.855 OFFCURVE",
"2115.82 336.914 OFFCURVE",
"2115.82 492.383 CURVE SMOOTH",
"2115.82 717.578 OFFCURVE",
"1841.99 900 OFFCURVE",
"1504.3 900 CURVE SMOOTH"
);
}
);
width = 2400;
}
);
unicode = 0062;
},
{
glyphname = c;
lastChange = "2012-08-24 09:09:41 +0100";
layers = (
{
anchors = (
{
name = bottom;
position = "{300, 0}";
},
{
name = top;
position = "{300, 2400}";
}
);
layerId = "B666C820-39E7-4854-9B1A-8391CFDDE462";
name = Regular;
paths = (
{
closed = 1;
nodes = (
"878.125 755.469 OFFCURVE",
"1044.63 921.875 OFFCURVE",
"1250 921.875 CURVE SMOOTH",
"1455.37 921.875 OFFCURVE",
"1621.88 755.469 OFFCURVE",
"1621.88 550 CURVE SMOOTH",
"1621.88 344.531 OFFCURVE",
"1455.37 178.125 OFFCURVE",
"1250 178.125 CURVE SMOOTH",
"1044.63 178.125 OFFCURVE",
"878.125 344.531 OFFCURVE",
"878.125 550 CURVE SMOOTH"
);
},
{
closed = 1;
nodes = (
"447.559 709.375 OFFCURVE",
"400 661.816 OFFCURVE",
"400 603.125 CURVE SMOOTH",
"400 496.875 LINE SMOOTH",
"400 438.281 OFFCURVE",
"447.559 390.625 OFFCURVE",
"506.25 390.625 CURVE SMOOTH",
"656.836 390.625 LINE",
"670.898 338.477 OFFCURVE",
"691.602 288.965 OFFCURVE",
"717.969 243.262 CURVE",
"611.426 136.816 LINE SMOOTH",
"569.922 95.3125 OFFCURVE",
"569.922 28.0273 OFFCURVE",
"611.426 -13 CURVE SMOOTH",
"686.426 -89 LINE SMOOTH",
"727.93 -130 OFFCURVE",
"795.312 -130 OFFCURVE",
"836.816 -89 CURVE SMOOTH",
"943.359 18.0664 LINE",
"988.965 -8 OFFCURVE",
"1038.38 -29 OFFCURVE",
"1090.62 -43 CURVE",
"1090.62 -194 LINE SMOOTH",
"1090.62 -252 OFFCURVE",
"1138.18 -300 OFFCURVE",
"1196.88 -300 CURVE SMOOTH",
"1303.12 -300 LINE SMOOTH",
"1361.82 -300 OFFCURVE",
"1409.38 -252 OFFCURVE",
"1409.38 -194 CURVE SMOOTH",
"1409.38 -43 LINE",
"1461.52 -29 OFFCURVE",
"1510.84 -8 OFFCURVE",
"1556.45 18.0664 CURVE",
"1663.18 -89 LINE SMOOTH",
"1704.69 -130 OFFCURVE",
"1772.07 -130 OFFCURVE",
"1813.48 -89 CURVE SMOOTH",
"1888.57 -13 LINE SMOOTH",
"1930.08 28.0273 OFFCURVE",
"1930.08 95.3125 OFFCURVE",
"1888.57 136.719 CURVE SMOOTH",
"1782.03 243.555 LINE",
"1808.4 289.16 OFFCURVE",
"1828.91 338.477 OFFCURVE",
"1842.87 390.625 CURVE",
"1993.75 390.625 LINE SMOOTH",
"2052.44 390.625 OFFCURVE",
"2100 438.281 OFFCURVE",
"2100 496.875 CURVE SMOOTH",
"2100 603.125 LINE SMOOTH",
"2100 661.816 OFFCURVE",
"2052.44 709.375 OFFCURVE",
"1993.75 709.375 CURVE SMOOTH",
"1843.16 709.375 LINE",
"1829.1 761.523 OFFCURVE",
"1808.4 811.035 OFFCURVE",
"1782.03 856.738 CURVE",
"1888.57 963.184 LINE SMOOTH",
"1930.08 1004.69 OFFCURVE",
"1930.08 1071.97 OFFCURVE",
"1888.57 1113.48 CURVE SMOOTH",
"1813.48 1188.62 LINE SMOOTH",
"1771.97 1230.13 OFFCURVE",
"1704.69 1230.13 OFFCURVE",
"1663.18 1188.62 CURVE SMOOTH",
"1556.64 1081.93 LINE",
"1511.04 1108.35 OFFCURVE",
"1461.62 1129.1 OFFCURVE",
"1409.38 1143.07 CURVE",
"1409.38 1293.75 LINE SMOOTH",
"1409.38 1352.44 OFFCURVE",
"1361.82 1400 OFFCURVE",
"1303.12 1400 CURVE SMOOTH",
"1196.88 1400 LINE SMOOTH",
"1138.18 1400 OFFCURVE",
"1090.62 1352.44 OFFCURVE",
"1090.62 1293.75 CURVE SMOOTH",
"1090.62 1142.92 LINE",
"1038.48 1128.96 OFFCURVE",
"989.16 1108.3 OFFCURVE",
"943.555 1081.93 CURVE",
"836.816 1188.62 LINE SMOOTH",
"795.312 1230.13 OFFCURVE",
"728.027 1230.13 OFFCURVE",
"686.523 1188.62 CURVE SMOOTH",
"611.426 1113.43 LINE SMOOTH",
"569.922 1071.97 OFFCURVE",
"569.922 1004.69 OFFCURVE",
"611.426 963.184 CURVE SMOOTH",
"717.969 856.445 LINE",
"691.602 810.84 OFFCURVE",
"671.094 761.523 OFFCURVE",
"657.129 709.375 CURVE",
"506.25 709.375 LINE SMOOTH"
);
},
{
closed = 1;
nodes = (
"1090.62 461.914 OFFCURVE",
"1162.01 390.625 OFFCURVE",
"1250 390.625 CURVE SMOOTH",
"1337.99 390.625 OFFCURVE",
"1409.38 461.914 OFFCURVE",
"1409.38 550 CURVE SMOOTH",
"1409.38 638.086 OFFCURVE",
"1337.99 709.375 OFFCURVE",
"1250 709.375 CURVE SMOOTH",
"1162.01 709.375 OFFCURVE",
"1090.62 638.086 OFFCURVE",
"1090.62 550 CURVE SMOOTH"
);
}
);
width = 2400;
}
);
unicode = 0063;
},
{
glyphname = d;
lastChange = "2013-02-26 10:14:51 +0100";
layers = (
{
anchors = (
{
name = center;
position = "{300, 1200}";
}
);
layerId = "B666C820-39E7-4854-9B1A-8391CFDDE462";
name = Regular;
paths = (
{
closed = 1;
nodes = (
"858.008 1106.1 OFFCURVE",
"819.824 1067.97 OFFCURVE",
"772.754 1067.97 CURVE SMOOTH",
"762.109 1067.97 LINE SMOOTH",
"715.039 1067.97 OFFCURVE",
"676.856 1106.1 OFFCURVE",
"676.856 1153.22 CURVE SMOOTH",
"676.856 1495.9 LINE SMOOTH",
"676.856 1542.97 OFFCURVE",
"715.039 1581.15 OFFCURVE",
"762.109 1581.15 CURVE SMOOTH",
"772.754 1581.15 LINE SMOOTH",
"819.824 1581.15 OFFCURVE",
"858.008 1542.97 OFFCURVE",
"858.008 1495.9 CURVE SMOOTH",
"858.008 1153.22 LINE SMOOTH"
);
},
{
closed = 1;
nodes = (
"1703.32 1542.97 OFFCURVE",
"1665.14 1581.15 OFFCURVE",
"1618.07 1581.15 CURVE SMOOTH",
"1607.42 1581.15 LINE SMOOTH",
"1560.35 1581.15 OFFCURVE",
"1522.17 1542.97 OFFCURVE",
"1522.17 1495.9 CURVE SMOOTH",
"1522.17 1153.22 LINE SMOOTH",
"1522.17 1106.1 OFFCURVE",
"1560.35 1067.97 OFFCURVE",
"1607.42 1067.97 CURVE SMOOTH",
"1618.07 1067.97 LINE SMOOTH",
"1665.14 1067.97 OFFCURVE",
"1703.32 1106.1 OFFCURVE",
"1703.32 1153.22 CURVE SMOOTH",
"1703.32 1495.9 LINE SMOOTH"
);
},
{
closed = 1;
nodes = (
"1793.85 1279.25 LINE",
"1793.85 1153.22 LINE SMOOTH",
"1793.85 1056.25 OFFCURVE",
"1715.04 977.344 OFFCURVE",
"1618.07 977.344 CURVE SMOOTH",
"1607.42 977.344 LINE SMOOTH",
"1510.45 977.344 OFFCURVE",
"1431.64 1056.25 OFFCURVE",
"1431.64 1153.22 CURVE SMOOTH",
"1431.64 1279.25 LINE",
"948.633 1279.25 LINE",
"948.633 1153.22 LINE SMOOTH",
"948.633 1056.25 OFFCURVE",
"869.727 977.344 OFFCURVE",
"772.754 977.344 CURVE SMOOTH",
"762.109 977.344 LINE SMOOTH",
"665.234 977.344 OFFCURVE",
"586.328 1056.25 OFFCURVE",
"586.328 1153.22 CURVE SMOOTH",
"586.328 1279.25 LINE",
"417.871 1279.25 LINE SMOOTH",
"391.602 1279.25 OFFCURVE",
"375 1272.41 OFFCURVE",
"375 1246.14 CURVE SMOOTH",
"375 -167 LINE SMOOTH",
"375 -193 OFFCURVE",
"391.602 -200 OFFCURVE",
"417.871 -200 CURVE SMOOTH",
"1941.41 -200 LINE SMOOTH",
"1967.68 -200 OFFCURVE",
"1975 -193 OFFCURVE",
"1975 -167 CURVE SMOOTH",
"1975 1246.14 LINE SMOOTH",
"1975 1272.41 OFFCURVE",
"1967.68 1279.25 OFFCURVE",
"1941.41 1279.25 CURVE SMOOTH"
);
},
{
closed = 1;
nodes = (
"1884.47 -94 OFFCURVE",
"1858.4 -109 OFFCURVE",
"1832.03 -109 CURVE SMOOTH",
"527.148 -109 LINE SMOOTH",
"500.977 -109 OFFCURVE",
"465.527 -94 OFFCURVE",
"465.527 -68 CURVE SMOOTH",
"465.527 791.406 LINE SMOOTH",
"465.527 817.676 OFFCURVE",
"500.977 826.367 OFFCURVE",
"527.148 826.367 CURVE SMOOTH",
"1832.03 826.367 LINE SMOOTH",
"1858.4 826.367 OFFCURVE",
"1884.47 817.676 OFFCURVE",
"1884.47 791.406 CURVE SMOOTH",
"1884.47 -68 LINE SMOOTH"
);
},
{
closed = 1;
nodes = (
"947.363 693.457 OFFCURVE",
"909.082 731.738 OFFCURVE",
"861.816 731.738 CURVE SMOOTH",
"668.457 731.738 LINE SMOOTH",
"621.191 731.738 OFFCURVE",
"582.812 693.457 OFFCURVE",
"582.812 646.191 CURVE SMOOTH",
"582.812 478.906 LINE SMOOTH",
"582.812 431.641 OFFCURVE",
"621.191 393.262 OFFCURVE",
"668.457 393.262 CURVE SMOOTH",
"861.816 393.262 LINE SMOOTH",
"909.082 393.262 OFFCURVE",
"947.363 431.641 OFFCURVE",
"947.363 478.906 CURVE SMOOTH",
"947.363 646.191 LINE SMOOTH"
);
},
{
closed = 1;
nodes = (
"1361.52 693.457 OFFCURVE",
"1323.14 731.738 OFFCURVE",
"1275.98 731.738 CURVE SMOOTH",
"1082.52 731.738 LINE SMOOTH",
"1035.25 731.738 OFFCURVE",
"996.973 693.457 OFFCURVE",
"996.973 646.191 CURVE SMOOTH",
"996.973 478.906 LINE SMOOTH",
"996.973 431.641 OFFCURVE",
"1035.25 393.262 OFFCURVE",
"1082.52 393.262 CURVE SMOOTH",
"1275.98 393.262 LINE SMOOTH",
"1323.14 393.262 OFFCURVE",
"1361.52 431.641 OFFCURVE",
"1361.52 478.906 CURVE SMOOTH",
"1361.52 646.191 LINE SMOOTH"
);
},
{
closed = 1;
nodes = (
"1783.5 693.457 OFFCURVE",
"1745.12 731.738 OFFCURVE",
"1697.95 731.738 CURVE SMOOTH",
"1504.49 731.738 LINE SMOOTH",
"1457.23 731.738 OFFCURVE",
"1418.95 693.457 OFFCURVE",
"1418.95 646.191 CURVE SMOOTH",
"1418.95 478.906 LINE SMOOTH",
"1418.95 431.641 OFFCURVE",
"1457.23 393.262 OFFCURVE",
"1504.49 393.262 CURVE SMOOTH",
"1697.95 393.262 LINE SMOOTH",
"1745.12 393.262 OFFCURVE",
"1783.5 431.641 OFFCURVE",
"1783.5 478.906 CURVE SMOOTH",
"1783.5 646.191 LINE SMOOTH"
);
},
{
closed = 1;
nodes = (
"947.363 294.238 OFFCURVE",
"909.082 332.52 OFFCURVE",
"861.816 332.52 CURVE SMOOTH",
"668.457 332.52 LINE SMOOTH",
"621.191 332.52 OFFCURVE",
"582.812 294.238 OFFCURVE",
"582.812 246.973 CURVE SMOOTH",
"582.812 79.5898 LINE SMOOTH",
"582.812 32.3242 OFFCURVE",
"621.191 -6 OFFCURVE",
"668.457 -6 CURVE SMOOTH",
"861.816 -6 LINE SMOOTH",
"909.082 -6 OFFCURVE",
"947.363 32.3242 OFFCURVE",
"947.363 79.5898 CURVE SMOOTH",
"947.363 246.973 LINE SMOOTH"
);
},
{
closed = 1;
nodes = (
"1361.52 294.238 OFFCURVE",
"1323.14 332.52 OFFCURVE",
"1275.98 332.52 CURVE SMOOTH",
"1082.52 332.52 LINE SMOOTH",
"1035.25 332.52 OFFCURVE",
"996.973 294.238 OFFCURVE",
"996.973 246.973 CURVE SMOOTH",
"996.973 79.5898 LINE SMOOTH",
"996.973 32.3242 OFFCURVE",
"1035.25 -6 OFFCURVE",
"1082.52 -6 CURVE SMOOTH",
"1275.98 -6 LINE SMOOTH",
"1323.14 -6 OFFCURVE",
"1361.52 32.3242 OFFCURVE",
"1361.52 79.5898 CURVE SMOOTH",
"1361.52 246.973 LINE SMOOTH"
);
},
{
closed = 1;
nodes = (
"1783.5 294.238 OFFCURVE",
"1745.12 332.52 OFFCURVE",
"1697.95 332.52 CURVE SMOOTH",
"1504.49 332.52 LINE SMOOTH",
"1457.23 332.52 OFFCURVE",
"1418.95 294.238 OFFCURVE",
"1418.95 246.973 CURVE SMOOTH",
"1418.95 79.5898 LINE SMOOTH",
"1418.95 32.3242 OFFCURVE",
"1457.23 -6 OFFCURVE",
"1504.49 -6 CURVE SMOOTH",
"1697.95 -6 LINE SMOOTH",
"1745.12 -6 OFFCURVE",
"1783.5 32.3242 OFFCURVE",
"1783.5 79.5898 CURVE SMOOTH",
"1783.5 246.973 LINE SMOOTH"
);
}
);
width = 2400;
}
);
unicode = 0064;
},
{
glyphname = e;
lastChange = "2012-08-23 15:16:20 +0100";
layers = (
{
anchors = (
{
name = bottom;
position = "{300, 0}";
},
{
name = ogonek;
position = "{540, 10}";
},
{
name = top;
position = "{300, 2400}";
}
);
layerId = "B666C820-39E7-4854-9B1A-8391CFDDE462";
name = Regular;
paths = (
{
closed = 1;
nodes = (
"600 1200 OFFCURVE",
"200 500 OFFCURVE",
"200 500 CURVE SMOOTH",
"200 500 OFFCURVE",
"600 -200 OFFCURVE",
"1200 -200 CURVE SMOOTH",
"1800 -200 OFFCURVE",
"2200 500 OFFCURVE",
"2200 500 CURVE SMOOTH",
"2200 500 OFFCURVE",
"1800 1200 OFFCURVE",
"1200 1200 CURVE SMOOTH"
);
},
{
closed = 1;
nodes = (
"923.877 0 OFFCURVE",
"700 223.828 OFFCURVE",
"700 500 CURVE SMOOTH",
"700 776.172 OFFCURVE",
"923.877 1000 OFFCURVE",
"1200 1000 CURVE SMOOTH",
"1476.17 1000 OFFCURVE",
"1700 776.172 OFFCURVE",
"1700 500 CURVE SMOOTH",
"1700 223.828 OFFCURVE",
"1476.17 0 OFFCURVE",
"1200 0 CURVE SMOOTH"
);
},
{
closed = 1;
nodes = (
"1089.55 700 OFFCURVE",
"1000 610.449 OFFCURVE",
"1000 500 CURVE SMOOTH",
"1000 389.551 OFFCURVE",
"1089.55 300 OFFCURVE",
"1200 300 CURVE SMOOTH",
"1310.45 300 OFFCURVE",
"1400 389.551 OFFCURVE",
"1400 500 CURVE SMOOTH",
"1400 610.449 OFFCURVE",
"1310.45 700 OFFCURVE",
"1200 700 CURVE SMOOTH"
);
}
);
width = 2400;
}
);
unicode = 0065;
},
{
glyphname = f;
lastChange = "2012-08-31 11:59:12 +0100";
layers = (
{
layerId = "B666C820-39E7-4854-9B1A-8391CFDDE462";
name = Regular;
paths = (
{
closed = 1;
nodes = (
"968.848 585.938 LINE",
"739.062 585.938 LINE",
"739.062 898.633 LINE",
"968.848 898.633 LINE",
"968.848 898.633 OFFCURVE",
"968.848 1026.95 OFFCURVE",
"968.848 1165.97 CURVE SMOOTH",
"968.848 1375.93 OFFCURVE",
"1104.49 1568.75 OFFCURVE",
"1417.29 1568.75 CURVE SMOOTH",
"1543.85 1568.75 OFFCURVE",
"1637.6 1556.64 OFFCURVE",
"1637.6 1556.64 CURVE",
"1630.08 1264.45 LINE",
"1630.08 1264.45 OFFCURVE",
"1534.67 1265.43 OFFCURVE",
"1430.37 1265.43 CURVE SMOOTH",
"1317.68 1265.43 OFFCURVE",
"1299.51 1213.48 OFFCURVE",
"1299.51 1127.15 CURVE SMOOTH",
"1299.51 1058.98 OFFCURVE",
"1299.51 1272.56 OFFCURVE",
"1299.51 898.633 CURVE",
"1639.06 898.633 LINE",
"1624.32 585.938 LINE",
"1299.51 585.938 LINE",
"1299.51 -283 LINE",
"968.848 -283 LINE"
);
}
);
width = 2400;
}
);
unicode = 0066;
},
{
glyphname = g;
lastChange = "2012-08-31 12:13:07 +0100";
layers = (
{
anchors = (
{
name = top;
position = "{300, 2400}";
}
);
layerId = "B666C820-39E7-4854-9B1A-8391CFDDE462";
name = Regular;
paths = (
{
closed = 1;
nodes = (
"1293.46 476.367 OFFCURVE",
"1194.82 565.234 OFFCURVE",
"1194.82 617.383 CURVE SMOOTH",
"1194.82 678.516 OFFCURVE",
"1212.3 708.594 OFFCURVE",
"1304.3 780.469 CURVE SMOOTH",
"1398.63 854.199 OFFCURVE",
"1465.43 953.906 OFFCURVE",
"1465.43 1074.41 CURVE SMOOTH",
"1465.43 1217.97 OFFCURVE",
"1401.46 1400 OFFCURVE",
"1281.54 1400 CURVE",
"1462.4 1400 LINE",
"1590.04 1500 LINE",
"1590.04 1500 OFFCURVE",
"1162.3 1500 OFFCURVE",
"1019.73 1500 CURVE SMOOTH",
"763.965 1500 OFFCURVE",
"523.34 1306.25 OFFCURVE",
"523.34 1081.84 CURVE SMOOTH",
"523.34 852.637 OFFCURVE",
"697.656 667.578 OFFCURVE",
"957.812 667.578 CURVE SMOOTH",
"975.879 667.578 OFFCURVE",
"993.457 667.969 OFFCURVE",
"1010.64 669.141 CURVE",
"993.75 636.816 OFFCURVE",
"981.738 600.391 OFFCURVE",
"981.738 562.598 CURVE SMOOTH",
"981.738 498.828 OFFCURVE",
"1016.02 447.266 OFFCURVE",
"1059.38 405.078 CURVE",
"1026.56 405.078 OFFCURVE",
"994.922 404.102 OFFCURVE",
"960.449 404.102 CURVE SMOOTH",
"643.75 404.102 OFFCURVE",
"400 202.344 OFFCURVE",
"400 -7 CURVE SMOOTH",
"400 -213 OFFCURVE",
"667.188 -342 OFFCURVE",
"983.887 -342 CURVE SMOOTH",
"1345.02 -342 OFFCURVE",
"1544.43 -137 OFFCURVE",
"1544.43 69.3359 CURVE SMOOTH",
"1544.43 234.375 OFFCURVE",
"1495.7 333.398 OFFCURVE",
"1345.02 439.941 CURVE SMOOTH"
);
},
{
closed = 1;
nodes = (
"893.359 730.078 OFFCURVE",
"753.711 890.039 OFFCURVE",
"728.32 1083.01 CURVE SMOOTH",
"703.027 1275.98 OFFCURVE",
"801.562 1423.63 OFFCURVE",
"948.438 1419.24 CURVE SMOOTH",
"1095.31 1414.84 OFFCURVE",
"1235.06 1259.96 OFFCURVE",
"1260.35 1067.09 CURVE SMOOTH",
"1285.74 874.121 OFFCURVE",
"1187.21 721.289 OFFCURVE",
"1040.33 725.684 CURVE SMOOTH"
);
},
{
closed = 1;
nodes = (
"763.867 -251 OFFCURVE",
"605.762 -112 OFFCURVE",
"605.762 54.4922 CURVE SMOOTH",
"605.762 217.578 OFFCURVE",
"801.856 353.418 OFFCURVE",
"1020.8 351.074 CURVE SMOOTH",
"1071.88 350.586 OFFCURVE",
"1119.43 342.383 OFFCURVE",
"1162.7 328.32 CURVE",
"1281.54 245.703 OFFCURVE",
"1366.8 199.023 OFFCURVE",
"1390.82 104.883 CURVE SMOOTH",
"1395.31 85.7422 OFFCURVE",
"1397.75 66.0156 OFFCURVE",
"1397.75 45.9961 CURVE SMOOTH",
"1397.75 -121 OFFCURVE",
"1290.53 -251 OFFCURVE",
"982.715 -251 CURVE SMOOTH"
);
},
{
closed = 1;
nodes = (
"2000 1500 LINE",
"2000 1200 LINE",
"2300 1200 LINE",
"2300 1100 LINE",
"2000 1100 LINE",
"2000 800 LINE",
"1900 800 LINE",
"1900 1100 LINE",
"1600 1100 LINE",
"1600 1200 LINE",
"1900 1200 LINE",
"1900 1500 LINE"
);
}
);
width = 2400;
}
);
unicode = 0067;
},
{
glyphname = h;
lastChange = "2013-04-22 14:16:13 +0100";
layers = (
{
anchors = (
{
name = center;
position = "{1200, 1200}";
},
{
name = top;
position = "{1200, 2400}";
}
);
layerId = "B666C820-39E7-4854-9B1A-8391CFDDE462";
name = Regular;
paths = (
{
closed = 1;
nodes = (
"620.898 1600.29 OFFCURVE",
"649.023 1584.52 OFFCURVE",
"666.699 1548.63 CURVE SMOOTH",
"678.418 1524.56 OFFCURVE",
"847 1156 OFFCURVE",
"858 1133 CURVE SMOOTH",
"874 1099 OFFCURVE",
"868 1071 OFFCURVE",
"848 1047 CURVE SMOOTH",
"835 1031 OFFCURVE",
"712.891 870.41 OFFCURVE",
"700.488 854.102 CURVE SMOOTH",
"687.988 837.891 OFFCURVE",
"672.07 810.059 OFFCURVE",
"690.43 776.465 CURVE SMOOTH",
"853.125 479.932 OFFCURVE",
"1186.04 215.918 OFFCURVE",
"1390.04 140.723 CURVE SMOOTH",
"1423.83 128.271 OFFCURVE",
"1466.31 123.291 OFFCURVE",
"1485.06 140.723 CURVE SMOOTH",
"1503.91 158.35 OFFCURVE",
"1652 300 OFFCURVE",
"1678 327 CURVE SMOOTH",
"1710 360 OFFCURVE",
"1736 361 OFFCURVE",
"1780 344 CURVE SMOOTH",
"1812 332 OFFCURVE",
"2187.11 184.57 OFFCURVE",
"2212.21 172.07 CURVE SMOOTH",
"2237.21 159.521 OFFCURVE",
"2246.88 124.902 OFFCURVE",
"2241.02 94.4824 CURVE SMOOTH",
"2194.73 -142 OFFCURVE",
"2038.18 -257 OFFCURVE",
"1924.41 -290 CURVE SMOOTH",
"1810.55 -322 OFFCURVE",
"1579.98 -298 OFFCURVE",
"1453.71 -268 CURVE SMOOTH",
"919.141 -141 OFFCURVE",
"282.617 531.787 OFFCURVE",
"168.75 994.58 CURVE SMOOTH",
"141.992 1103.66 OFFCURVE",
"167.188 1256.98 OFFCURVE",
"190.723 1326.12 CURVE SMOOTH",
"212.109 1388.77 OFFCURVE",
"270.605 1568.6 OFFCURVE",
"592.188 1597.71 CURVE SMOOTH"
);
}
);
width = 2400;
}
);
unicode = 0068;
},
{
glyphname = i;
lastChange = "2013-04-23 08:47:23 +0100";
layers = (
{
layerId = "B666C820-39E7-4854-9B1A-8391CFDDE462";
name = Regular;
paths = (
{
closed = 1;
nodes = (
"1146 0 LINE",
"378 0 LINE",
"378 318 LINE SMOOTH",
"378 423 OFFCURVE",
"791 550 OFFCURVE",
"944 601 CURVE",
"956 605 LINE",
"1129 43 LINE"
);
},
{
closed = 1;
nodes = (
"813 1234 OFFCURVE",
"812 1220 OFFCURVE",
"812 1209 CURVE SMOOTH",
"812 1132 OFFCURVE",
"823 1074 OFFCURVE",
"844 1031 CURVE SMOOTH",
"865 989 OFFCURVE",
"879 985 OFFCURVE",
"880 985 CURVE",
"925 776 OFFCURVE",
"995 729 OFFCURVE",
"995 729 CURVE",
"995 653 LINE",
"1181 530 LINE",
"1348 643 LINE",
"1348 729 LINE",
"1348 729 OFFCURVE",
"1467 819 OFFCURVE",
"1479 987 CURVE",
"1480 987 OFFCURVE",
"1511 1005 OFFCURVE",
"1531 1051 CURVE SMOOTH",
"1551 1097 OFFCURVE",
"1561 1138 OFFCURVE",
"1561 1216 CURVE SMOOTH",
"1561 1274 OFFCURVE",
"1552 1317 OFFCURVE",
"1538 1339 CURVE",
"1533 1386 OFFCURVE",
"1521 1411 OFFCURVE",
"1521 1411 CURVE",
"1522 1411 LINE",
"1500 1587 OFFCURVE",
"1375 1628 OFFCURVE",
"1375 1628 CURVE SMOOTH",
"1375 1628 OFFCURVE",
"1334 1765 OFFCURVE",
"1105 1712 CURVE SMOOTH",
"1096 1710 OFFCURVE",
"1087 1709 OFFCURVE",
"1078 1707 CURVE",
"1077 1707 OFFCURVE",
"1077 1707 OFFCURVE",
"1077 1707 CURVE",
"1071 1705 OFFCURVE",
"1066 1704 OFFCURVE",
"1061 1702 CURVE",
"1060 1701 OFFCURVE",
"1059 1695 OFFCURVE",
"1058 1695 CURVE",
"763 1594 OFFCURVE",
"809 1234 OFFCURVE",
"813 1234 CURVE"
);
},
{
closed = 1;
nodes = (
"2002 618 LINE SMOOTH",
"1977 644 OFFCURVE",
"1934 644 OFFCURVE",
"1908 618 CURVE SMOOTH",
"1504 220 LINE",
"1383 339 LINE SMOOTH",
"1357 365 OFFCURVE",
"1315 365 OFFCURVE",
"1288 339 CURVE SMOOTH",
"1217 269 LINE SMOOTH",
"1191 243 OFFCURVE",
"1191 202 OFFCURVE",
"1217 176 CURVE SMOOTH",
"1381 14 LINE",
"1385 10 LINE",
"1457 -60 LINE SMOOTH",
"1483 -86 OFFCURVE",
"1525 -86 OFFCURVE",
"1552 -60 CURVE SMOOTH",
"2074 454 LINE SMOOTH",
"2100 480 OFFCURVE",
"2100 522 OFFCURVE",
"2074 547 CURVE SMOOTH"
);
}
);
width = 2400;
}
);
unicode = 0069;
},
{
glyphname = j;
lastChange = "2012-12-07 16:27:09 +0100";
layers = (
{
layerId = "B666C820-39E7-4854-9B1A-8391CFDDE462";
name = Regular;
paths = (
{
closed = 1;
nodes = (
"1342.97 1153.52 OFFCURVE",
"1275.78 1100 OFFCURVE",
"1192.97 1100 CURVE SMOOTH",
"1109.77 1100 OFFCURVE",
"1042.48 1153.52 OFFCURVE",
"1042.48 1219.43 CURVE SMOOTH",
"1042.48 1285.25 OFFCURVE",
"1109.77 1338.77 OFFCURVE",
"1192.97 1338.77 CURVE SMOOTH",
"1275.78 1338.77 OFFCURVE",
"1342.97 1285.25 OFFCURVE",
"1342.97 1219.43 CURVE SMOOTH"
);
},
{
closed = 1;
nodes = (
"1235.35 908.496 OFFCURVE",
"1212.89 901.172 OFFCURVE",
"1188.96 901.172 CURVE SMOOTH",
"1165.04 901.172 OFFCURVE",
"1142.19 908.496 OFFCURVE",
"1125.29 921.973 CURVE SMOOTH",
"818.359 1166.11 LINE",
"675.684 1052.73 LINE",
"982.91 808.691 LINE SMOOTH",
"1037.89 765.039 OFFCURVE",
"1111.23 740.625 OFFCURVE",
"1188.96 740.625 CURVE SMOOTH",
"1266.8 740.625 OFFCURVE",
"1339.94 765.039 OFFCURVE",
"1395.02 808.691 CURVE SMOOTH",
"2004 1292.77 LINE",
"1861.62 1406.15 LINE",
"1252.34 921.973 LINE SMOOTH"
);
},
{
closed = 1;
nodes = (
"1196.09 314.062 OFFCURVE",
"1218.36 321.484 OFFCURVE",
"1242.48 321.484 CURVE SMOOTH",
"1266.41 321.484 OFFCURVE",
"1289.06 314.062 OFFCURVE",
"1305.96 300.586 CURVE SMOOTH",
"1613.18 56.4453 LINE",
"1755.57 169.824 LINE",
"1448.54 413.77 LINE SMOOTH",
"1393.55 457.812 OFFCURVE",
"1320.31 481.934 OFFCURVE",
"1242.29 481.934 CURVE SMOOTH",
"1164.65 481.934 OFFCURVE",
"1091.5 457.52 OFFCURVE",
"1036.23 413.77 CURVE SMOOTH",
"427.246 -70 LINE",
"569.824 -184 LINE",
"1179.1 300.586 LINE SMOOTH"
);
},
{
closed = 1;
nodes = (
"825.879 623.047 OFFCURVE",
"835.254 605.176 OFFCURVE",
"835.254 586.231 CURVE SMOOTH",
"835.254 566.992 OFFCURVE",
"825.879 549.121 OFFCURVE",
"808.984 535.547 CURVE SMOOTH",
"501.855 291.406 LINE",
"644.629 178.125 LINE",
"951.856 422.07 LINE SMOOTH",
"1006.64 466.211 OFFCURVE",
"1036.82 524.316 OFFCURVE",
"1036.82 586.231 CURVE SMOOTH",
"1036.82 648.047 OFFCURVE",
"1006.64 706.348 OFFCURVE",
"951.856 750 CURVE SMOOTH",
"342.578 1234.18 LINE",
"200 1120.7 LINE",
"808.984 636.523 LINE SMOOTH"
);
},
{
closed = 1;
nodes = (
"1611.23 591.699 OFFCURVE",
"1601.66 609.668 OFFCURVE",
"1601.66 628.711 CURVE SMOOTH",
"1601.66 647.754 OFFCURVE",
"1611.23 665.625 OFFCURVE",
"1627.93 679.199 CURVE SMOOTH",
"1935.06 923.34 LINE",
"1792.29 1036.72 LINE",
"1485.25 792.578 LINE SMOOTH",
"1430.08 748.926 OFFCURVE",
"1400 690.625 OFFCURVE",
"1400 628.711 CURVE SMOOTH",
"1400 566.797 OFFCURVE",
"1430.27 508.594 OFFCURVE",
"1485.25 465.137 CURVE SMOOTH",
"2094.34 -19 LINE",
"2237.11 93.9453 LINE",
"1627.93 578.125 LINE SMOOTH"
);
}
);
width = 2400;
}
);
unicode = 006A;
},
{
glyphname = k;
lastChange = "2013-02-26 10:20:01 +0100";
layers = (
{
anchors = (
{
name = bottom;
position = "{300, 0}";
}
);
layerId = "B666C820-39E7-4854-9B1A-8391CFDDE462";
name = Regular;
paths = (
{
closed = 1;
nodes = (
"1150 415.234 LINE",
"600 -296 LINE",
"600 1400 LINE",
"1700 1400 LINE",
"1700 -296 LINE"
);
}
);
width = 2400;
}
);
unicode = 006B;
},
{
glyphname = l;
lastChange = "2013-04-23 08:14:20 +0100";
layers = (
{
anchors = (
{
name = bottom;
position = "{300, 0}";
},
{
name = top;
position = "{300, 2400}";
},
{
name = topright;
position = "{580, 2400}";
}
);
layerId = "B666C820-39E7-4854-9B1A-8391CFDDE462";
name = Regular;
paths = (
{
closed = 1;
nodes = (
"621 26 OFFCURVE",
"599 4 OFFCURVE",
"572 4 CURVE SMOOTH",
"339 4 LINE SMOOTH",
"312 4 OFFCURVE",
"290 26 OFFCURVE",
"290 53 CURVE SMOOTH",
"290 877 LINE SMOOTH",
"290 905 OFFCURVE",
"312 927 OFFCURVE",
"339 927 CURVE SMOOTH",
"572 927 LINE SMOOTH",
"599 927 OFFCURVE",
"621 905 OFFCURVE",
"621 877 CURVE SMOOTH",
"621 53 LINE SMOOTH"
);
},
{
closed = 1;
nodes = (
"2167 1053 OFFCURVE",
"2076 1074 OFFCURVE",
"2033 1074 CURVE SMOOTH",
"1864 1074 LINE",
"1599 1074 LINE SMOOTH",
"1599 1074 OFFCURVE",
"1628 1242 OFFCURVE",
"1629 1293 CURVE SMOOTH",
"1630 1344 OFFCURVE",
"1626 1419 OFFCURVE",
"1614 1470 CURVE SMOOTH",
"1588 1583 OFFCURVE",
"1543 1666 OFFCURVE",
"1481 1714 CURVE SMOOTH",
"1420 1761 OFFCURVE",
"1370 1760 OFFCURVE",
"1327 1745 CURVE SMOOTH",
"1307 1739 OFFCURVE",
"1296 1722 OFFCURVE",
"1296 1705 CURVE SMOOTH",
"1298 1637 OFFCURVE",
"1281 1508 OFFCURVE",
"1273 1427 CURVE SMOOTH",
"1265 1329 OFFCURVE",
"1258 1282 OFFCURVE",
"1230 1242 CURVE SMOOTH",
"1203 1201 OFFCURVE",
"1062 999 OFFCURVE",
"1039 968 CURVE SMOOTH",
"1020 943 OFFCURVE",
"1009 932 OFFCURVE",
"978 928 CURVE SMOOTH",
"959 925 OFFCURVE",
"877 927 OFFCURVE",
"838 927 CURVE SMOOTH",
"799 927 OFFCURVE",
"778 899 OFFCURVE",
"778 871 CURVE SMOOTH",
"778 847 OFFCURVE",
"778 381 OFFCURVE",
"778 227 CURVE SMOOTH",
"778 172 OFFCURVE",
"796 148 OFFCURVE",
"849 148 CURVE SMOOTH",
"903 148 OFFCURVE",
"949 1 OFFCURVE",
"1213 1 CURVE SMOOTH",
"1322 1 LINE",
"1801 1 LINE",
"1801 2 LINE",
"1831 2 LINE SMOOTH",
"1905 2 OFFCURVE",
"1965 62 OFFCURVE",
"1965 136 CURVE SMOOTH",
"1965 210 OFFCURVE",
"1905 270 OFFCURVE",
"1831 270 CURVE",
"1920 270 LINE SMOOTH",
"1994 270 OFFCURVE",
"2054 330 OFFCURVE",
"2054 404 CURVE SMOOTH",
"2054 478 OFFCURVE",
"1994 538 OFFCURVE",
"1920 538 CURVE",
"1985 538 LINE SMOOTH",
"2059 538 OFFCURVE",
"2119 598 OFFCURVE",
"2119 672 CURVE SMOOTH",
"2119 746 OFFCURVE",
"2059 806 OFFCURVE",
"1985 806 CURVE",
"2033 806 LINE SMOOTH",
"2107 806 OFFCURVE",
"2167 866 OFFCURVE",
"2167 940 CURVE SMOOTH"
);
}
);
width = 2400;
}
);
unicode = 006C;
},
{
glyphname = m;
lastChange = "2012-08-24 12:42:22 +0100";
layers = (
{
layerId = "B666C820-39E7-4854-9B1A-8391CFDDE462";
name = Regular;
paths = (
{
closed = 1;
nodes = (
"150 1200 LINE",
"2250 1200 LINE",
"1200 300 LINE"
);
},
{
closed = 1;
nodes = (
"1581.84 450 LINE",
"2250 -100 LINE",
"2250 1100 LINE"
);
},
{
closed = 1;
nodes = (
"818.164 450 LINE",
"150 1100 LINE",
"150 -100 LINE"
);
},
{
closed = 1;
nodes = (
"913.623 400 LINE",
"150 -200 LINE",
"2250 -200 LINE",
"1486.33 400 LINE",
"1200 200 LINE"
);
}
);
width = 2400;
}
);
unicode = 006D;
},
{
glyphname = n;
lastChange = "2013-07-23 15:23:14 +0100";
layers = (
{
anchors = (
{
name = bottom;
position = "{300, 0}";
},
{
name = top;
position = "{300, 2400}";
}
);
layerId = "B666C820-39E7-4854-9B1A-8391CFDDE462";
name = Regular;
paths = (
{
closed = 1;
nodes = (
"789.807 -100 LINE",
"789.807 804.586 LINE",
"1120.41 804.586 LINE",
"1120.41 -100 LINE"
);
},
{
closed = 1;
nodes = (
"1279.59 1167.35 LINE",
"1279.59 -100 LINE",
"1610.19 -100 LINE",
"1610.19 1167.35 LINE"
);
},
{
closed = 1;
nodes = (
"1769.39 674.271 LINE",
"1769.39 -100 LINE",
"2100 -100 LINE",
"2100 674.271 LINE"
);
},
{
closed = 1;
nodes = (
"300 287.133 LINE",
"300 -100 LINE",
"630.608 -100 LINE",
"630.608 287.133 LINE"
);
}
);
width = 2400;
}
);
unicode = 006E;
},
{
glyphname = o;
lastChange = "2012-12-07 16:17:25 +0100";
layers = (
{
anchors = (
{
name = top;
position = "{300, 2400}";
}
);
layerId = "B666C820-39E7-4854-9B1A-8391CFDDE462";
name = Regular;
paths = (
{
closed = 1;
nodes = (
"1685.55 356.348 OFFCURVE",
"1056.54 -40 OFFCURVE",
"1056.54 -40 CURVE",
"1005.18 -43 OFFCURVE",
"959.766 -34 OFFCURVE",
"959.766 -34 CURVE",
"1468.46 158.594 OFFCURVE",
"1392.58 1141.8 OFFCURVE",
"1392.58 1141.8 CURVE",
"1353.81 1551.12 OFFCURVE",
"1129.3 1700 OFFCURVE",
"1129.3 1700 CURVE",
"1310.74 1395.51 OFFCURVE",
"1396.88 1126.71 OFFCURVE",
"1396.88 1126.71 CURVE"
);
},
{
closed = 1;
nodes = (
"1881.84 1188.09 OFFCURVE",
"1499.61 978.711 OFFCURVE",
"1499.61 978.711 CURVE",
"1626.07 854.785 OFFCURVE",
"1746.97 869.727 OFFCURVE",
"1826.76 917.188 CURVE SMOOTH",
"1932.52 980.273 OFFCURVE",
"1983.3 1118.07 OFFCURVE",
"1983.3 1118.07 CURVE",
"2085.74 1424.22 OFFCURVE",
"1919.24 1656.84 OFFCURVE",
"1919.24 1656.84 CURVE",
"1838.67 1486.13 OFFCURVE",
"1690.14 1454.44 OFFCURVE",
"1690.14 1454.44 CURVE",
"1541.31 1416.65 OFFCURVE",
"1489.26 1359.28 OFFCURVE",
"1489.26 1359.28 CURVE",
"1340.53 1209.77 OFFCURVE",
"1457.71 1028.52 OFFCURVE",
"1457.71 1028.52 CURVE",
"1778.81 1101.46 OFFCURVE",
"1896.09 1365.33 OFFCURVE",
"1896.09 1365.33 CURVE"
);
},
{
closed = 1;
nodes = (
"1881.84 1188.09 OFFCURVE",
"1499.61 978.711 OFFCURVE",
"1499.61 978.711 CURVE",
"1626.07 854.785 OFFCURVE",
"1746.97 869.727 OFFCURVE",
"1826.76 917.188 CURVE SMOOTH",
"1932.52 980.273 OFFCURVE",
"1983.3 1118.07 OFFCURVE",
"1983.3 1118.07 CURVE",
"2085.74 1424.22 OFFCURVE",
"1919.24 1656.84 OFFCURVE",
"1919.24 1656.84 CURVE",
"1838.67 1486.13 OFFCURVE",
"1690.14 1454.44 OFFCURVE",
"1690.14 1454.44 CURVE",
"1541.31 1416.65 OFFCURVE",
"1489.26 1359.28 OFFCURVE",
"1489.26 1359.28 CURVE",
"1340.53 1209.77 OFFCURVE",
"1457.71 1028.52 OFFCURVE",
"1457.71 1028.52 CURVE",
"1778.81 1101.46 OFFCURVE",
"1896.09 1365.33 OFFCURVE",
"1896.09 1365.33 CURVE"
);
},
{
closed = 1;
nodes = (
"1555.18 383.887 OFFCURVE",
"1532.71 296.191 OFFCURVE",
"1487.5 214.648 CURVE SMOOTH",
"1442.68 133.105 OFFCURVE",
"1381.93 70.2148 OFFCURVE",
"1305.27 25.8789 CURVE SMOOTH",
"1228.81 -18 OFFCURVE",
"1144.63 -41 OFFCURVE",
"1053.12 -41 CURVE SMOOTH",
"961.523 -41 OFFCURVE",
"877.539 -18 OFFCURVE",
"800.781 25.8789 CURVE SMOOTH",
"724.219 70.2148 OFFCURVE",
"663.477 133.105 OFFCURVE",
"618.555 214.648 CURVE SMOOTH",
"573.438 296.191 OFFCURVE",
"550.977 383.887 OFFCURVE",
"550.977 478.223 CURVE SMOOTH",
"550.977 624.512 OFFCURVE",
"600.293 749.023 OFFCURVE",
"699.023 852.051 CURVE SMOOTH",
"797.559 955.078 OFFCURVE",
"915.723 1006.64 OFFCURVE",
"1053.12 1006.64 CURVE SMOOTH",
"1118.36 1006.64 OFFCURVE",
"1179.39 994.629 OFFCURVE",
"1236.23 971.094 CURVE",
"1241.8 1030.66 OFFCURVE",
"1262.7 1086.43 OFFCURVE",
"1286.13 1131.74 CURVE",
"1214.55 1157.67 OFFCURVE",
"1137.11 1170.7 OFFCURVE",
"1053.61 1170.7 CURVE SMOOTH",
"854.981 1170.7 OFFCURVE",
"690.723 1097.66 OFFCURVE",
"560.742 951.562 CURVE SMOOTH",
"442.48 818.945 OFFCURVE",
"383.398 662.5 OFFCURVE",
"383.398 481.738 CURVE SMOOTH",
"383.398 299.707 OFFCURVE",
"445.898 140.43 OFFCURVE",
"570.801 4.29688 CURVE SMOOTH",
"695.703 -132 OFFCURVE",
"856.641 -200 OFFCURVE",
"1053.61 -200 CURVE SMOOTH",
"1249.9 -200 OFFCURVE",
"1410.45 -132 OFFCURVE",
"1535.35 4.29688 CURVE SMOOTH",
"1660.25 140.43 OFFCURVE",
"1722.75 299.707 OFFCURVE",
"1722.75 481.738 CURVE SMOOTH",
"1722.75 579.297 OFFCURVE",
"1705.47 669.727 OFFCURVE",
"1671.19 753.027 CURVE",
"1613.87 717.773 OFFCURVE",
"1559.47 699.316 OFFCURVE",
"1514.36 689.941 CURVE",
"1541.5 625.195 OFFCURVE",
"1555.18 554.785 OFFCURVE",
"1555.18 478.223 CURVE SMOOTH"
);
},
{
closed = 0;
nodes = (
"1347.36 283.203 LINE"
);
}
);
width = 2400;
}
);
unicode = 006F;
},
{
glyphname = ocircumflex;
lastChange = "2013-07-01 13:21:28 +0100";
layers = (
{
layerId = "B666C820-39E7-4854-9B1A-8391CFDDE462";
name = Regular;
paths = (
{
closed = 1;
nodes = (
"1555.18 383.887 OFFCURVE",
"1532.71 296.191 OFFCURVE",
"1487.5 214.648 CURVE SMOOTH",
"1442.68 133.105 OFFCURVE",
"1381.93 70.215 OFFCURVE",
"1305.27 25.879 CURVE SMOOTH",
"1228.81 -18 OFFCURVE",
"1144.63 -41 OFFCURVE",
"1053.12 -41 CURVE SMOOTH",
"962 -41 OFFCURVE",
"878 -18 OFFCURVE",
"800.781 25.879 CURVE SMOOTH",
"724.219 70.215 OFFCURVE",
"663.477 133.105 OFFCURVE",
"618.555 214.648 CURVE SMOOTH",
"573.438 296.191 OFFCURVE",
"550.977 383.887 OFFCURVE",
"550.977 478.223 CURVE SMOOTH",
"550.977 624.512 OFFCURVE",
"600.293 749.023 OFFCURVE",
"699.023 852.051 CURVE SMOOTH",
"797.559 955.078 OFFCURVE",
"915.723 1006.64 OFFCURVE",
"1053.12 1006.64 CURVE SMOOTH",
"1118.36 1006.64 OFFCURVE",
"1179.39 994.629 OFFCURVE",
"1236.23 971.094 CURVE",
"1241.8 1030.66 OFFCURVE",
"1262.7 1086.43 OFFCURVE",
"1286.13 1131.74 CURVE",
"1214.55 1157.67 OFFCURVE",
"1137.11 1170.7 OFFCURVE",
"1053.61 1170.7 CURVE SMOOTH",
"854.981 1170.7 OFFCURVE",
"690.723 1097.66 OFFCURVE",
"560.742 951.562 CURVE SMOOTH",
"442.48 818.945 OFFCURVE",
"383.398 662.5 OFFCURVE",
"383.398 481.738 CURVE SMOOTH",
"383.398 299.707 OFFCURVE",
"445.898 140.43 OFFCURVE",
"570.801 4.297 CURVE SMOOTH",
"695.703 -132 OFFCURVE",
"856.641 -200 OFFCURVE",
"1053.61 -200 CURVE SMOOTH",
"1249.9 -200 OFFCURVE",
"1410.45 -132 OFFCURVE",
"1535.35 4.297 CURVE SMOOTH",
"1660.25 140.43 OFFCURVE",
"1722.75 299.707 OFFCURVE",
"1722.75 481.738 CURVE SMOOTH",
"1722.75 579.297 OFFCURVE",
"1705.47 669.727 OFFCURVE",
"1671.19 753.027 CURVE",
"1613.87 717.773 OFFCURVE",
"1559.47 699.316 OFFCURVE",
"1514.36 689.941 CURVE",
"1541.5 625.195 OFFCURVE",
"1555.18 554.785 OFFCURVE",
"1555.18 478.223 CURVE SMOOTH"
);
}
);
width = 2400;
}
);
unicode = 00F4;
},
{
glyphname = otilde;
lastChange = "2013-07-01 13:24:16 +0100";
layers = (
{
layerId = "B666C820-39E7-4854-9B1A-8391CFDDE462";
name = Regular;
paths = (
{
closed = 1;
nodes = (
"1686 356 OFFCURVE",
"1057 -40 OFFCURVE",
"1056.54 -40 CURVE",
"1005.18 -43 OFFCURVE",
"959.766 -34 OFFCURVE",
"959.766 -34 CURVE",
"1468.46 158.594 OFFCURVE",
"1392.58 1141.8 OFFCURVE",
"1392.58 1141.8 CURVE",
"1353.81 1551.12 OFFCURVE",
"1129.3 1700 OFFCURVE",
"1129.3 1700 CURVE",
"1310.74 1395.51 OFFCURVE",
"1396.88 1126.71 OFFCURVE",
"1396.88 1126.71 CURVE"
);
},
{
closed = 1;
nodes = (
"1881.84 1188.09 OFFCURVE",
"1499.61 978.711 OFFCURVE",
"1499.61 978.711 CURVE",
"1626.07 854.785 OFFCURVE",
"1746.97 869.727 OFFCURVE",
"1826.76 917.188 CURVE SMOOTH",
"1932.52 980.273 OFFCURVE",
"1983.3 1118.07 OFFCURVE",
"1983.3 1118.07 CURVE",
"2085.74 1424.22 OFFCURVE",
"1919.24 1656.84 OFFCURVE",
"1919.24 1656.84 CURVE",
"1838.67 1486.13 OFFCURVE",
"1690.14 1454.44 OFFCURVE",
"1690.14 1454.44 CURVE",
"1541.31 1416.65 OFFCURVE",
"1489.26 1359.28 OFFCURVE",
"1489.26 1359.28 CURVE",
"1340.53 1209.77 OFFCURVE",
"1457.71 1028.52 OFFCURVE",
"1457.71 1028.52 CURVE",
"1778.81 1101.46 OFFCURVE",
"1896.09 1365.33 OFFCURVE",
"1896.09 1365.33 CURVE"
);
},
{
closed = 1;
nodes = (
"1881.84 1188.09 OFFCURVE",
"1499.61 978.711 OFFCURVE",
"1499.61 978.711 CURVE",
"1626.07 854.785 OFFCURVE",
"1746.97 869.727 OFFCURVE",
"1826.76 917.188 CURVE SMOOTH",
"1932.52 980.273 OFFCURVE",
"1983.3 1118.07 OFFCURVE",
"1983.3 1118.07 CURVE",
"2085.74 1424.22 OFFCURVE",
"1919.24 1656.84 OFFCURVE",
"1919.24 1656.84 CURVE",
"1838.67 1486.13 OFFCURVE",
"1690.14 1454.44 OFFCURVE",
"1690.14 1454.44 CURVE",
"1541.31 1416.65 OFFCURVE",
"1489.26 1359.28 OFFCURVE",
"1489.26 1359.28 CURVE",
"1340.53 1209.77 OFFCURVE",
"1457.71 1028.52 OFFCURVE",
"1457.71 1028.52 CURVE",
"1778.81 1101.46 OFFCURVE",
"1896.09 1365.33 OFFCURVE",
"1896.09 1365.33 CURVE"
);
},
{
closed = 0;
nodes = (
"1347.36 283.203 LINE"
);
}
);
width = 2400;
}
);
unicode = 00F5;
},
{
glyphname = p;
lastChange = "2012-08-23 15:20:47 +0100";
layers = (
{
layerId = "B666C820-39E7-4854-9B1A-8391CFDDE462";
name = Regular;
paths = (
{
closed = 1;
nodes = (
"1600 500 LINE",
"1600 800 LINE",
"1300 800 LINE",
"1300 500 LINE",
"1000 500 LINE",
"1000 200 LINE",
"1300 200 LINE",
"1300 -100 LINE",
"1600 -100 LINE",
"1600 200 LINE",
"1900 200 LINE",
"1900 500 LINE"
);
},
{
closed = 1;
nodes = (
"900 800 LINE",
"900 1000 LINE",
"700 1000 LINE",
"700 800 LINE",
"500 800 LINE",
"500 600 LINE",
"700 600 LINE",
"700 400 LINE",
"900 400 LINE",
"900 600 LINE",
"1100 600 LINE",
"1100 800 LINE"
);
}
);
width = 2400;
}
);
unicode = 0070;
},
{
glyphname = r;
lastChange = "2012-08-30 12:20:19 +0100";
layers = (
{
anchors = (
{
name = bottom;
position = "{300, 0}";
},
{
name = top;
position = "{300, 2400}";
}
);
layerId = "B666C820-39E7-4854-9B1A-8391CFDDE462";
name = Regular;
paths = (
{
closed = 1;
nodes = (
"1284.77 996.484 LINE",
"1516.7 978.516 OFFCURVE",
"1700 786.621 OFFCURVE",
"1700 550 CURVE SMOOTH",
"1700 301.465 OFFCURVE",
"1498.54 100 OFFCURVE",
"1250 100 CURVE SMOOTH",
"1001.46 100 OFFCURVE",
"800 301.465 OFFCURVE",
"800 550 CURVE SMOOTH",
"800 567.188 OFFCURVE",
"802.734 583.496 OFFCURVE",
"804.883 600 CURVE",
"1100 600 LINE",
"700 1100 LINE",
"300 600 LINE",
"603.125 600 LINE",
"601.758 583.398 OFFCURVE",
"600 566.992 OFFCURVE",
"600 550 CURVE SMOOTH",
"600 191.016 OFFCURVE",
"891.016 -100 OFFCURVE",
"1250 -100 CURVE SMOOTH",
"1608.98 -100 OFFCURVE",
"1900 191.016 OFFCURVE",
"1900 550 CURVE SMOOTH",
"1900 878.125 OFFCURVE",
"1656.74 1148.63 OFFCURVE",
"1340.82 1192.97 CURVE"
);
}
);
width = 2400;
}
);
unicode = 0072;
},
{
glyphname = s;
lastChange = "2012-08-31 12:01:28 +0100";
layers = (
{
anchors = (
{
name = bottom;
position = "{300, 0}";
},
{
name = top;
position = "{300, 2400}";
}
);
layerId = "B666C820-39E7-4854-9B1A-8391CFDDE462";
name = Regular;
paths = (
{
closed = 1;
nodes = (
"2244.73 1111.23 OFFCURVE",
"2033.2 970.215 OFFCURVE",
"1772.27 970.215 CURVE SMOOTH",
"1739.45 970.215 OFFCURVE",
"1614.84 844.238 OFFCURVE",
"1488.87 844.238 CURVE",
"1551.95 907.227 OFFCURVE",
"1588.48 993.359 OFFCURVE",
"1549.12 1007.52 CURVE SMOOTH",
"1522.56 1017.09 OFFCURVE",
"1498.14 1028.71 OFFCURVE",
"1474.9 1041.31 CURVE",
"1473.05 1069.92 OFFCURVE",
"1471 1084.28 OFFCURVE",
"1467.19 1096.78 CURVE SMOOTH",
"1458.59 1125.98 OFFCURVE",
"1438.96 1158.01 OFFCURVE",
"1412.21 1200.29 CURVE SMOOTH",
"1399.8 1220.12 LINE SMOOTH",
"1382.81 1248.29 OFFCURVE",
"1351.17 1276.27 OFFCURVE",
"1304.1 1312.5 CURVE",
"1325.29 1473.39 OFFCURVE",
"1525.59 1600 OFFCURVE",
"1772.27 1600 CURVE SMOOTH",
"2033.2 1600 OFFCURVE",
"2244.73 1459.08 OFFCURVE",
"2244.73 1285.16 CURVE SMOOTH"
);
},
{
closed = 1;
nodes = (
"1821.97 -100 LINE",
"1821.97 -100 OFFCURVE",
"1831.84 -25 OFFCURVE",
"1721.88 41.0156 CURVE",
"1694.34 50.1953 OFFCURVE",
"1364.26 263.477 OFFCURVE",
"1333.2 275.391 CURVE SMOOTH",
"1320.02 280.469 OFFCURVE",
"1299.41 372.07 OFFCURVE",
"1296.97 378.516 CURVE SMOOTH",
"1294.63 384.766 OFFCURVE",
"1287.79 395.898 OFFCURVE",
"1281.93 397.168 CURVE",
"1281.93 400 OFFCURVE",
"1280.18 466.992 OFFCURVE",
"1281.93 469.922 CURVE",
"1284.67 475.195 OFFCURVE",
"1288.57 482.812 OFFCURVE",
"1291.02 487.891 CURVE",
"1305.76 514.648 OFFCURVE",
"1309.08 607.91 OFFCURVE",
"1310.06 613.477 CURVE SMOOTH",
"1311.13 619.043 OFFCURVE",
"1309.86 628.906 OFFCURVE",
"1315.43 624.121 CURVE",
"1333.89 610.938 OFFCURVE",
"1366.6 662.305 OFFCURVE",
"1380.96 698.047 CURVE SMOOTH",
"1395.31 733.887 OFFCURVE",
"1397.66 786.426 OFFCURVE",
"1388.09 819.922 CURVE SMOOTH",
"1378.61 853.32 OFFCURVE",
"1378.61 1044.34 OFFCURVE",
"1371.39 1068.26 CURVE SMOOTH",
"1364.26 1092.19 OFFCURVE",
"1328.42 1144.68 OFFCURVE",
"1314.16 1168.51 CURVE SMOOTH",
"1299.8 1192.33 OFFCURVE",
"1237.7 1237.74 OFFCURVE",
"1189.94 1273.58 CURVE SMOOTH",
"1155.08 1299.76 OFFCURVE",
"1096.78 1300.44 OFFCURVE",
"1039.45 1299.85 CURVE SMOOTH",
"982.129 1300.44 OFFCURVE",
"938.184 1299.76 OFFCURVE",
"903.32 1273.58 CURVE SMOOTH",
"855.566 1237.74 OFFCURVE",
"793.457 1192.33 OFFCURVE",
"779.102 1168.51 CURVE SMOOTH",
"764.844 1144.68 OFFCURVE",
"729.004 1092.19 OFFCURVE",
"721.777 1068.26 CURVE SMOOTH",
"714.648 1044.34 OFFCURVE",
"714.648 853.32 OFFCURVE",
"705.078 819.922 CURVE SMOOTH",
"695.508 786.426 OFFCURVE",
"697.949 733.887 OFFCURVE",
"712.305 698.047 CURVE SMOOTH",
"726.562 662.305 OFFCURVE",
"759.375 610.938 OFFCURVE",
"777.832 624.121 CURVE",
"783.398 628.906 OFFCURVE",
"782.129 619.043 OFFCURVE",
"783.203 613.477 CURVE SMOOTH",
"784.18 607.91 OFFCURVE",
"787.5 514.648 OFFCURVE",
"802.246 487.891 CURVE",
"804.59 482.812 OFFCURVE",
"808.594 475.195 OFFCURVE",
"811.328 469.922 CURVE",
"812.988 466.992 OFFCURVE",
"811.328 400 OFFCURVE",
"811.328 397.168 CURVE",
"805.469 395.898 OFFCURVE",
"798.633 384.766 OFFCURVE",
"796.289 378.516 CURVE SMOOTH",
"793.848 372.07 OFFCURVE",
"773.242 280.469 OFFCURVE",
"760.059 275.391 CURVE SMOOTH",
"729.004 263.477 OFFCURVE",
"415.137 75.8789 OFFCURVE",
"350.781 43.5547 CURVE SMOOTH",
"247.949 -8 OFFCURVE",
"255.371 -100 OFFCURVE",
"255.371 -100 CURVE"
);
}
);
width = 2400;
}
);
unicode = 0073;
},
{
glyphname = t;
lastChange = "2012-08-23 15:18:53 +0100";
layers = (
{
anchors = (
{
name = bottom;
position = "{300, 0}";
},
{
name = center;
position = "{300, 1200}";
}
);
layerId = "B666C820-39E7-4854-9B1A-8391CFDDE462";
name = Regular;
paths = (
{
closed = 1;
nodes = (
"2130.08 1230.27 OFFCURVE",
"2054.98 1209.23 OFFCURVE",
"1976.07 1199.8 CURVE",
"2056.64 1248.1 OFFCURVE",
"2118.46 1324.56 OFFCURVE",
"2147.56 1415.58 CURVE",
"2072.17 1370.85 OFFCURVE",
"1988.77 1338.48 OFFCURVE",
"1900 1320.95 CURVE",
"1828.91 1396.73 OFFCURVE",
"1727.44 1444.04 OFFCURVE",
"1615.43 1444.04 CURVE SMOOTH",
"1400.2 1444.04 OFFCURVE",
"1225.68 1269.63 OFFCURVE",
"1225.68 1054.3 CURVE SMOOTH",
"1225.68 1023.83 OFFCURVE",
"1229.1 993.945 OFFCURVE",
"1235.74 965.43 CURVE",
"911.719 981.738 OFFCURVE",
"624.512 1137.01 OFFCURVE",
"432.324 1372.71 CURVE",
"398.73 1315.19 OFFCURVE",
"379.492 1248.1 OFFCURVE",
"379.492 1176.76 CURVE SMOOTH",
"379.492 1041.5 OFFCURVE",
"448.34 922.266 OFFCURVE",
"552.93 852.246 CURVE",
"489.062 854.297 OFFCURVE",
"428.809 871.875 OFFCURVE",
"376.367 901.074 CURVE",
"376.27 899.512 OFFCURVE",
"376.27 897.852 OFFCURVE",
"376.27 896.191 CURVE SMOOTH",
"376.27 707.324 OFFCURVE",
"510.742 549.707 OFFCURVE",
"689.062 513.965 CURVE",
"656.25 505.078 OFFCURVE",
"621.777 500.195 OFFCURVE",
"586.328 500.195 CURVE SMOOTH",
"561.231 500.195 OFFCURVE",
"536.816 502.734 OFFCURVE",
"512.988 507.227 CURVE",
"562.5 352.441 OFFCURVE",
"706.543 239.746 OFFCURVE",
"877.051 236.523 CURVE",
"743.652 132.031 OFFCURVE",
"575.684 69.6289 OFFCURVE",
"392.969 69.6289 CURVE SMOOTH",
"361.523 69.6289 OFFCURVE",
"330.469 71.4844 OFFCURVE",
"300 75.0977 CURVE",
"472.559 -35 OFFCURVE",
"677.344 -100 OFFCURVE",
"897.461 -100 CURVE SMOOTH",
"1614.45 -100 OFFCURVE",
"2006.64 493.945 OFFCURVE",
"2006.64 1009.08 CURVE SMOOTH",
"2006.64 1025.98 OFFCURVE",
"2006.35 1042.87 OFFCURVE",
"2005.47 1059.47 CURVE",
"2081.64 1114.45 OFFCURVE",
"2147.75 1183.11 OFFCURVE",
"2200 1261.18 CURVE"
);
}
);
width = 2400;
}
);
unicode = 0074;
},
{
glyphname = u;
lastChange = "2013-07-17 14:20:33 +0100";
layers = (
{
anchors = (
{
name = ogonek;
position = "{540, 10}";
},
{
name = top;
position = "{300, 2400}";
}
);
layerId = "B666C820-39E7-4854-9B1A-8391CFDDE462";
name = Regular;
paths = (
{
closed = 1;
nodes = (
"500 300 LINE",
"500 0 LINE",
"1900 0 LINE",
"1900 300 LINE",
"2100 300 LINE",
"2100 -200 LINE",
"300 -200 LINE",
"300 300 LINE"
);
},
{
closed = 1;
nodes = (
"1200 1100 LINE",
"1650 600 LINE",
"1350 600 LINE",
"1350 300 LINE",
"1050 300 LINE",
"1050 600 LINE",
"750 600 LINE"
);
}
);
width = 2400;
}
);
unicode = 0075;
},
{
glyphname = v;
lastChange = "2013-04-23 08:49:07 +0100";
layers = (
{
layerId = "B666C820-39E7-4854-9B1A-8391CFDDE462";
name = Regular;
paths = (
{
closed = 1;
nodes = (
"1794 1056 LINE SMOOTH",
"1751 1099 OFFCURVE",
"1680 1099 OFFCURVE",
"1636 1056 CURVE SMOOTH",
"965 395 LINE",
"764 593 LINE SMOOTH",
"720 636 OFFCURVE",
"650 636 OFFCURVE",
"606 593 CURVE SMOOTH",
"487 476 LINE SMOOTH",
"444 433 OFFCURVE",
"444 364 OFFCURVE",
"487 321 CURVE SMOOTH",
"760 52 LINE",
"767 44 LINE",
"886 -72 LINE SMOOTH",
"929 -115 OFFCURVE",
"1000 -115 OFFCURVE",
"1044 -72 CURVE SMOOTH",
"1913 784 LINE SMOOTH",
"1956 827 OFFCURVE",
"1956 896 OFFCURVE",
"1913 939 CURVE SMOOTH"
);
}
);
width = 2400;
}
);
unicode = 0076;
},
{
glyphname = w;
lastChange = "2012-10-12 15:53:33 +0100";
layers = (
{
anchors = (
{
name = top;
position = "{300, 2400}";
}
);
layerId = "B666C820-39E7-4854-9B1A-8391CFDDE462";
name = Regular;
paths = (
{
closed = 1;
nodes = (
"500 300 LINE",
"500 0 LINE",
"1900 0 LINE",
"1900 300 LINE",
"2100 300 LINE",
"2100 -200 LINE",
"300 -200 LINE",
"300 300 LINE"
);
},
{
closed = 1;
nodes = (
"1200 300 LINE",
"1650 800 LINE",
"1350 800 LINE",
"1350 1100 LINE",
"1050 1100 LINE",
"1050 800 LINE",
"750 800 LINE"
);
}
);
width = 2400;
}
);
unicode = 0077;
},
{
glyphname = x;
lastChange = "2013-05-29 13:13:06 +0100";
layers = (
{
layerId = "B666C820-39E7-4854-9B1A-8391CFDDE462";
name = Regular;
paths = (
{
closed = 1;
nodes = (
"717.481 1500 OFFCURVE",
"325 1107.47 OFFCURVE",
"325 625 CURVE SMOOTH",
"325 142.529 OFFCURVE",
"717.481 -250 OFFCURVE",
"1200 -250 CURVE SMOOTH",
"1682.52 -250 OFFCURVE",
"2075 142.529 OFFCURVE",
"2075 625 CURVE SMOOTH",
"2075 1107.47 OFFCURVE",
"1682.52 1500 OFFCURVE",
"1200 1500 CURVE SMOOTH"
);
},
{
closed = 1;
nodes = (
"1354 855.713 OFFCURVE",
"1430.66 864.258 OFFCURVE",
"1503.12 878.223 CURVE",
"1512.99 822.363 OFFCURVE",
"1520.12 763.037 OFFCURVE",
"1523.14 700 CURVE",
"1275 700 LINE",
"1275 852.246 LINE"
);
},
{
closed = 1;
nodes = (
"1275 1326.66 LINE",
"1349.41 1282.42 OFFCURVE",
"1420.7 1175.63 OFFCURVE",
"1467.97 1024.51 CURVE",
"1406.54 1012.94 OFFCURVE",
"1341.7 1005.52 OFFCURVE",
"1275 1002.2 CURVE"
);
},
{
closed = 1;
nodes = (
"1125 1002.2 LINE",
"1058.3 1005.52 OFFCURVE",
"993.457 1012.94 OFFCURVE",
"932.031 1024.51 CURVE",
"979.297 1175.63 OFFCURVE",
"1050.59 1282.42 OFFCURVE",
"1125 1326.66 CURVE"
);
},
{
closed = 1;
nodes = (
"1125 700 LINE",
"876.856 700 LINE",
"879.883 763.037 OFFCURVE",
"887.012 822.363 OFFCURVE",
"896.875 878.223 CURVE",
"969.336 864.258 OFFCURVE",
"1046 855.713 OFFCURVE",
"1125 852.246 CURVE"
);
},
{
closed = 1;
nodes = (
"478.906 700 LINE",
"489.746 804.639 OFFCURVE",
"523.438 902.344 OFFCURVE",
"574.023 989.014 CURVE",
"626.953 960.01 OFFCURVE",
"686.914 935.644 OFFCURVE",
"751.367 915.332 CURVE",
"738.672 847.168 OFFCURVE",
"730.273 775.195 OFFCURVE",
"726.953 700 CURVE"
);
},
{
closed = 1;
nodes = (
"730.273 474.805 OFFCURVE",
"738.672 402.832 OFFCURVE",
"751.367 334.668 CURVE",
"686.914 314.355 OFFCURVE",
"626.953 289.99 OFFCURVE",
"574.023 260.986 CURVE",
"523.438 347.656 OFFCURVE",
"489.746 445.361 OFFCURVE",
"478.906 550 CURVE",
"726.953 550 LINE"
);
},
{
closed = 1;
nodes = (
"1125 550 LINE",
"1125 397.754 LINE",
"1046 394.287 OFFCURVE",
"969.336 385.742 OFFCURVE",
"896.875 371.777 CURVE",
"887.012 427.637 OFFCURVE",
"879.883 486.963 OFFCURVE",
"876.856 550 CURVE"
);
},
{
closed = 1;
nodes = (
"1125 -77 LINE",
"1050.59 -32 OFFCURVE",
"979.297 74.3652 OFFCURVE",
"932.031 225.488 CURVE",
"993.457 237.061 OFFCURVE",
"1058.3 244.482 OFFCURVE",
"1125 247.803 CURVE"
);
},
{
closed = 1;
nodes = (
"1275 247.803 LINE",
"1341.7 244.482 OFFCURVE",
"1406.54 237.061 OFFCURVE",
"1467.97 225.488 CURVE",
"1420.7 74.3652 OFFCURVE",
"1349.41 -32 OFFCURVE",
"1275 -77 CURVE"
);
},
{
closed = 1;
nodes = (
"1275 550 LINE",
"1523.14 550 LINE",
"1520.12 486.963 OFFCURVE",
"1512.99 427.637 OFFCURVE",
"1503.12 371.777 CURVE",
"1430.66 385.742 OFFCURVE",
"1354 394.287 OFFCURVE",
"1275 397.754 CURVE"
);
},
{
closed = 1;
nodes = (
"1921.09 550 LINE",
"1910.25 445.361 OFFCURVE",
"1876.56 347.656 OFFCURVE",
"1825.98 260.986 CURVE",
"1773.05 289.99 OFFCURVE",
"1713.09 314.355 OFFCURVE",
"1648.63 334.668 CURVE",
"1661.33 402.832 OFFCURVE",
"1669.73 474.805 OFFCURVE",
"1673.05 550 CURVE"
);
},
{
closed = 1;
nodes = (
"1669.73 775.195 OFFCURVE",
"1661.33 847.168 OFFCURVE",
"1648.63 915.332 CURVE",
"1712.99 935.693 OFFCURVE",
"1772.95 960.059 OFFCURVE",
"1825.98 989.111 CURVE",
"1876.56 902.393 OFFCURVE",
"1910.25 804.639 OFFCURVE",
"1921.09 700 CURVE",
"1673.05 700 LINE"
);
},
{
closed = 1;
nodes = (
"1698.44 1092.77 OFFCURVE",
"1657.71 1075.68 OFFCURVE",
"1613.28 1061.23 CURVE",
"1588.67 1141.36 OFFCURVE",
"1557.42 1212.94 OFFCURVE",
"1520.8 1274.22 CURVE",
"1602.34 1233.69 OFFCURVE",
"1675.1 1178.47 OFFCURVE",
"1735.74 1111.72 CURVE"
);
},
{
closed = 1;
nodes = (
"842.578 1212.94 OFFCURVE",
"811.231 1141.36 OFFCURVE",
"786.719 1061.23 CURVE",
"742.285 1075.68 OFFCURVE",
"701.562 1092.72 OFFCURVE",
"664.258 1111.72 CURVE",
"724.902 1178.47 OFFCURVE",
"797.656 1233.69 OFFCURVE",
"879.199 1274.22 CURVE"
);
},
{
closed = 1;
nodes = (
"701.465 157.275 OFFCURVE",
"742.285 174.316 OFFCURVE",
"786.719 188.77 CURVE",
"811.231 108.643 OFFCURVE",
"842.578 37.0605 OFFCURVE",
"879.199 -24 CURVE",
"797.656 16.3086 OFFCURVE",
"724.902 71.5332 OFFCURVE",
"664.258 138.281 CURVE"
);
},
{
closed = 1;
nodes = (
"1557.42 37.0605 OFFCURVE",
"1588.77 108.643 OFFCURVE",
"1613.28 188.77 CURVE",
"1657.71 174.316 OFFCURVE",
"1698.54 157.275 OFFCURVE",
"1735.74 138.281 CURVE",
"1675.1 71.5332 OFFCURVE",
"1602.34 16.3086 OFFCURVE",
"1520.8 -24 CURVE"
);
}
);
width = 2400;
}
);
unicode = 0078;
},
{
glyphname = y;
lastChange = "2013-06-25 09:19:33 +0100";
layers = (
{
anchors = (
{
name = top;
position = "{1200, 2400}";
}
);
layerId = "B666C820-39E7-4854-9B1A-8391CFDDE462";
name = Regular;
paths = (
{
closed = 1;
nodes = (
"1569.13 1589.63 LINE SMOOTH",
"1530.67 1610.97 OFFCURVE",
"1481.48 1598.31 OFFCURVE",
"1459.27 1561.35 CURVE SMOOTH",
"1317.76 1325.85 LINE",
"1672.96 1128.8 LINE",
"1814.47 1364.3 LINE SMOOTH",
"1836.68 1401.27 OFFCURVE",
"1823.49 1448.53 OFFCURVE",
"1785.04 1469.86 CURVE SMOOTH"
);
},
{
closed = 1;
nodes = (
"980.455 -24 LINE",
"625.257 173.339 LINE",
"637.721 -200 LINE"
);
},
{
closed = 1;
nodes = (
"1083.78 148.255 LINE",
"1577.68 970.228 LINE",
"1222.48 1167.27 LINE",
"728.578 345.302 LINE"
);
}
);
width = 2400;
}
);
unicode = 0079;
},
{
glyphname = z;
lastChange = "2013-04-23 08:36:55 +0100";
layers = (
{
anchors = (
{
name = top;
position = "{300, 2400}";
}
);
layerId = "B666C820-39E7-4854-9B1A-8391CFDDE462";
name = Regular;
paths = (
{
closed = 1;
nodes = (
"1213.67 1725.54 OFFCURVE",
"1499.71 1439.55 OFFCURVE",
"1499.71 1088.18 CURVE SMOOTH",
"1499.71 736.719 OFFCURVE",
"1213.67 450.781 OFFCURVE",
"862.402 450.781 CURVE SMOOTH",
"510.84 450.781 OFFCURVE",
"225 736.719 OFFCURVE",
"225 1088.18 CURVE SMOOTH",
"225 1439.55 OFFCURVE",
"510.84 1725.54 OFFCURVE",
"862.402 1725.54 CURVE SMOOTH"
);
},
{
closed = 1;
nodes = (
"1094.73 666.504 OFFCURVE",
"1283.98 855.664 OFFCURVE",
"1283.98 1088.18 CURVE SMOOTH",
"1283.98 1320.61 OFFCURVE",
"1094.73 1509.72 OFFCURVE",
"862.402 1509.77 CURVE SMOOTH",
"629.981 1509.77 OFFCURVE",
"440.723 1320.61 OFFCURVE",
"440.723 1088.18 CURVE SMOOTH",
"440.723 855.664 OFFCURVE",
"629.981 666.504 OFFCURVE",
"862.402 666.504 CURVE SMOOTH"
);
},
{
closed = 1;
nodes = (
"2067.09 82.6172 LINE SMOOTH",
"2115.92 34.082 OFFCURVE",
"2115.92 -45 OFFCURVE",
"2067.09 -93 CURVE SMOOTH",
"2042.77 -118 OFFCURVE",
"2011.04 -130 OFFCURVE",
"1979.2 -130 CURVE SMOOTH",
"1947.17 -130 OFFCURVE",
"1915.53 -118 OFFCURVE",
"1891.11 -93 CURVE SMOOTH",
"1372.27 425.488 LINE",
"1438.28 476.367 OFFCURVE",
"1496.58 536.914 OFFCURVE",
"1544.92 604.883 CURVE"
);
}
);
width = 2400;
}
);
unicode = 007A;
},
{
glyphname = guillemotleft;
lastChange = "2012-11-15 15:51:18 +0100";
layers = (
{
layerId = "B666C820-39E7-4854-9B1A-8391CFDDE462";
name = Regular;
paths = (
{
closed = 1;
nodes = (
"1596.19 -113 OFFCURVE",
"1567.38 -102 OFFCURVE",
"1545.41 -80 CURVE SMOOTH",
"1095.41 370.41 LINE SMOOTH",
"1051.56 414.355 OFFCURVE",
"1051.56 485.645 OFFCURVE",
"1095.41 529.59 CURVE SMOOTH",
"1545.41 979.59 LINE SMOOTH",
"1589.36 1023.54 OFFCURVE",
"1660.64 1023.54 OFFCURVE",
"1704.59 979.59 CURVE SMOOTH",
"1748.44 935.644 OFFCURVE",
"1748.44 864.356 OFFCURVE",
"1704.59 820.41 CURVE SMOOTH",
"1334.08 450 LINE",
"1704.59 79.5898 LINE SMOOTH",
"1748.44 35.6445 OFFCURVE",
"1748.44 -36 OFFCURVE",
"1704.59 -80 CURVE SMOOTH",
"1682.62 -102 OFFCURVE",
"1653.81 -113 OFFCURVE",
"1625 -113 CURVE SMOOTH"
);
},
{
closed = 1;
nodes = (
"1248.44 -36 OFFCURVE",
"1248.44 35.6445 OFFCURVE",
"1204.59 79.5898 CURVE SMOOTH",
"834.082 450 LINE",
"1204.59 820.41 LINE SMOOTH",
"1248.44 864.356 OFFCURVE",
"1248.44 935.644 OFFCURVE",
"1204.59 979.59 CURVE SMOOTH",
"1160.64 1023.54 OFFCURVE",
"1089.36 1023.54 OFFCURVE",
"1045.41 979.59 CURVE SMOOTH",
"595.41 529.59 LINE SMOOTH",
"551.562 485.645 OFFCURVE",
"551.562 414.355 OFFCURVE",
"595.41 370.41 CURVE SMOOTH",
"1045.41 -80 LINE SMOOTH",
"1067.38 -102 OFFCURVE",
"1096.19 -113 OFFCURVE",
"1125 -113 CURVE SMOOTH",
"1153.81 -113 OFFCURVE",
"1182.62 -102 OFFCURVE",
"1204.59 -80 CURVE SMOOTH"
);
}
);
width = 2400;
}
);
unicode = 00AB;
},
{
glyphname = guillemotright;
lastChange = "2012-11-15 15:52:00 +0100";
layers = (
{
layerId = "B666C820-39E7-4854-9B1A-8391CFDDE462";
name = Regular;
paths = (
{
closed = 1;
nodes = (
"746.191 -113 OFFCURVE",
"717.383 -102 OFFCURVE",
"695.41 -80 CURVE SMOOTH",
"651.562 -36 OFFCURVE",
"651.562 35.6445 OFFCURVE",
"695.41 79.5898 CURVE SMOOTH",
"1065.92 450 LINE",
"695.41 820.41 LINE SMOOTH",
"651.562 864.356 OFFCURVE",
"651.562 935.644 OFFCURVE",
"695.41 979.59 CURVE SMOOTH",
"739.356 1023.54 OFFCURVE",
"810.644 1023.54 OFFCURVE",
"854.59 979.59 CURVE SMOOTH",
"1304.59 529.59 LINE SMOOTH",
"1348.44 485.645 OFFCURVE",
"1348.44 414.355 OFFCURVE",
"1304.59 370.41 CURVE SMOOTH",
"854.59 -80 LINE SMOOTH",
"832.617 -102 OFFCURVE",
"803.809 -113 OFFCURVE",
"775 -113 CURVE SMOOTH"
);
},
{
closed = 1;
nodes = (
"1804.59 370.41 LINE SMOOTH",
"1848.44 414.355 OFFCURVE",
"1848.44 485.645 OFFCURVE",
"1804.59 529.59 CURVE SMOOTH",
"1354.59 979.59 LINE SMOOTH",
"1310.64 1023.54 OFFCURVE",
"1239.36 1023.54 OFFCURVE",
"1195.41 979.59 CURVE SMOOTH",
"1151.56 935.644 OFFCURVE",
"1151.56 864.356 OFFCURVE",
"1195.41 820.41 CURVE SMOOTH",
"1565.92 450 LINE",
"1195.41 79.5898 LINE SMOOTH",
"1151.56 35.6445 OFFCURVE",
"1151.56 -36 OFFCURVE",
"1195.41 -80 CURVE SMOOTH",
"1217.38 -102 OFFCURVE",
"1246.19 -113 OFFCURVE",
"1275 -113 CURVE SMOOTH",
"1303.81 -113 OFFCURVE",
"1332.62 -102 OFFCURVE",
"1354.59 -80 CURVE SMOOTH"
);
}
);
width = 2400;
}
);
unicode = 00BB;
},
{
glyphname = guilsinglleft;
lastChange = "2012-11-02 16:48:17 +0100";
layers = (
{
layerId = "B666C820-39E7-4854-9B1A-8391CFDDE462";
name = Regular;
paths = (
{
closed = 1;
nodes = (
"1396.21 -113 OFFCURVE",
"1367.42 -102 OFFCURVE",
"1345.45 -80 CURVE SMOOTH",
"895.45 370.45 LINE SMOOTH",
"851.517 414.385 OFFCURVE",
"851.517 485.615 OFFCURVE",
"895.45 529.55 CURVE SMOOTH",
"1345.45 979.55 LINE SMOOTH",
"1389.39 1023.48 OFFCURVE",
"1460.61 1023.48 OFFCURVE",
"1504.55 979.55 CURVE SMOOTH",
"1548.48 935.615 OFFCURVE",
"1548.48 864.385 OFFCURVE",
"1504.55 820.45 CURVE SMOOTH",
"1134.1 450 LINE",
"1504.55 79.5498 LINE SMOOTH",
"1548.48 35.6152 OFFCURVE",
"1548.48 -36 OFFCURVE",
"1504.55 -80 CURVE SMOOTH",
"1482.58 -102 OFFCURVE",
"1453.79 -113 OFFCURVE",
"1425 -113 CURVE SMOOTH"
);
}
);
width = 2400;
}
);
unicode = 2039;
},
{
glyphname = guilsinglright;
lastChange = "2013-07-23 15:28:10 +0100";
layers = (
{
layerId = "B666C820-39E7-4854-9B1A-8391CFDDE462";
name = Regular;
paths = (
{
closed = 1;
nodes = (
"946 -113 OFFCURVE",
"917 -102 OFFCURVE",
"895 -80 CURVE SMOOTH",
"852 -36 OFFCURVE",
"852 36 OFFCURVE",
"895 80 CURVE SMOOTH",
"1266 450 LINE",
"895 820 LINE SMOOTH",
"852 864 OFFCURVE",
"852 936 OFFCURVE",
"895 980 CURVE SMOOTH",
"939 1023 OFFCURVE",
"1011 1023 OFFCURVE",
"1055 980 CURVE SMOOTH",
"1505 530 LINE SMOOTH",
"1548 486 OFFCURVE",
"1548 414 OFFCURVE",
"1505 370 CURVE SMOOTH",
"1055 -80 LINE SMOOTH",
"1033 -102 OFFCURVE",
"1004 -113 OFFCURVE",
"975 -113 CURVE SMOOTH"
);
}
);
width = 2400;
}
);
unicode = 203A;
},
{
glyphname = asterisk;
lastChange = "2012-08-24 13:32:38 +0100";
layers = (
{
layerId = "B666C820-39E7-4854-9B1A-8391CFDDE462";
name = Regular;
paths = (
{
closed = 1;
nodes = (
"1389.55 827.93 LINE",
"2000 827.051 LINE",
"1506.64 472.656 LINE",
"1694.43 -100 LINE",
"1200 252.93 LINE",
"705.566 -100 LINE",
"893.359 472.656 LINE",
"400 827.051 LINE",
"1010.45 827.93 LINE",
"1200 1400 LINE"
);
}
);
width = 2400;
}
);
unicode = 002A;
},
{
glyphname = bullet;
lastChange = "2013-07-29 13:19:08 +0100";
layers = (
{
layerId = "B666C820-39E7-4854-9B1A-8391CFDDE462";
name = Regular;
paths = (
{
closed = 1;
nodes = (
"1047.18 27.5705 OFFCURVE",
"1018.36 47.0414 OFFCURVE",
"1007.91 77.9205 CURVE SMOOTH",
"994.76 116.656 OFFCURVE",
"1015.53 158.719 OFFCURVE",
"1054.29 171.844 CURVE SMOOTH",
"1320.66 255.267 LINE SMOOTH",
"1359.35 268.412 OFFCURVE",
"1401.45 247.617 OFFCURVE",
"1414.58 208.885 CURVE SMOOTH",
"1427.72 170.128 OFFCURVE",
"1406.95 128.065 OFFCURVE",
"1368.2 114.939 CURVE SMOOTH",
"1101.83 31.5183 LINE SMOOTH",
"1093.95 28.8525 OFFCURVE",
"1085.93 27.5705 OFFCURVE",
"1078.06 27.5705 CURVE SMOOTH"
);
},
{
closed = 1;
nodes = (
"1195.17 1719.1 LINE",
"878.368 1717.15 OFFCURVE",
"622.189 1457.82 OFFCURVE",
"624.111 1141 CURVE SMOOTH",
"625.497 915.404 OFFCURVE",
"716.216 791.52 OFFCURVE",
"789.117 691.974 CURVE SMOOTH",
"814.83 656.856 OFFCURVE",
"839.137 623.683 OFFCURVE",
"857.14 589.494 CURVE SMOOTH",
"868.22 568.412 OFFCURVE",
"876.219 548.404 OFFCURVE",
"881.572 528.312 CURVE SMOOTH",
"892.135 488.792 OFFCURVE",
"932.772 465.331 OFFCURVE",
"972.25 475.853 CURVE SMOOTH",
"1011.79 486.394 OFFCURVE",
"1035.27 527.01 OFFCURVE",
"1024.73 566.55 CURVE SMOOTH",
"1016.48 597.43 OFFCURVE",
"1004.54 627.527 OFFCURVE",
"988.249 658.49 CURVE SMOOTH",
"965.141 702.392 OFFCURVE",
"936.431 741.581 OFFCURVE",
"908.65 779.509 CURVE SMOOTH",
"839.077 874.518 OFFCURVE",
"773.347 964.253 OFFCURVE",
"772.271 1141.9 CURVE SMOOTH",
"770.845 1377.02 OFFCURVE",
"960.965 1569.49 OFFCURVE",
"1196.2 1570.94 CURVE SMOOTH",
"1198.7 1570.96 LINE SMOOTH",
"1199.6 1570.97 OFFCURVE",
"1200.48 1570.97 OFFCURVE",
"1201.37 1570.97 CURVE SMOOTH",
"1314.08 1570.97 OFFCURVE",
"1420.35 1527.26 OFFCURVE",
"1500.85 1447.73 CURVE SMOOTH",
"1581.98 1367.59 OFFCURVE",
"1627.04 1260.84 OFFCURVE",
"1627.72 1147.15 CURVE SMOOTH",
"1628.8 969.462 OFFCURVE",
"1564.19 878.92 OFFCURVE",
"1495.77 783.054 CURVE SMOOTH",
"1446.08 713.429 OFFCURVE",
"1395.21 641.438 OFFCURVE",
"1376.46 541.809 CURVE SMOOTH",
"1373.84 527.857 OFFCURVE",
"1368.55 515.29 OFFCURVE",
"1354.06 509.771 CURVE",
"978.203 388.255 LINE SMOOTH",
"939.447 375.149 OFFCURVE",
"918.675 333.066 OFFCURVE",
"931.821 294.331 CURVE SMOOTH",
"942.28 263.451 OFFCURVE",
"971.093 244.001 OFFCURVE",
"1001.97 244.001 CURVE SMOOTH",
"1009.85 244.001 OFFCURVE",
"1017.87 245.262 OFFCURVE",
"1025.74 247.949 CURVE SMOOTH",
"1429.58 378.995 LINE SMOOTH",
"1506.66 405.245 OFFCURVE",
"1517.06 479.779 OFFCURVE",
"1520.49 504.293 CURVE SMOOTH",
"1521.01 507.891 LINE SMOOTH",
"1531.96 578.703 OFFCURVE",
"1571.07 633.52 OFFCURVE",
"1616.38 696.976 CURVE SMOOTH",
"1688.06 797.42 OFFCURVE",
"1777.25 922.42 OFFCURVE",
"1775.88 1148.04 CURVE SMOOTH",
"1774.95 1301.31 OFFCURVE",
"1714.25 1445.18 OFFCURVE",
"1604.97 1553.14 CURVE SMOOTH",
"1495.69 1661.11 OFFCURVE",
"1351 1719 OFFCURVE",
"1198 1719 CURVE"
);
},
{
closed = 1;
nodes = (
"1295.11 -144 LINE",
"1333.84 -131 OFFCURVE",
"1354.64 -89 OFFCURVE",
"1341.51 -50 CURVE SMOOTH",
"1328.39 -12 OFFCURVE",
"1286.32 9.23501 OFFCURVE",
"1247.57 -4 CURVE",
"1130.72 -37 LINE",
"1091.99 -50 OFFCURVE",
"1071.2 -92 OFFCURVE",
"1084.32 -131 CURVE SMOOTH",
"1094.78 -161 OFFCURVE",
"1123.59 -181 OFFCURVE",
"1154.49 -181 CURVE SMOOTH",
"1162.37 -181 OFFCURVE",
"1170.39 -180 OFFCURVE",
"1178.26 -177 CURVE"
);
}
);
width = 2400;
}
);
unicode = 2022;
},
{
glyphname = colon;
lastChange = "2013-07-01 10:13:39 +0100";
layers = (
{
layerId = "B666C820-39E7-4854-9B1A-8391CFDDE462";
name = Regular;
paths = (
{
closed = 1;
nodes = (
"1066.89 9.0332 LINE",
"1066.89 713.135 LINE",
"893.066 713.135 LINE",
"893.066 922.168 LINE",
"1346.29 922.168 LINE",
"1346.29 9.0332 LINE",
"1506.93 9.0332 LINE",
"1506.93 -200 LINE",
"904.004 -200 LINE",
"904.004 9.0332 LINE"
);
},
{
closed = 1;
nodes = (
"1346.29 1362.21 LINE",
"1346.29 1113.57 LINE",
"1064.65 1113.57 LINE",
"1064.65 1362.21 LINE"
);
}
);
width = 2400;
}
);
unicode = 003A;
},
{
glyphname = exclam;
lastChange = "2013-02-27 13:28:26 +0100";
layers = (
{
layerId = "B666C820-39E7-4854-9B1A-8391CFDDE462";
name = Regular;
paths = (
{
closed = 1;
nodes = (
"1670.61 1235.84 LINE SMOOTH",
"1670.61 1326.56 OFFCURVE",
"1600.29 1400 OFFCURVE",
"1513.77 1400 CURVE SMOOTH",
"356.934 1400 LINE SMOOTH",
"270.312 1400 OFFCURVE",
"200 1326.56 OFFCURVE",
"200 1235.84 CURVE SMOOTH",
"200 517.676 LINE SMOOTH",
"200 427.051 OFFCURVE",
"270.312 353.711 OFFCURVE",
"356.934 353.711 CURVE SMOOTH",
"505.078 353.711 LINE",
"505.078 212.305 LINE SMOOTH",
"505.078 206.738 OFFCURVE",
"508.301 201.758 OFFCURVE",
"513.086 199.707 CURVE SMOOTH",
"514.746 199.023 OFFCURVE",
"516.406 198.633 OFFCURVE",
"518.164 198.633 CURVE SMOOTH",
"521.582 198.633 OFFCURVE",
"524.805 200 OFFCURVE",
"527.344 202.637 CURVE SMOOTH",
"671.68 353.711 LINE",
"1513.77 353.711 LINE SMOOTH",
"1600.29 353.711 OFFCURVE",
"1670.61 427.051 OFFCURVE",
"1670.61 517.676 CURVE SMOOTH"
);
},
{
closed = 1;
nodes = (
"583.106 819.238 OFFCURVE",
"546.094 857.715 OFFCURVE",
"546.094 905.273 CURVE SMOOTH",
"546.094 952.832 OFFCURVE",
"583.106 991.309 OFFCURVE",
"628.516 991.309 CURVE SMOOTH",
"673.926 991.309 OFFCURVE",
"710.742 952.832 OFFCURVE",
"710.742 905.273 CURVE SMOOTH",
"710.742 857.715 OFFCURVE",
"673.926 819.238 OFFCURVE",
"628.516 819.238 CURVE SMOOTH"
);
},
{
closed = 1;
nodes = (
"889.844 819.238 OFFCURVE",
"853.027 857.715 OFFCURVE",
"853.027 905.273 CURVE SMOOTH",
"853.027 952.832 OFFCURVE",
"889.844 991.309 OFFCURVE",
"935.352 991.309 CURVE SMOOTH",
"980.762 991.309 OFFCURVE",
"1017.68 952.832 OFFCURVE",
"1017.68 905.273 CURVE SMOOTH",
"1017.68 857.715 OFFCURVE",
"980.762 819.238 OFFCURVE",
"935.352 819.238 CURVE SMOOTH"
);
},
{
closed = 1;
nodes = (
"1196.68 819.238 OFFCURVE",
"1159.77 857.715 OFFCURVE",
"1159.77 905.273 CURVE SMOOTH",
"1159.77 952.832 OFFCURVE",
"1196.68 991.309 OFFCURVE",
"1242.09 991.309 CURVE SMOOTH",
"1287.6 991.309 OFFCURVE",
"1324.41 952.832 OFFCURVE",
"1324.41 905.273 CURVE SMOOTH",
"1324.41 857.715 OFFCURVE",
"1287.6 819.238 OFFCURVE",
"1242.09 819.238 CURVE SMOOTH"
);
},
{
closed = 1;
nodes = (
"1762.11 664.356 LINE",
"1762.11 476.855 LINE SMOOTH",
"1762.11 446.094 OFFCURVE",
"1755.96 417.09 OFFCURVE",
"1745.02 390.527 CURVE",
"1767.87 385.352 OFFCURVE",
"1784.86 364.355 OFFCURVE",
"1784.86 338.965 CURVE SMOOTH",
"1784.86 309.863 OFFCURVE",
"1762.3 286.23 OFFCURVE",
"1734.47 286.23 CURVE SMOOTH",
"1715.82 286.23 OFFCURVE",
"1699.71 296.973 OFFCURVE",
"1691.02 312.793 CURVE",
"1654.1 278.809 OFFCURVE",
"1605.86 257.812 OFFCURVE",
"1553.03 257.812 CURVE SMOOTH",
"1333.98 257.812 LINE",
"1333.98 192.578 LINE SMOOTH",
"1333.98 101.953 OFFCURVE",
"1404.2 28.3203 OFFCURVE",
"1490.92 28.3203 CURVE SMOOTH",
"1858.4 28.3203 LINE",
"1977.25 -96 LINE SMOOTH",
"1979.79 -99 OFFCURVE",
"1983.11 -100 OFFCURVE",
"1986.52 -100 CURVE SMOOTH",
"1988.09 -100 OFFCURVE",
"1989.84 -100 OFFCURVE",
"1991.5 -99 CURVE SMOOTH",
"1996.29 -97 OFFCURVE",
"1999.51 -92 OFFCURVE",
"1999.51 -86 CURVE SMOOTH",
"1999.51 28.3203 LINE",
"2043.07 28.3203 LINE SMOOTH",
"2129.69 28.3203 OFFCURVE",
"2200 101.953 OFFCURVE",
"2200 192.578 CURVE SMOOTH",
"2200 500.293 LINE SMOOTH",
"2200 591.016 OFFCURVE",
"2129.69 664.356 OFFCURVE",
"2043.07 664.356 CURVE SMOOTH"
);
},
{
closed = 1;
nodes = (
"1889.75 286.23 OFFCURVE",
"1867.09 309.863 OFFCURVE",
"1867.09 338.965 CURVE SMOOTH",
"1867.09 368.164 OFFCURVE",
"1889.75 391.699 OFFCURVE",
"1917.48 391.699 CURVE SMOOTH",
"1945.31 391.699 OFFCURVE",
"1967.87 368.164 OFFCURVE",
"1967.87 338.965 CURVE SMOOTH",
"1967.87 309.863 OFFCURVE",
"1945.31 286.23 OFFCURVE",
"1917.48 286.23 CURVE SMOOTH"
);
}
);
width = 2400;
}
);
unicode = 0021;
},
{
glyphname = question;
lastChange = "2013-02-27 13:28:04 +0100";
layers = (
{
layerId = "B666C820-39E7-4854-9B1A-8391CFDDE462";
name = Regular;
paths = (
{
closed = 1;
nodes = (
"2200 192.578 LINE SMOOTH",
"2200 101.953 OFFCURVE",
"2129.79 28.418 OFFCURVE",
"2043.16 28.418 CURVE SMOOTH",
"1999.51 28.418 LINE",
"1999.51 -86 LINE SMOOTH",
"1999.51 -92 OFFCURVE",
"1996.39 -97 OFFCURVE",
"1991.5 -99 CURVE SMOOTH",
"1989.84 -100 OFFCURVE",
"1988.18 -100 OFFCURVE",
"1986.43 -100 CURVE SMOOTH",
"1983.11 -100 OFFCURVE",
"1979.69 -99 OFFCURVE",
"1977.25 -96 CURVE SMOOTH",
"1858.4 28.418 LINE",
"1490.82 28.418 LINE SMOOTH",
"1404.2 28.418 OFFCURVE",
"1333.98 101.953 OFFCURVE",
"1333.98 192.578 CURVE SMOOTH",
"1333.98 257.91 LINE",
"1552.93 257.91 LINE SMOOTH",
"1668.26 257.91 OFFCURVE",
"1762.11 356.152 OFFCURVE",
"1762.11 476.855 CURVE SMOOTH",
"1762.11 664.453 LINE",
"2043.16 664.453 LINE SMOOTH",
"2129.79 664.453 OFFCURVE",
"2200 590.918 OFFCURVE",
"2200 500.293 CURVE SMOOTH"
);
},
{
closed = 1;
nodes = (
"1670.61 517.773 LINE SMOOTH",
"1670.61 427.148 OFFCURVE",
"1600.39 353.711 OFFCURVE",
"1513.67 353.711 CURVE SMOOTH",
"671.582 353.711 LINE",
"527.344 202.637 LINE SMOOTH",
"524.805 200 OFFCURVE",
"521.484 198.633 OFFCURVE",
"518.066 198.633 CURVE SMOOTH",
"516.309 198.633 OFFCURVE",
"514.746 198.926 OFFCURVE",
"513.086 199.707 CURVE SMOOTH",
"508.105 201.855 OFFCURVE",
"504.98 206.738 OFFCURVE",
"504.98 212.402 CURVE SMOOTH",
"504.98 353.711 LINE",
"356.836 353.711 LINE SMOOTH",
"270.215 353.711 OFFCURVE",
"200 427.148 OFFCURVE",
"200 517.773 CURVE SMOOTH",
"200 1235.94 LINE SMOOTH",
"200 1326.56 OFFCURVE",
"270.215 1400 OFFCURVE",
"356.836 1400 CURVE SMOOTH",
"1513.67 1400 LINE SMOOTH",
"1600.39 1400 OFFCURVE",
"1670.61 1326.56 OFFCURVE",
"1670.61 1235.94 CURVE SMOOTH"
);
},
{
closed = 1;
nodes = (
"1017.58 637.012 OFFCURVE",
"980.762 675.586 OFFCURVE",
"935.254 675.586 CURVE SMOOTH",
"889.844 675.586 OFFCURVE",
"852.93 637.012 OFFCURVE",
"852.93 589.356 CURVE SMOOTH",
"852.93 541.797 OFFCURVE",
"889.844 503.32 OFFCURVE",
"935.254 503.32 CURVE SMOOTH",
"980.762 503.32 OFFCURVE",
"1017.58 541.797 OFFCURVE",
"1017.58 589.356 CURVE SMOOTH"
);
},
{
closed = 1;
nodes = (
"1155.27 1141.41 OFFCURVE",
"1132.91 1191.21 OFFCURVE",
"1088.57 1224.61 CURVE SMOOTH",
"1046 1256.84 OFFCURVE",
"992.09 1273.24 OFFCURVE",
"928.418 1273.24 CURVE SMOOTH",
"879.492 1273.24 OFFCURVE",
"837.402 1261.52 OFFCURVE",
"803.223 1238.57 CURVE SMOOTH",
"748.828 1202.34 OFFCURVE",
"709.277 1125 OFFCURVE",
"716.016 1055.37 CURVE SMOOTH",
"720.996 1003.22 OFFCURVE",
"757.91 982.031 OFFCURVE",
"792.871 982.031 CURVE SMOOTH",
"833.008 982.031 OFFCURVE",
"865.625 1016.11 OFFCURVE",
"865.625 1058.2 CURVE SMOOTH",
"865.625 1061.04 OFFCURVE",
"865.43 1063.77 OFFCURVE",
"865.137 1066.6 CURVE",
"866.016 1103.81 OFFCURVE",
"894.922 1133.69 OFFCURVE",
"930.762 1133.69 CURVE SMOOTH",
"967.09 1133.69 OFFCURVE",
"996.484 1103.03 OFFCURVE",
"996.484 1064.94 CURVE SMOOTH",
"996.484 1041.31 OFFCURVE",
"985.059 1020.31 OFFCURVE",
"967.578 1008.01 CURVE",
"967.481 1007.91 OFFCURVE",
"967.481 1007.81 OFFCURVE",
"967.481 1007.71 CURVE",
"937.988 983.496 LINE SMOOTH",
"906.641 957.91 OFFCURVE",
"887.402 935.254 OFFCURVE",
"879.297 914.258 CURVE SMOOTH",
"872.559 896.68 OFFCURVE",
"868.164 868.164 OFFCURVE",
"866.113 828.027 CURVE",
"864.941 822.656 OFFCURVE",
"864.356 817.285 OFFCURVE",
"864.356 811.621 CURVE SMOOTH",
"864.356 770.312 OFFCURVE",
"896.289 737.012 OFFCURVE",
"935.644 737.012 CURVE SMOOTH",
"975 737.012 OFFCURVE",
"1007.03 770.312 OFFCURVE",
"1007.03 811.621 CURVE SMOOTH",
"1007.03 814.16 OFFCURVE",
"1006.84 816.797 OFFCURVE",
"1006.64 819.336 CURVE",
"1007.32 838.672 OFFCURVE",
"1009.28 848.926 OFFCURVE",
"1010.84 854.297 CURVE SMOOTH",
"1014.94 867.871 OFFCURVE",
"1023.24 879.59 OFFCURVE",
"1036.13 890.137 CURVE SMOOTH",
"1064.65 913.281 LINE SMOOTH",
"1095.02 937.988 OFFCURVE",
"1115.14 958.301 OFFCURVE",
"1126.37 974.805 CURVE SMOOTH",
"1145.51 1002.34 OFFCURVE",
"1155.27 1036.62 OFFCURVE",
"1155.27 1076.66 CURVE SMOOTH"
);
}
);
width = 2400;
}
);
unicode = 003F;
},
{
glyphname = semicolon;
lastChange = "2013-07-01 10:14:46 +0100";
layers = (
{
layerId = "B666C820-39E7-4854-9B1A-8391CFDDE462";
name = Regular;
paths = (
{
closed = 1;
nodes = (
"1345.21 1362.21 LINE",
"1321 251.074 LINE",
"1076.76 251.074 LINE",
"1054.79 1362.21 LINE"
);
},
{
closed = 1;
nodes = (
"1336.43 61.8164 LINE",
"1336.43 -200 LINE",
"1065.72 -200 LINE",
"1065.72 61.8164 LINE"
);
}
);
width = 2400;
}
);
unicode = 003B;
},
{
glyphname = slash;
lastChange = "2013-07-29 13:21:45 +0100";
layers = (
{
layerId = "B666C820-39E7-4854-9B1A-8391CFDDE462";
name = Regular;
paths = (
{
closed = 1;
nodes = (
"996 480 OFFCURVE",
"1020 459 OFFCURVE",
"1046 440 CURVE",
"463 -140 LINE SMOOTH",
"426 -178 OFFCURVE",
"365 -178 OFFCURVE",
"328 -140 CURVE SMOOTH",
"291 -103 OFFCURVE",
"291 -42 OFFCURVE",
"328 -5 CURVE SMOOTH",
"911 576 LINE",
"929 550 OFFCURVE",
"950 526 OFFCURVE",
"973 503 CURVE"
);
},
{
closed = 1;
nodes = (
"1486 449 LINE",
"1486 566 LINE",
"1368 553 OFFCURVE",
"1244 592 OFFCURVE",
"1153 683 CURVE SMOOTH",
"995 841 OFFCURVE",
"996 1099 OFFCURVE",
"1154 1257 CURVE SMOOTH",
"1313 1414 OFFCURVE",
"1570 1414 OFFCURVE",
"1728 1256 CURVE SMOOTH",
"1873 1110 OFFCURVE",
"1885 881 OFFCURVE",
"1763 723 CURVE",
"1826 723 LINE SMOOTH",
"1852 723 OFFCURVE",
"1878 715 OFFCURVE",
"1899 701 CURVE",
"2018 904 OFFCURVE",
"1991 1170 OFFCURVE",
"1817 1344 CURVE SMOOTH",
"1610 1552 OFFCURVE",
"1273 1552 OFFCURVE",
"1066 1345 CURVE SMOOTH",
"858 1138 OFFCURVE",
"858 802 OFFCURVE",
"1065 594 CURVE SMOOTH",
"1142 517 OFFCURVE",
"1237 468 OFFCURVE",
"1337 448 CURVE",
"1340 449 OFFCURVE",
"1344 449 OFFCURVE",
"1347 449 CURVE SMOOTH"
);
},
{
closed = 1;
nodes = (
"1826 588 LINE",
"1621 588 LINE",
"1621 314 LINE",
"1347 314 LINE",
"1347 109 LINE",
"1621 109 LINE",
"1621 -165 LINE",
"1826 -165 LINE",
"1826 109 LINE",
"2100 109 LINE",
"2100 314 LINE",
"1826 314 LINE"
);
}
);
width = 2400;
}
);
unicode = 002F;
},
{
glyphname = dollar;
lastChange = "2013-09-18 13:14:11 +0100";
layers = (
{
layerId = "B666C820-39E7-4854-9B1A-8391CFDDE462";
name = Regular;
paths = (
{
closed = 1;
nodes = (
"2200 504 LINE",
"946 -121 LINE",
"200 185 LINE",
"292 230 LINE",
"946 -35 LINE",
"2108 535 LINE"
);
},
{
closed = 1;
nodes = (
"292 373 LINE",
"200 328 LINE",
"946 29 LINE",
"2200 646 LINE",
"2108 685 LINE",
"946 113 LINE"
);
},
{
closed = 1;
nodes = (
"946 177 LINE",
"200 484 LINE",
"1454 1101 LINE",
"2200 803 LINE"
);
},
{
closed = 1;
nodes = (
"1460 711 OFFCURVE",
"1331 769 OFFCURVE",
"1180 769 CURVE SMOOTH",
"1024 769 OFFCURVE",
"901 711 OFFCURVE",
"901 646 CURVE SMOOTH",
"901 582 OFFCURVE",
"1024 529 OFFCURVE",
"1180 529 CURVE SMOOTH",
"1331 529 OFFCURVE",
"1460 582 OFFCURVE",
"1460 646 CURVE SMOOTH"
);
}
);
width = 2400;
}
);
unicode = 0024;
},
{
glyphname = euro;
lastChange = "2013-07-29 10:48:09 +0100";
layers = (
{
layerId = "B666C820-39E7-4854-9B1A-8391CFDDE462";
name = Regular;
paths = (
{
closed = 1;
nodes = (
"1718.37 1122 LINE",
"1654.89 1185.32 OFFCURVE",
"1562.35 1217 OFFCURVE",
"1440.68 1217 CURVE SMOOTH",
"1318.99 1217 OFFCURVE",
"1220.44 1173.1 OFFCURVE",
"1145.05 1085.33 CURVE SMOOTH",
"1102.47 1035.8 OFFCURVE",
"1072.25 973.898 OFFCURVE",
"1054.34 899.644 CURVE",
"1668.85 899.644 LINE",
"1632.46 725.803 LINE",
"1031.19 725.803 LINE",
"1030.43 708.653 OFFCURVE",
"1030.08 686.669 OFFCURVE",
"1030.08 659.854 CURVE SMOOTH",
"1030.08 633.765 OFFCURVE",
"1030.81 606.539 OFFCURVE",
"1032.32 578.241 CURVE",
"1602.14 578.241 LINE",
"1565.76 404.4 LINE",
"1056.58 404.4 LINE",
"1075.22 324.238 OFFCURVE",
"1103.96 261.29 OFFCURVE",
"1142.74 215.588 CURVE SMOOTH",
"1217.31 127.184 OFFCURVE",
"1314.28 82.9971 OFFCURVE",
"1433.64 82.9971 CURVE SMOOTH",
"1576.84 82.9971 OFFCURVE",
"1690.96 126.772 OFFCURVE",
"1775.98 214.387 CURVE",
"1775.98 -127 LINE",
"1678.83 -176 OFFCURVE",
"1565.66 -200 OFFCURVE",
"1436.42 -200 CURVE SMOOTH",
"1218.23 -200 OFFCURVE",
"1038.93 -125 OFFCURVE",
"898.47 24.2817 CURVE SMOOTH",
"802.832 125.918 OFFCURVE",
"739.726 252.636 OFFCURVE",
"709.089 404.4 CURVE",
"542.924 404.4 LINE",
"579.309 578.241 LINE",
"689.602 578.241 LINE",
"688.844 596.117 OFFCURVE",
"688.465 615.1 OFFCURVE",
"688.465 635.25 CURVE SMOOTH",
"688.465 669.518 OFFCURVE",
"689.191 699.715 OFFCURVE",
"690.708 725.803 CURVE",
"542.924 725.803 LINE",
"579.309 899.644 LINE",
"713.132 899.644 LINE",
"744.496 1048.5 OFFCURVE",
"806.843 1173.07 OFFCURVE",
"900.207 1273.32 CURVE SMOOTH",
"1041.33 1424.42 OFFCURVE",
"1226.92 1500 OFFCURVE",
"1456.95 1500 CURVE SMOOTH",
"1582.4 1500 OFFCURVE",
"1691.46 1477.26 OFFCURVE",
"1784.07 1431.78 CURVE"
);
}
);
width = 2400;
}
);
unicode = 20AC;
},
{
glyphname = blackBowtie;
lastChange = "2013-09-17 13:52:08 +0100";
layers = (
{
layerId = "B666C820-39E7-4854-9B1A-8391CFDDE462";
name = Regular;
paths = (
{
closed = 1;
nodes = (
"1344 -128 OFFCURVE",
"1318 -168 OFFCURVE",
"1276 -179 CURVE SMOOTH",
"1261 -182 OFFCURVE",
"1246 -182 OFFCURVE",
"1233 -178 CURVE",
"1239 -168 OFFCURVE",
"1244 -157 OFFCURVE",
"1247 -146 CURVE SMOOTH",
"1301 48 LINE",
"1335 -90 LINE SMOOTH"
);
},
{
closed = 1;
nodes = (
"1674 633 OFFCURVE",
"1421 737 OFFCURVE",
"1356 742 CURVE SMOOTH",
"1291 747 OFFCURVE",
"987 687 OFFCURVE",
"956 683 CURVE SMOOTH",
"951 683 OFFCURVE",
"945 682 OFFCURVE",
"940 682 CURVE SMOOTH",
"885 682 OFFCURVE",
"839 713 OFFCURVE",
"816 730 CURVE SMOOTH",
"805 741 OFFCURVE",
"788 755 OFFCURVE",
"768 774 CURVE SMOOTH",
"750 791 OFFCURVE",
"742 814 OFFCURVE",
"745 837 CURVE SMOOTH",
"748 857 OFFCURVE",
"760 874 OFFCURVE",
"779 886 CURVE",
"770 889 OFFCURVE",
"760 894 OFFCURVE",
"753 899 CURVE SMOOTH",
"734 911 OFFCURVE",
"593 1030 OFFCURVE",
"557 1038 CURVE SMOOTH",
"525 1044 OFFCURVE",
"182 715 OFFCURVE",
"165 614 CURVE",
"164 611 OFFCURVE",
"164 609 OFFCURVE",
"164 606 CURVE SMOOTH",
"164 603 OFFCURVE",
"165 600 OFFCURVE",
"165 598 CURVE",
"172 576 OFFCURVE",
"331 486 OFFCURVE",
"520 387 CURVE",
"546 480 LINE SMOOTH",
"562 536 OFFCURVE",
"612 573 OFFCURVE",
"672 573 CURVE SMOOTH",
"686 573 OFFCURVE",
"698 571 OFFCURVE",
"712 567 CURVE SMOOTH",
"744 557 OFFCURVE",
"771 538 OFFCURVE",
"789 511 CURVE",
"819 528 OFFCURVE",
"860 533 OFFCURVE",
"897 523 CURVE SMOOTH",
"928 514 OFFCURVE",
"955 494 OFFCURVE",
"974 468 CURVE",
"1005 488 OFFCURVE",
"1047 495 OFFCURVE",
"1087 484 CURVE SMOOTH",
"1145 467 OFFCURVE",
"1183 416 OFFCURVE",
"1186 363 CURVE",
"1206 366 OFFCURVE",
"1227 365 OFFCURVE",
"1248 358 CURVE SMOOTH",
"1306 342 OFFCURVE",
"1348 290 OFFCURVE",
"1348 232 CURVE SMOOTH",
"1348 228 LINE",
"1343 198 LINE",
"1320 113 LINE",
"1355 -29 LINE SMOOTH",
"1364 -67 OFFCURVE",
"1407 -90 OFFCURVE",
"1448 -80 CURVE SMOOTH",
"1490 -69 OFFCURVE",
"1516 -29 OFFCURVE",
"1507 9 CURVE SMOOTH",
"1418 368 LINE",
"1414 396 OFFCURVE",
"1446 406 OFFCURVE",
"1454 371 CURVE SMOOTH",
"1524 86 LINE SMOOTH",
"1533 48 OFFCURVE",
"1574 25 OFFCURVE",
"1617 35 CURVE SMOOTH",
"1659 46 OFFCURVE",
"1685 86 OFFCURVE",
"1676 124 CURVE SMOOTH",
"1607 409 LINE SMOOTH",
"1607 409 OFFCURVE",
"1606 410 OFFCURVE",
"1606 411 CURVE",
"1613 428 OFFCURVE",
"1636 429 OFFCURVE",
"1642 408 CURVE SMOOTH",
"1694 188 LINE SMOOTH",
"1705 149 OFFCURVE",
"1746 126 OFFCURVE",
"1789 137 CURVE SMOOTH",
"1824 146 OFFCURVE",
"1848 175 OFFCURVE",
"1850 207 CURVE",
"1848 226 LINE",
"1848 226 OFFCURVE",
"1786 507 OFFCURVE",
"1780 550 CURVE SMOOTH",
"1775 595 OFFCURVE",
"1731 613 OFFCURVE",
"1702 624 CURVE SMOOTH"
);
},
{
closed = 1;
nodes = (
"859 95 LINE SMOOTH",
"848 57 OFFCURVE",
"805 36 OFFCURVE",
"764 48 CURVE SMOOTH",
"722 60 OFFCURVE",
"697 101 OFFCURVE",
"708 139 CURVE SMOOTH",
"786 421 LINE SMOOTH",
"797 459 OFFCURVE",
"839 481 OFFCURVE",
"882 468 CURVE SMOOTH",
"923 457 OFFCURVE",
"948 415 OFFCURVE",
"936 378 CURVE SMOOTH"
);
},
{
closed = 1;
nodes = (
"1023 -25 LINE SMOOTH",
"1012 -63 OFFCURVE",
"970 -85 OFFCURVE",
"928 -72 CURVE SMOOTH",
"887 -61 OFFCURVE",
"862 -20 OFFCURVE",
"872 18 CURVE SMOOTH",
"976 381 LINE SMOOTH",
"986 420 OFFCURVE",
"1029 440 OFFCURVE",
"1071 429 CURVE SMOOTH",
"1113 416 OFFCURVE",
"1137 376 OFFCURVE",
"1127 338 CURVE SMOOTH"
);
},
{
closed = 1;
nodes = (
"691 202 LINE SMOOTH",
"680 165 OFFCURVE",
"637 143 OFFCURVE",
"596 155 CURVE SMOOTH",
"561 165 OFFCURVE",
"537 195 OFFCURVE",
"537 227 CURVE",
"540 246 LINE",
"601 465 LINE SMOOTH",
"611 502 OFFCURVE",
"654 524 OFFCURVE",
"696 512 CURVE SMOOTH",
"738 500 OFFCURVE",
"763 460 OFFCURVE",
"752 422 CURVE SMOOTH"
);
},
{
closed = 1;
nodes = (
"2203 488 OFFCURVE",
"1917 330 OFFCURVE",
"1917 330 CURVE",
"1878 356 LINE",
"1858 446 OFFCURVE",
"1839 537 OFFCURVE",
"1836 557 CURVE SMOOTH",
"1830 612 OFFCURVE",
"1791 653 OFFCURVE",
"1720 677 CURVE SMOOTH",
"1715 678 OFFCURVE",
"1701 685 OFFCURVE",
"1680 692 CURVE SMOOTH",
"1525 754 OFFCURVE",
"1410 795 OFFCURVE",
"1360 799 CURVE SMOOTH",
"1310 803 OFFCURVE",
"1161 777 OFFCURVE",
"1013 750 CURVE SMOOTH",
"985 746 OFFCURVE",
"956 741 OFFCURVE",
"950 740 CURVE",
"950 740 OFFCURVE",
"950 740 OFFCURVE",
"950 740 CURVE SMOOTH",
"950 740 OFFCURVE",
"950 740 OFFCURVE",
"950 740 CURVE",
"945 738 OFFCURVE",
"940 738 OFFCURVE",
"934 738 CURVE SMOOTH",
"933 738 OFFCURVE",
"933 740 OFFCURVE",
"932 740 CURVE SMOOTH",
"928 740 OFFCURVE",
"923 741 OFFCURVE",
"919 741 CURVE SMOOTH",
"919 742 OFFCURVE",
"919 742 OFFCURVE",
"918 742 CURVE",
"899 746 OFFCURVE",
"882 755 OFFCURVE",
"868 763 CURVE",
"868 763 OFFCURVE",
"868 763 OFFCURVE",
"867 764 CURVE SMOOTH",
"865 765 OFFCURVE",
"862 767 OFFCURVE",
"860 770 CURVE SMOOTH",
"858 771 OFFCURVE",
"855 773 OFFCURVE",
"853 775 CURVE SMOOTH",
"850 777 OFFCURVE",
"846 780 OFFCURVE",
"842 783 CURVE SMOOTH",
"841 785 OFFCURVE",
"839 786 OFFCURVE",
"838 787 CURVE SMOOTH",
"836 789 OFFCURVE",
"834 791 OFFCURVE",
"831 793 CURVE SMOOTH",
"829 795 OFFCURVE",
"827 797 OFFCURVE",
"824 800 CURVE SMOOTH",
"823 802 OFFCURVE",
"822 803 OFFCURVE",
"819 804 CURVE SMOOTH",
"815 808 OFFCURVE",
"811 811 OFFCURVE",
"807 815 CURVE SMOOTH",
"807 815 OFFCURVE",
"807 816 OFFCURVE",
"807 816 CURVE SMOOTH",
"805 817 OFFCURVE",
"804 819 OFFCURVE",
"803 821 CURVE SMOOTH",
"803 821 OFFCURVE",
"802 822 OFFCURVE",
"802 822 CURVE SMOOTH",
"802 824 OFFCURVE",
"801 826 OFFCURVE",
"802 828 CURVE SMOOTH",
"802 828 OFFCURVE",
"802 829 OFFCURVE",
"802 829 CURVE",
"802 830 OFFCURVE",
"803 832 OFFCURVE",
"804 834 CURVE SMOOTH",
"805 834 OFFCURVE",
"805 834 OFFCURVE",
"805 834 CURVE",
"807 836 OFFCURVE",
"809 837 OFFCURVE",
"811 839 CURVE SMOOTH",
"875 870 OFFCURVE",
"1079 967 OFFCURVE",
"1114 983 CURVE SMOOTH",
"1154 1003 OFFCURVE",
"1352 977 OFFCURVE",
"1385 968 CURVE SMOOTH",
"1410 961 OFFCURVE",
"1495 931 OFFCURVE",
"1578 878 CURVE",
"1581 877 OFFCURVE",
"1582 877 OFFCURVE",
"1584 876 CURVE SMOOTH",
"1613 858 OFFCURVE",
"1636 870 OFFCURVE",
"1656 881 CURVE SMOOTH",
"1676 894 OFFCURVE",
"1821 1008 OFFCURVE",
"1856 1014 CURVE SMOOTH",
"1891 1019 OFFCURVE",
"2264 633 OFFCURVE",
"2233 560 CURVE SMOOTH"
);
},
{
closed = 1;
nodes = (
"1289 213 LINE",
"1192 -130 LINE SMOOTH",
"1182 -169 OFFCURVE",
"1138 -189 OFFCURVE",
"1097 -178 CURVE SMOOTH",
"1056 -166 OFFCURVE",
"1031 -125 OFFCURVE",
"1041 -87 CURVE SMOOTH",
"1137 257 LINE SMOOTH",
"1149 294 OFFCURVE",
"1191 316 OFFCURVE",
"1233 304 CURVE SMOOTH",
"1268 294 OFFCURVE",
"1291 264 OFFCURVE",
"1291 232 CURVE"
);
},
{
closed = 1;
nodes = (
"1440 1006 OFFCURVE",
"1541 960 OFFCURVE",
"1541 960 CURVE SMOOTH",
"1541 960 OFFCURVE",
"1506 1021 OFFCURVE",
"1481 1038 CURVE SMOOTH",
"1455 1055 OFFCURVE",
"1301 1022 OFFCURVE",
"1301 1022 CURVE SMOOTH",
"1301 1022 OFFCURVE",
"1351 1022 OFFCURVE",
"1395 1014 CURVE SMOOTH"
);
}
);
width = 2400;
}
);
unicode = 29D3;
},
{
glyphname = circleplus;
lastChange = "2013-07-29 12:31:34 +0100";
layers = (
{
layerId = "B666C820-39E7-4854-9B1A-8391CFDDE462";
name = Regular;
paths = (
{
closed = 1;
nodes = (
"563.676 1.7018 LINE SMOOTH",
"473.287 1.7018 OFFCURVE",
"400 74.9879 OFFCURVE",
"400 165.378 CURVE SMOOTH",
"400.368 1136.32 LINE SMOOTH",
"400.368 1226.71 OFFCURVE",
"473.639 1300 OFFCURVE",
"564.044 1300 CURVE SMOOTH",
"1030.04 1300 LINE SMOOTH",
"1120.43 1300 OFFCURVE",
"1193.72 1226.71 OFFCURVE",
"1193.72 1136.32 CURVE SMOOTH",
"1193.72 1079.82 LINE",
"1827.38 1079.82 LINE SMOOTH",
"1917.79 1079.82 OFFCURVE",
"1991.06 1006.53 OFFCURVE",
"1991.06 916.145 CURVE SMOOTH",
"1991.06 653.944 LINE",
"1973.88 662.24 OFFCURVE",
"1954.68 667.019 OFFCURVE",
"1934.31 667.019 CURVE SMOOTH",
"1735 667.019 LINE SMOOTH",
"1662.68 667.019 OFFCURVE",
"1604.05 608.39 OFFCURVE",
"1604.05 536.078 CURVE SMOOTH",
"1604.05 401.35 LINE",
"1436.61 401.35 LINE SMOOTH",
"1364.3 401.35 OFFCURVE",
"1305.67 342.72 OFFCURVE",
"1305.67 270.409 CURVE SMOOTH",
"1305.67 38.3691 LINE SMOOTH",
"1305.67 25.63 OFFCURVE",
"1307.57 13.3548 OFFCURVE",
"1310.97 1.7018 CURVE"
);
},
{
closed = 1;
nodes = (
"1934.31 503.343 LINE",
"1735 503.343 LINE",
"1735 237.674 LINE",
"1469.34 237.674 LINE",
"1469.34 38.3691 LINE",
"1735 38.3691 LINE",
"1735 -227 LINE",
"1934.31 -227 LINE",
"1934.31 38.3691 LINE",
"2200 38.3691 LINE",
"2200 237.674 LINE",
"1934.31 237.674 LINE"
);
}
);
width = 2400;
}
);
unicode = 2295;
},
{
glyphname = equalsCircled;
lastChange = "2013-09-17 13:54:05 +0100";
layers = (
{
layerId = "B666C820-39E7-4854-9B1A-8391CFDDE462";
name = Regular;
paths = (
{
closed = 1;
nodes = (
"1377 940 OFFCURVE",
"1323 993 OFFCURVE",
"1260 993 CURVE SMOOTH",
"844 993 LINE",
"805 920 OFFCURVE",
"797 835 OFFCURVE",
"820 757 CURVE",
"1260 757 LINE SMOOTH",
"1323 757 OFFCURVE",
"1377 811 OFFCURVE",
"1377 875 CURVE SMOOTH"
);
},
{
closed = 1;
nodes = (
"919 612 LINE",
"1027 522 OFFCURVE",
"1183 520 OFFCURVE",
"1295 607 CURVE",
"1283 611 OFFCURVE",
"1270 612 OFFCURVE",
"1260 612 CURVE SMOOTH"
);
},
{
closed = 1;
nodes = (
"1615 471 LINE",
"1597 445 OFFCURVE",
"1577 422 OFFCURVE",
"1555 401 CURVE SMOOTH",
"1532 379 OFFCURVE",
"1509 359 OFFCURVE",
"1485 341 CURVE",
"2039 -211 LINE SMOOTH",
"2076 -248 OFFCURVE",
"2132 -248 OFFCURVE",
"2167 -211 CURVE SMOOTH",
"2204 -178 OFFCURVE",
"2204 -120 OFFCURVE",
"2167 -83 CURVE SMOOTH"
);
},
{
closed = 1;
nodes = (
"1269 1400 OFFCURVE",
"948 1400 OFFCURVE",
"751 1203 CURVE SMOOTH",
"555 1008 OFFCURVE",
"555 687 OFFCURVE",
"751 489 CURVE SMOOTH",
"948 292 OFFCURVE",
"1269 292 OFFCURVE",
"1467 489 CURVE SMOOTH",
"1664 687 OFFCURVE",
"1664 1008 OFFCURVE",
"1467 1203 CURVE SMOOTH"
);
},
{
closed = 1;
nodes = (
"1225 448 OFFCURVE",
"995 448 OFFCURVE",
"852 590 CURVE SMOOTH",
"710 731 OFFCURVE",
"710 961 OFFCURVE",
"852 1102 CURVE SMOOTH",
"995 1244 OFFCURVE",
"1225 1244 OFFCURVE",
"1366 1102 CURVE SMOOTH",
"1508 961 OFFCURVE",
"1508 731 OFFCURVE",
"1366 590 CURVE SMOOTH"
);
},
{
closed = 1;
nodes = (
"666 494 LINE",
"624 547 OFFCURVE",
"595 603 OFFCURVE",
"572 663 CURVE",
"289 663 LINE SMOOTH",
"243 663 OFFCURVE",
"204 627 OFFCURVE",
"204 579 CURVE SMOOTH",
"204 532 OFFCURVE",
"243 494 OFFCURVE",
"289 494 CURVE SMOOTH"
);
},
{
closed = 1;
nodes = (
"988 279 OFFCURVE",
"872 318 OFFCURVE",
"777 388 CURVE",
"289 388 LINE SMOOTH",
"243 388 OFFCURVE",
"204 351 OFFCURVE",
"204 302 CURVE SMOOTH",
"204 256 OFFCURVE",
"243 218 OFFCURVE",
"289 218 CURVE SMOOTH",
"1315 218 LINE SMOOTH",
"1361 218 OFFCURVE",
"1400 256 OFFCURVE",
"1400 302 CURVE SMOOTH",
"1400 320 OFFCURVE",
"1395 337 OFFCURVE",
"1384 352 CURVE",
"1301 304 OFFCURVE",
"1207 279 OFFCURVE",
"1109 279 CURVE SMOOTH"
);
},
{
closed = 1;
nodes = (
"548 771 LINE",
"542 828 OFFCURVE",
"543 883 OFFCURVE",
"551 940 CURVE",
"289 940 LINE SMOOTH",
"243 940 OFFCURVE",
"204 902 OFFCURVE",
"204 855 CURVE SMOOTH",
"204 809 OFFCURVE",
"243 771 OFFCURVE",
"289 771 CURVE SMOOTH"
);
}
);
width = 2400;
}
);
unicode = 229C;
},
{
glyphname = greater;
lastChange = "2013-05-07 12:32:28 +0100";
layers = (
{
layerId = "B666C820-39E7-4854-9B1A-8391CFDDE462";
name = Regular;
paths = (
{
closed = 1;
nodes = (
"950 -44 OFFCURVE",
"952 -37 OFFCURVE",
"957 -32 CURVE SMOOTH",
"1390 401 LINE",
"957 832 LINE SMOOTH",
"948 842 OFFCURVE",
"948 858 OFFCURVE",
"957 868 CURVE SMOOTH",
"967 877 OFFCURVE",
"983 877 OFFCURVE",
"993 868 CURVE SMOOTH",
"1443 419 LINE SMOOTH",
"1452 409 OFFCURVE",
"1452 393 OFFCURVE",
"1443 383 CURVE SMOOTH",
"993 -68 LINE SMOOTH",
"983 -77 OFFCURVE",
"967 -77 OFFCURVE",
"957 -68 CURVE SMOOTH",
"952 -63 OFFCURVE",
"950 -56 OFFCURVE",
"950 -50 CURVE SMOOTH"
);
}
);
width = 2400;
}
);
unicode = 003E;
},
{
glyphname = less;
lastChange = "2013-05-07 12:31:45 +0100";
layers = (
{
layerId = "B666C820-39E7-4854-9B1A-8391CFDDE462";
name = Regular;
paths = (
{
closed = 1;
nodes = (
"1450 844 OFFCURVE",
"1448 837 OFFCURVE",
"1443 832 CURVE SMOOTH",
"1010 400 LINE",
"1443 -32 LINE SMOOTH",
"1452 -42 OFFCURVE",
"1452 -58 OFFCURVE",
"1443 -68 CURVE SMOOTH",
"1433 -77 OFFCURVE",
"1417 -77 OFFCURVE",
"1407 -68 CURVE SMOOTH",
"957 382 LINE SMOOTH",
"948 392 OFFCURVE",
"948 408 OFFCURVE",
"957 418 CURVE SMOOTH",
"1407 868 LINE SMOOTH",
"1417 877 OFFCURVE",
"1433 877 OFFCURVE",
"1443 868 CURVE SMOOTH",
"1448 863 OFFCURVE",
"1450 856 OFFCURVE",
"1450 850 CURVE SMOOTH"
);
}
);
width = 2400;
}
);
unicode = 003C;
},
{
glyphname = logicaland;
lastChange = "2012-12-07 16:20:23 +0100";
layers = (
{
layerId = "B666C820-39E7-4854-9B1A-8391CFDDE462";
name = Regular;
paths = (
{
closed = 1;
nodes = (
"1643.55 75 OFFCURVE",
"1637.21 77.4414 OFFCURVE",
"1632.32 82.3242 CURVE SMOOTH",
"1200 514.648 LINE",
"767.676 82.3242 LINE SMOOTH",
"757.91 72.5586 OFFCURVE",
"742.09 72.5586 OFFCURVE",
"732.324 82.3242 CURVE SMOOTH",
"722.559 92.0898 OFFCURVE",
"722.559 107.91 OFFCURVE",
"732.324 117.676 CURVE SMOOTH",
"1182.32 567.676 LINE SMOOTH",
"1192.09 577.441 OFFCURVE",
"1207.91 577.441 OFFCURVE",
"1217.68 567.676 CURVE SMOOTH",
"1667.68 117.676 LINE SMOOTH",
"1677.44 107.91 OFFCURVE",
"1677.44 92.0898 OFFCURVE",
"1667.68 82.3242 CURVE SMOOTH",
"1662.79 77.4414 OFFCURVE",
"1656.45 75 OFFCURVE",
"1650 75 CURVE SMOOTH"
);
}
);
width = 2400;
}
);
unicode = 2227;
},
{
glyphname = logicalor;
lastChange = "2012-12-07 16:19:30 +0100";
layers = (
{
layerId = "B666C820-39E7-4854-9B1A-8391CFDDE462";
name = Regular;
paths = (
{
closed = 1;
nodes = (
"1193.55 75 OFFCURVE",
"1187.21 77.4414 OFFCURVE",
"1182.32 82.3242 CURVE SMOOTH",
"732.324 532.324 LINE SMOOTH",
"722.559 542.09 OFFCURVE",
"722.559 557.91 OFFCURVE",
"732.324 567.676 CURVE SMOOTH",
"742.09 577.441 OFFCURVE",
"757.91 577.441 OFFCURVE",
"767.676 567.676 CURVE SMOOTH",
"1200 135.352 LINE",
"1632.32 567.676 LINE SMOOTH",
"1642.09 577.441 OFFCURVE",
"1657.91 577.441 OFFCURVE",
"1667.68 567.676 CURVE SMOOTH",
"1677.44 557.91 OFFCURVE",
"1677.44 542.09 OFFCURVE",
"1667.68 532.324 CURVE SMOOTH",
"1217.68 82.3242 LINE SMOOTH",
"1212.79 77.4414 OFFCURVE",
"1206.45 75 OFFCURVE",
"1200 75 CURVE SMOOTH"
);
}
);
width = 2400;
}
);
unicode = 2228;
},
{
glyphname = multiply;
lastChange = "2012-08-23 12:55:31 +0100";
layers = (
{
layerId = "B666C820-39E7-4854-9B1A-8391CFDDE462";
name = Regular;
paths = (
{
closed = 1;
nodes = (
"1625.39 794.727 LINE SMOOTH",
"1664.45 833.789 OFFCURVE",
"1664.45 897.07 OFFCURVE",
"1625.39 936.133 CURVE SMOOTH",
"1586.33 975.195 OFFCURVE",
"1523.05 975.195 OFFCURVE",
"1483.98 936.133 CURVE SMOOTH",
"1186.91 639.062 LINE",
"889.844 936.133 LINE SMOOTH",
"850.781 975.195 OFFCURVE",
"787.5 975.195 OFFCURVE",
"748.438 936.133 CURVE SMOOTH",
"709.375 897.07 OFFCURVE",
"709.375 833.789 OFFCURVE",
"748.438 794.727 CURVE SMOOTH",
"1045.51 497.656 LINE",
"748.438 200.586 LINE SMOOTH",
"709.375 161.523 OFFCURVE",
"709.375 98.2422 OFFCURVE",
"748.438 59.1797 CURVE SMOOTH",
"767.969 39.6484 OFFCURVE",
"793.555 29.8828 OFFCURVE",
"819.141 29.8828 CURVE SMOOTH",
"844.727 29.8828 OFFCURVE",
"870.312 39.6484 OFFCURVE",
"889.844 59.1797 CURVE SMOOTH",
"1186.91 356.25 LINE",
"1483.98 59.1797 LINE SMOOTH",
"1503.52 39.6484 OFFCURVE",
"1529.1 29.8828 OFFCURVE",
"1554.69 29.8828 CURVE SMOOTH",
"1580.27 29.8828 OFFCURVE",
"1605.86 39.6484 OFFCURVE",
"1625.39 59.1797 CURVE SMOOTH",
"1664.45 98.2422 OFFCURVE",
"1664.45 161.523 OFFCURVE",
"1625.39 200.586 CURVE SMOOTH",
"1328.32 497.656 LINE"
);
}
);
width = 2400;
}
);
unicode = 00D7;
},
{
glyphname = northEastArrowCrossingNorthWestArrow;
lastChange = "2013-09-17 09:21:29 +0100";
layers = (
{
layerId = "B666C820-39E7-4854-9B1A-8391CFDDE462";
name = Regular;
paths = (
{
closed = 1;
nodes = (
"1664 467 LINE",
"1695 498 LINE SMOOTH",
"1717 519 OFFCURVE",
"1717 555 OFFCURVE",
"1695 577 CURVE SMOOTH",
"1692 580 LINE SMOOTH",
"1670 601 OFFCURVE",
"1635 601 OFFCURVE",
"1613 580 CURVE SMOOTH",
"1292 259 LINE SMOOTH",
"1271 237 OFFCURVE",
"1271 202 OFFCURVE",
"1292 180 CURVE SMOOTH",
"1295 177 LINE SMOOTH",
"1317 155 OFFCURVE",
"1353 155 OFFCURVE",
"1374 177 CURVE SMOOTH",
"1405 208 LINE",
"1689 -76 LINE SMOOTH",
"1758 -145 OFFCURVE",
"1870 -145 OFFCURVE",
"1939 -76 CURVE SMOOTH",
"1948 -67 LINE SMOOTH",
"2017 2 OFFCURVE",
"2017 114 OFFCURVE",
"1948 183 CURVE SMOOTH"
);
},
{
closed = 1;
nodes = (
"1496 530 LINE",
"1407 618 LINE",
"1451 662 LINE",
"1470 680 LINE",
"1476 686 LINE",
"1614 642 OFFCURVE",
"1772 674 OFFCURVE",
"1883 785 CURVE SMOOTH",
"1993 895 OFFCURVE",
"2025 1053 OFFCURVE",
"1981 1191 CURVE",
"1728 939 LINE SMOOTH",
"1659 870 OFFCURVE",
"1548 870 OFFCURVE",
"1479 939 CURVE SMOOTH",
"1469 949 LINE SMOOTH",
"1400 1018 OFFCURVE",
"1400 1129 OFFCURVE",
"1469 1198 CURVE SMOOTH",
"1721 1451 LINE",
"1583 1495 OFFCURVE",
"1425 1463 OFFCURVE",
"1315 1353 CURVE SMOOTH",
"1205 1242 OFFCURVE",
"1172 1084 OFFCURVE",
"1217 946 CURVE",
"1210 940 LINE",
"1200 929 LINE",
"1200 929 LINE",
"1148 878 LINE",
"832 1193 LINE",
"782 1341 LINE",
"523 1470 LINE",
"402 1349 LINE",
"531 1090 LINE",
"679 1040 LINE",
"994 724 LINE",
"941 670 LINE",
"710 440 LINE",
"452 181 LINE SMOOTH",
"383 112 OFFCURVE",
"383 0 OFFCURVE",
"452 -69 CURVE SMOOTH",
"461 -78 LINE SMOOTH",
"530 -147 OFFCURVE",
"642 -147 OFFCURVE",
"711 -78 CURVE SMOOTH",
"970 180 LINE",
"970 180 OFFCURVE",
"970 180 OFFCURVE",
"970 180 CURVE",
"990 201 LINE",
"990 201 OFFCURVE",
"990 201 OFFCURVE",
"990 201 CURVE",
"1211 422 LINE",
"1211 422 LINE",
"1249 459 LINE",
"1249 460 OFFCURVE",
"1249 460 OFFCURVE",
"1249 460 CURVE",
"1254 464 LINE",
"1342 376 LINE"
);
}
);
width = 2400;
}
);
unicode = 2931;
},
{
glyphname = operatorCircled;
lastChange = "2013-09-17 09:01:08 +0100";
layers = (
{
layerId = "B666C820-39E7-4854-9B1A-8391CFDDE462";
name = Regular;
paths = (
{
closed = 1;
nodes = (
"2025.05 1405.46 LINE SMOOTH",
"2050.02 1430.39 OFFCURVE",
"2050.02 1470.84 OFFCURVE",
"2025.05 1495.76 CURVE SMOOTH",
"2000.13 1520.78 OFFCURVE",
"1959.67 1520.78 OFFCURVE",
"1934.75 1495.76 CURVE SMOOTH",
"1887.61 1448.63 LINE",
"1887.57 1636.18 LINE",
"1606.02 1354.67 LINE",
"1609.18 1170.24 LINE",
"1500.01 1061.06 LINE",
"1223.47 1279.14 OFFCURVE",
"821.455 1260.8 OFFCURVE",
"566.316 1005.67 CURVE SMOOTH",
"291.22 730.571 OFFCURVE",
"291.22 284.493 OFFCURVE",
"566.361 9.35537 CURVE SMOOTH",
"841.457 -266 OFFCURVE",
"1287.53 -266 OFFCURVE",
"1562.63 9.35537 CURVE SMOOTH",
"1816.68 263.409 OFFCURVE",
"1835.96 663.071 OFFCURVE",
"1620.87 939.433 CURVE",
"1477.21 795.768 LINE",
"1614.68 599.364 OFFCURVE",
"1595.9 326.891 OFFCURVE",
"1420.5 151.484 CURVE SMOOTH",
"1223.92 -45 OFFCURVE",
"905.117 -45 OFFCURVE",
"708.492 151.484 CURVE SMOOTH",
"511.911 348.11 OFFCURVE",
"511.911 666.91 OFFCURVE",
"708.492 863.492 CURVE SMOOTH",
"884.981 1040.02 OFFCURVE",
"1159.85 1057.95 OFFCURVE",
"1356.48 917.534 CURVE",
"1219.36 780.418 LINE",
"1099.62 848.501 OFFCURVE",
"944.714 831.568 OFFCURVE",
"842.586 729.444 CURVE SMOOTH",
"720.006 606.862 OFFCURVE",
"720.006 408.204 OFFCURVE",
"842.586 285.577 CURVE SMOOTH",
"965.12 162.996 OFFCURVE",
"1163.87 162.996 OFFCURVE",
"1286.4 285.623 CURVE SMOOTH",
"1387.36 386.533 OFFCURVE",
"1405.1 539.138 OFFCURVE",
"1339.77 658.332 CURVE",
"1122.29 440.799 LINE SMOOTH",
"1106.21 424.819 OFFCURVE",
"1084.95 415.967 OFFCURVE",
"1062.28 415.967 CURVE SMOOTH",
"1039.66 415.967 OFFCURVE",
"1018.35 424.819 OFFCURVE",
"1002.32 440.799 CURVE SMOOTH",
"986.297 456.83 OFFCURVE",
"977.492 478.096 OFFCURVE",
"977.492 500.762 CURVE SMOOTH",
"977.492 508.889 OFFCURVE",
"979.027 516.787 OFFCURVE",
"981.239 524.416 CURVE",
"978.305 505.049 OFFCURVE",
"984.128 484.598 OFFCURVE",
"998.982 469.695 CURVE SMOOTH",
"1024 444.776 OFFCURVE",
"1064.4 444.776 OFFCURVE",
"1089.37 469.695 CURVE SMOOTH",
"1704.81 1085.17 LINE",
"1878.49 1082.28 LINE",
"2160 1363.74 LINE",
"1983.38 1363.74 LINE"
);
}
);
width = 2400;
}
);
unicode = 2299;
},
{
glyphname = plus;
lastChange = "2012-08-23 12:55:25 +0100";
layers = (
{
layerId = "B666C820-39E7-4854-9B1A-8391CFDDE462";
name = Regular;
paths = (
{
closed = 1;
nodes = (
"1400 700 LINE",
"1400 1100 LINE",
"1100 1100 LINE",
"1100 700 LINE",
"700 700 LINE",
"700 400 LINE",
"1100 400 LINE",
"1100 0 LINE",
"1400 0 LINE",
"1400 400 LINE",
"1800 400 LINE",
"1800 700 LINE"
);
}
);
width = 2400;
}
);
unicode = 002B;
},
{
glyphname = tieOverInfinity;
lastChange = "2013-09-17 09:03:04 +0100";
layers = (
{
layerId = "B666C820-39E7-4854-9B1A-8391CFDDE462";
name = Regular;
paths = (
{
closed = 1;
nodes = (
"1915.88 667.153 LINE",
"1912.15 669.48 LINE SMOOTH",
"1908.12 672.048 OFFCURVE",
"1904.06 674.616 OFFCURVE",
"1899.94 677.061 CURVE SMOOTH",
"1670.93 819.032 LINE",
"1656.04 830.612 OFFCURVE",
"1639.92 840.701 OFFCURVE",
"1622.75 848.941 CURVE",
"1622.66 848.972 LINE",
"1622.66 848.941 LINE",
"1588.13 865.479 OFFCURVE",
"1549.53 874.731 OFFCURVE",
"1508.82 874.731 CURVE SMOOTH",
"1498.58 874.731 OFFCURVE",
"1488.52 874.076 OFFCURVE",
"1478.58 872.941 CURVE",
"1432.52 901.536 LINE",
"1426.7 906.043 OFFCURVE",
"1420.4 909.983 OFFCURVE",
"1413.68 913.179 CURVE",
"1413.68 913.21 LINE",
"1413.65 913.21 LINE",
"1400.19 919.685 OFFCURVE",
"1385.12 923.297 OFFCURVE",
"1369.18 923.297 CURVE SMOOTH",
"1312.19 923.297 OFFCURVE",
"1265.8 876.881 OFFCURVE",
"1265.8 819.897 CURVE SMOOTH",
"1265.8 815.747 OFFCURVE",
"1266.07 811.628 OFFCURVE",
"1266.55 807.568 CURVE",
"1266.55 807.568 LINE",
"1266.58 807.388 LINE",
"1266.82 805.479 OFFCURVE",
"1267.06 803.628 OFFCURVE",
"1267.39 801.776 CURVE SMOOTH",
"1269.33 788.524 LINE",
"1247.98 803.926 OFFCURVE",
"1221.39 813.15 OFFCURVE",
"1192.43 813.15 CURVE SMOOTH",
"1170.64 813.15 OFFCURVE",
"1150.11 807.957 OFFCURVE",
"1132.19 798.794 CURVE",
"1132.61 801.776 LINE",
"1132.94 803.628 OFFCURVE",
"1133.21 805.479 OFFCURVE",
"1133.45 807.388 CURVE",
"1133.48 807.568 LINE",
"1133.48 807.568 LINE",
"1133.93 811.628 OFFCURVE",
"1134.22 815.747 OFFCURVE",
"1134.22 819.897 CURVE SMOOTH",
"1134.22 876.881 OFFCURVE",
"1087.84 923.297 OFFCURVE",
"1030.82 923.297 CURVE SMOOTH",
"1014.91 923.297 OFFCURVE",
"999.839 919.685 OFFCURVE",
"986.346 913.21 CURVE",
"986.346 913.21 LINE",
"986.317 913.179 LINE",
"979.629 909.983 OFFCURVE",
"973.302 906.043 OFFCURVE",
"967.481 901.536 CURVE",
"921.453 872.941 LINE",
"911.511 874.076 OFFCURVE",
"901.452 874.731 OFFCURVE",
"891.214 874.731 CURVE SMOOTH",
"850.469 874.731 OFFCURVE",
"811.872 865.479 OFFCURVE",
"777.366 848.941 CURVE",
"777.335 848.972 LINE",
"777.275 848.941 LINE SMOOTH",
"760.111 840.701 OFFCURVE",
"743.992 830.612 OFFCURVE",
"729.098 819.032 CURVE",
"500.085 677.061 LINE SMOOTH",
"495.936 674.615 OFFCURVE",
"491.907 672.048 OFFCURVE",
"487.877 669.48 CURVE SMOOTH",
"484.146 667.153 LINE",
"484.146 667.094 LINE",
"373.371 594.316 OFFCURVE",
"300 469.006 OFFCURVE",
"300 326.831 CURVE SMOOTH",
"300 102.504 OFFCURVE",
"482.534 -80 OFFCURVE",
"706.888 -80 CURVE SMOOTH",
"901.662 -80 OFFCURVE",
"1064.82 57.5813 OFFCURVE",
"1104.49 240.651 CURVE",
"1104.34 239.755 LINE",
"1109.27 239.755 LINE",
"1106.31 249.548 LINE",
"1109.15 264.205 OFFCURVE",
"1111.15 279.159 OFFCURVE",
"1112.34 294.291 CURVE",
"1129.78 413.427 LINE",
"1149.33 406.56 OFFCURVE",
"1170.37 402.618 OFFCURVE",
"1192.43 402.618 CURVE SMOOTH",
"1220.01 402.618 OFFCURVE",
"1246.04 408.649 OFFCURVE",
"1269.39 419.156 CURVE",
"1287.69 294.291 LINE",
"1288.88 279.159 OFFCURVE",
"1290.88 264.205 OFFCURVE",
"1293.71 249.548 CURVE",
"1290.73 239.755 LINE",
"1295.66 239.755 LINE",
"1295.54 240.651 LINE",
"1335.18 57.5813 OFFCURVE",
"1498.34 -80 OFFCURVE",
"1693.14 -80 CURVE SMOOTH",
"1917.5 -80 OFFCURVE",
"2100 102.504 OFFCURVE",
"2100 326.831 CURVE SMOOTH",
"2100 469.006 OFFCURVE",
"2026.66 594.316 OFFCURVE",
"1915.88 667.094 CURVE"
);
},
{
closed = 1;
nodes = (
"531.846 9.91123 OFFCURVE",
"389.939 151.788 OFFCURVE",
"389.939 326.831 CURVE SMOOTH",
"389.939 501.901 OFFCURVE",
"531.846 643.81 OFFCURVE",
"706.888 643.81 CURVE SMOOTH",
"881.93 643.81 OFFCURVE",
"1023.84 501.901 OFFCURVE",
"1023.84 326.831 CURVE SMOOTH",
"1023.84 151.788 OFFCURVE",
"881.93 9.91123 OFFCURVE",
"706.888 9.91123 CURVE SMOOTH"
);
},
{
closed = 1;
nodes = (
"1143.54 453.037 OFFCURVE",
"1103.9 492.679 OFFCURVE",
"1103.9 541.604 CURVE SMOOTH",
"1103.9 590.496 OFFCURVE",
"1143.54 630.138 OFFCURVE",
"1192.43 630.138 CURVE SMOOTH",
"1241.36 630.138 OFFCURVE",
"1281 590.496 OFFCURVE",
"1281 541.604 CURVE SMOOTH",
"1281 492.679 OFFCURVE",
"1241.36 453.037 OFFCURVE",
"1192.43 453.037 CURVE SMOOTH"
);
},
{
closed = 1;
nodes = (
"1518.07 9.91123 OFFCURVE",
"1376.16 151.788 OFFCURVE",
"1376.16 326.831 CURVE SMOOTH",
"1376.16 501.901 OFFCURVE",
"1518.07 643.81 OFFCURVE",
"1693.14 643.81 CURVE SMOOTH",
"1868.15 643.81 OFFCURVE",
"2010.09 501.901 OFFCURVE",
"2010.09 326.831 CURVE SMOOTH",
"2010.09 151.789 OFFCURVE",
"1868.15 9.91123 OFFCURVE",
"1693.14 9.91123 CURVE SMOOTH"
);
}
);
width = 2400;
}
);
unicode = 29DD;
},
{
glyphname = arrowboth;
lastChange = "2012-11-28 11:01:11 +0100";
layers = (
{
layerId = "B666C820-39E7-4854-9B1A-8391CFDDE462";
name = Regular;
paths = (
{
closed = 1;
nodes = (
"1600 600 LINE",
"800 600 LINE",
"1200 1100 LINE"
);
},
{
closed = 1;
nodes = (
"1600 400 LINE",
"800 400 LINE",
"1200 -100 LINE"
);
}
);
width = 2400;
}
);
unicode = 2194;
},
{
glyphname = arrowupdn;
lastChange = "2013-07-29 12:44:13 +0100";
layers = (
{
layerId = "B666C820-39E7-4854-9B1A-8391CFDDE462";
name = Regular;
paths = (
{
closed = 1;
nodes = (
"1504.75 4.21989 LINE",
"1505.27 -2 OFFCURVE",
"1503.43 -8 OFFCURVE",
"1499.6 -13 CURVE SMOOTH",
"1241.08 -337 LINE SMOOTH",
"1236.52 -343 OFFCURVE",
"1229.61 -346 OFFCURVE",
"1222.29 -346 CURVE SMOOTH",
"1222.24 -346 OFFCURVE",
"1222.2 -346 OFFCURVE",
"1222.15 -346 CURVE SMOOTH",
"1214.79 -346 OFFCURVE",
"1207.84 -343 OFFCURVE",
"1203.32 -337 CURVE SMOOTH",
"950.812 -13 LINE SMOOTH",
"947.117 -8 OFFCURVE",
"945.352 -2 OFFCURVE",
"945.83 4.16312 CURVE",
"1123.01 1151.77 LINE",
"1124.02 1164.26 OFFCURVE",
"1134.45 1173.87 OFFCURVE",
"1146.97 1173.87 CURVE SMOOTH",
"1299.2 1173.87 LINE SMOOTH",
"1311.7 1173.87 OFFCURVE",
"1322.11 1164.28 OFFCURVE",
"1323.16 1151.83 CURVE"
);
},
{
closed = 1;
nodes = (
"1129.94 1236.95 OFFCURVE",
"1137.74 1232.62 OFFCURVE",
"1146.14 1232.62 CURVE SMOOTH",
"1299.92 1232.62 LINE SMOOTH",
"1308.08 1232.62 OFFCURVE",
"1315.71 1236.73 OFFCURVE",
"1320.2 1243.54 CURVE",
"1484.84 1521.99 LINE",
"1490.34 1530.31 OFFCURVE",
"1490.15 1541.16 OFFCURVE",
"1484.42 1549.32 CURVE",
"1242.08 1724.08 LINE",
"1237.52 1730.53 OFFCURVE",
"1230.13 1734.36 OFFCURVE",
"1222.24 1734.36 CURVE SMOOTH",
"1222.15 1734.36 OFFCURVE",
"1222.05 1734.36 OFFCURVE",
"1221.96 1734.36 CURVE SMOOTH",
"1213.96 1734.27 OFFCURVE",
"1206.54 1730.26 OFFCURVE",
"1202.09 1723.62 CURVE",
"971.882 1548.88 LINE",
"966.568 1540.96 OFFCURVE",
"966.366 1530.64 OFFCURVE",
"971.404 1522.54 CURVE",
"1125.51 1244.09 LINE"
);
},
{
closed = 1;
nodes = (
"690.012 683.75 OFFCURVE",
"690.784 677.737 OFFCURVE",
"693.56 672.554 CURVE SMOOTH",
"803.967 466.525 LINE SMOOTH",
"807.441 460.033 OFFCURVE",
"813.711 455.493 OFFCURVE",
"820.972 454.206 CURVE SMOOTH",
"822.94 453.857 OFFCURVE",
"824.945 453.766 OFFCURVE",
"826.893 453.911 CURVE SMOOTH",
"832.134 454.281 OFFCURVE",
"837.171 456.376 OFFCURVE",
"841.161 459.961 CURVE SMOOTH",
"910.879 522.232 LINE",
"910.879 522.232 OFFCURVE",
"1023.36 1147.84 OFFCURVE",
"1023.36 1147.91 CURVE",
"691.355 689.468 LINE"
);
}
);
width = 2400;
}
);
unicode = 2195;
},
{
glyphname = ballotboxcheck;
lastChange = "2013-07-29 12:33:09 +0100";
layers = (
{
layerId = "B666C820-39E7-4854-9B1A-8391CFDDE462";
name = Regular;
paths = (
{
closed = 1;
nodes = (
"563.687 1.61314 LINE SMOOTH",
"473.308 1.61314 OFFCURVE",
"400 74.9037 OFFCURVE",
"400 165.3 CURVE SMOOTH",
"400.383 1136.31 LINE SMOOTH",
"400.383 1226.71 OFFCURVE",
"473.66 1300 OFFCURVE",
"564.071 1300 CURVE SMOOTH",
"1030.1 1300 LINE SMOOTH",
"1120.48 1300 OFFCURVE",
"1193.79 1226.71 OFFCURVE",
"1193.79 1136.31 CURVE SMOOTH",
"1193.79 1079.81 LINE",
"1827.49 1079.81 LINE SMOOTH",
"1917.9 1079.81 OFFCURVE",
"1991.18 1006.51 OFFCURVE",
"1991.18 916.12 CURVE SMOOTH",
"1991.18 537.368 LINE",
"1982.67 531.101 OFFCURVE",
"1974.43 524.422 OFFCURVE",
"1966.75 516.909 CURVE SMOOTH",
"1719.47 273.28 LINE",
"1678.29 310.86 OFFCURVE",
"1624.98 331.561 OFFCURVE",
"1568.54 331.561 CURVE SMOOTH",
"1509.09 331.561 OFFCURVE",
"1453.1 308.591 OFFCURVE",
"1410.9 266.87 CURVE SMOOTH",
"1347.24 204.206 LINE SMOOTH",
"1304.44 162.086 OFFCURVE",
"1280.79 105.804 OFFCURVE",
"1280.76 45.7638 CURVE SMOOTH",
"1280.75 30.7538 OFFCURVE",
"1282.22 15.9839 OFFCURVE",
"1285.09 1.61314 CURVE"
);
},
{
closed = 1;
nodes = (
"2166.57 400.057 LINE SMOOTH",
"2143.04 423.203 OFFCURVE",
"2104.99 423.203 OFFCURVE",
"2081.4 400.057 CURVE SMOOTH",
"1719.63 43.6695 LINE",
"1611.13 150.449 LINE SMOOTH",
"1587.63 173.692 OFFCURVE",
"1549.49 173.692 OFFCURVE",
"1525.96 150.449 CURVE SMOOTH",
"1462.08 87.5642 LINE SMOOTH",
"1438.58 64.4337 OFFCURVE",
"1438.58 26.8856 OFFCURVE",
"1462.08 3.7074 CURVE SMOOTH",
"1609.17 -141 LINE",
"1612.98 -145 LINE",
"1676.82 -208 LINE SMOOTH",
"1700.32 -231 OFFCURVE",
"1738.53 -231 OFFCURVE",
"1762.05 -208 CURVE SMOOTH",
"2230.44 253.17 LINE SMOOTH",
"2253.97 276.331 OFFCURVE",
"2253.97 313.881 OFFCURVE",
"2230.44 337.043 CURVE SMOOTH"
);
}
);
width = 2400;
}
);
unicode = 2611;
},
{
glyphname = bellsymbol;
lastChange = "2013-07-29 12:41:12 +0100";
layers = (
{
layerId = "B666C820-39E7-4854-9B1A-8391CFDDE462";
name = Regular;
paths = (
{
closed = 1;
nodes = (
"1803.52 370.869 OFFCURVE",
"1777.27 558.66 OFFCURVE",
"1751.89 740.327 CURVE SMOOTH",
"1714.37 1009.53 OFFCURVE",
"1672.05 1312.14 OFFCURVE",
"1288.42 1352.52 CURVE",
"1288.53 1401.35 LINE SMOOTH",
"1288.63 1450.15 OFFCURVE",
"1248.98 1489.97 OFFCURVE",
"1200.17 1490.07 CURVE SMOOTH",
"1151.19 1490.18 OFFCURVE",
"1111.46 1450.54 OFFCURVE",
"1111.36 1401.74 CURVE SMOOTH",
"1111.25 1352.91 LINE",
"730.655 1313.87 OFFCURVE",
"687.318 1011.61 OFFCURVE",
"648.817 742.758 CURVE SMOOTH",
"622.955 561.023 OFFCURVE",
"596.092 373.334 OFFCURVE",
"474.609 246.651 CURVE SMOOTH",
"450.148 221.015 OFFCURVE",
"443.189 183.262 OFFCURVE",
"457.046 150.646 CURVE SMOOTH",
"470.868 118.046 OFFCURVE",
"502.949 95.362 OFFCURVE",
"538.39 95.2838 CURVE SMOOTH",
"1861.27 95.2838 LINE SMOOTH",
"1896.71 95.2063 OFFCURVE",
"1928.88 114.921 OFFCURVE",
"1942.78 147.563 CURVE SMOOTH",
"1956.85 180.189 OFFCURVE",
"1949.99 218.076 OFFCURVE",
"1925.36 243.644 CURVE SMOOTH"
);
},
{
closed = 1;
nodes = (
"1421.67 -78 LINE",
"1421.4 -201 OFFCURVE",
"1321.66 -300 OFFCURVE",
"1198.91 -300 CURVE SMOOTH",
"1076.15 -300 OFFCURVE",
"976.852 -200 OFFCURVE",
"977.122 -77 CURVE"
);
}
);
width = 2400;
}
);
unicode = 237E;
},
{
glyphname = blackdownTriangle;
lastChange = "2013-09-18 16:19:29 +0100";
layers = (
{
layerId = "B666C820-39E7-4854-9B1A-8391CFDDE462";
name = Regular;
paths = (
{
closed = 1;
nodes = (
"632 677 OFFCURVE",
"643 706 OFFCURVE",
"665 728 CURVE SMOOTH",
"709 771 OFFCURVE",
"781 771 OFFCURVE",
"825 728 CURVE SMOOTH",
"1195 357 LINE",
"1565 728 LINE SMOOTH",
"1609 771 OFFCURVE",
"1681 771 OFFCURVE",
"1725 728 CURVE SMOOTH",
"1768 684 OFFCURVE",
"1768 612 OFFCURVE",
"1725 568 CURVE SMOOTH",
"1275 118 LINE SMOOTH",
"1231 75 OFFCURVE",
"1159 75 OFFCURVE",
"1115 118 CURVE SMOOTH",
"665 568 LINE SMOOTH",
"643 590 OFFCURVE",
"632 619 OFFCURVE",
"632 648 CURVE SMOOTH"
);
}
);
width = 2400;
}
);
unicode = 25BE;
},
{
glyphname = blackuppointingsmalltriangle;
lastChange = "2013-08-23 09:19:36 +0100";
layers = (
{
layerId = "B666C820-39E7-4854-9B1A-8391CFDDE462";
name = Regular;
paths = (
{
closed = 1;
nodes = (
"1768 169 OFFCURVE",
"1757 140 OFFCURVE",
"1735 118 CURVE SMOOTH",
"1691 75 OFFCURVE",
"1619 75 OFFCURVE",
"1575 118 CURVE SMOOTH",
"1205 489 LINE",
"835 118 LINE SMOOTH",
"791 75 OFFCURVE",
"719 75 OFFCURVE",
"675 118 CURVE SMOOTH",
"632 162 OFFCURVE",
"632 234 OFFCURVE",
"675 278 CURVE SMOOTH",
"1125 728 LINE SMOOTH",
"1169 771 OFFCURVE",
"1241 771 OFFCURVE",
"1285 728 CURVE SMOOTH",
"1735 278 LINE SMOOTH",
"1757 256 OFFCURVE",
"1768 227 OFFCURVE",
"1768 198 CURVE SMOOTH"
);
}
);
width = 2400;
}
);
unicode = 25B4;
},
{
glyphname = previouspage;
lastChange = "2013-07-29 13:15:19 +0100";
layers = (
{
layerId = "B666C820-39E7-4854-9B1A-8391CFDDE462";
name = Regular;
paths = (
{
closed = 1;
nodes = (
"1798.19 290.02 LINE SMOOTH",
"1801.87 290.02 OFFCURVE",
"1805.41 288.573 OFFCURVE",
"1808.03 285.967 CURVE SMOOTH",
"1973.87 120.113 LINE SMOOTH",
"1976.46 117.507 OFFCURVE",
"1977.94 113.951 OFFCURVE",
"1977.94 110.277 CURVE SMOOTH",
"1977.94 -13 LINE SMOOTH",
"1977.94 -18 OFFCURVE",
"1974.46 -24 OFFCURVE",
"1969.19 -26 CURVE",
"1484.29 -249 LINE",
"1479.4 -251 OFFCURVE",
"1473.78 -250 OFFCURVE",
"1469.86 -246 CURVE",
"1469.86 -246 OFFCURVE",
"1469.62 -246 OFFCURVE",
"1469.53 -246 CURVE",
"1467.75 -244 OFFCURVE",
"1466.46 -242 OFFCURVE",
"1465.73 -240 CURVE",
"1745.77 40.0936 LINE",
"1746.45 39.8831 OFFCURVE",
"1747.1 39.6119 OFFCURVE",
"1747.73 39.3251 CURVE SMOOTH",
"1765.01 30.8437 OFFCURVE",
"1785.69 34.2788 OFFCURVE",
"1799.28 47.8354 CURVE SMOOTH",
"1816.78 65.3403 OFFCURVE",
"1816.78 93.8422 OFFCURVE",
"1799.28 111.376 CURVE SMOOTH",
"1781.76 128.881 OFFCURVE",
"1753.24 128.881 OFFCURVE",
"1735.72 111.392 CURVE SMOOTH",
"1722.18 97.8179 OFFCURVE",
"1718.73 77.12 OFFCURVE",
"1727.2 59.8414 CURVE SMOOTH",
"1727.51 59.2096 OFFCURVE",
"1727.76 58.5612 OFFCURVE",
"1727.95 57.8838 CURVE",
"1447.87 -222 LINE",
"1445.35 -221 OFFCURVE",
"1443.08 -220 OFFCURVE",
"1441.36 -218 CURVE",
"1441.33 -218 OFFCURVE",
"1441.12 -218 OFFCURVE",
"1441.12 -218 CURVE",
"1437.83 -214 OFFCURVE",
"1436.97 -208 OFFCURVE",
"1438.86 -204 CURVE",
"1662.24 281.267 LINE",
"1664.35 286.6 OFFCURVE",
"1669.47 290.02 OFFCURVE",
"1675.18 290.02 CURVE SMOOTH"
);
},
{
closed = 1;
nodes = (
"1990.48 137.212 LINE SMOOTH",
"1995.91 131.803 OFFCURVE",
"2004.74 131.757 OFFCURVE",
"2010.14 137.212 CURVE SMOOTH",
"2092.17 219.204 LINE SMOOTH",
"2097.59 224.628 OFFCURVE",
"2097.59 233.454 OFFCURVE",
"2092.17 238.862 CURVE SMOOTH",
"1926.78 404.249 LINE SMOOTH",
"1921.34 409.688 OFFCURVE",
"1912.56 409.688 OFFCURVE",
"1907.09 404.249 CURVE SMOOTH",
"1825.11 322.256 LINE SMOOTH",
"1819.68 316.833 OFFCURVE",
"1819.68 308.035 OFFCURVE",
"1825.11 302.567 CURVE SMOOTH"
);
},
{
closed = 1;
nodes = (
"854.254 1550 LINE SMOOTH",
"769.068 1550 OFFCURVE",
"700 1480.94 OFFCURVE",
"700 1395.75 CURVE SMOOTH",
"700 143.475 LINE SMOOTH",
"700 58.2886 OFFCURVE",
"769.068 -11 OFFCURVE",
"854.254 -11 CURVE SMOOTH",
"1356.16 -11 LINE",
"1356.53 -10 OFFCURVE",
"1356.78 -9 OFFCURVE",
"1357.18 -8 CURVE SMOOTH",
"1358.45 -4 LINE",
"1359.88 -1 LINE",
"1534.3 377.191 LINE SMOOTH",
"1555.79 425.989 OFFCURVE",
"1603.49 457.245 OFFCURVE",
"1657.18 457.245 CURVE SMOOTH",
"1698.33 457.245 LINE",
"1750.23 509.174 LINE",
"1750.23 1395.75 LINE SMOOTH",
"1750.23 1480.94 OFFCURVE",
"1681.16 1550 OFFCURVE",
"1595.97 1550 CURVE SMOOTH"
);
},
{
closed = 1;
nodes = (
"930.811 244.934 LINE SMOOTH",
"898.169 244.934 OFFCURVE",
"871.698 271.399 OFFCURVE",
"871.698 304.047 CURVE SMOOTH",
"871.698 336.7 OFFCURVE",
"898.169 363.171 OFFCURVE",
"930.811 363.171 CURVE SMOOTH",
"1204.36 363.171 LINE SMOOTH",
"1237 363.171 OFFCURVE",
"1263.47 336.7 OFFCURVE",
"1263.47 304.047 CURVE SMOOTH",
"1263.47 271.399 OFFCURVE",
"1237 244.934 OFFCURVE",
"1204.36 244.934 CURVE SMOOTH"
);
},
{
closed = 1;
nodes = (
"930.811 536.542 LINE SMOOTH",
"898.169 536.542 OFFCURVE",
"871.698 563.007 OFFCURVE",
"871.698 595.654 CURVE SMOOTH",
"871.698 628.308 OFFCURVE",
"898.169 654.779 OFFCURVE",
"930.811 654.779 CURVE SMOOTH",
"1528.31 654.779 LINE SMOOTH",
"1560.95 654.779 OFFCURVE",
"1587.42 628.308 OFFCURVE",
"1587.42 595.654 CURVE SMOOTH",
"1587.42 563.007 OFFCURVE",
"1560.95 536.542 OFFCURVE",
"1528.31 536.542 CURVE SMOOTH"
);
},
{
closed = 1;
nodes = (
"930.811 856.5 LINE SMOOTH",
"898.169 856.5 OFFCURVE",
"871.698 882.965 OFFCURVE",
"871.698 915.613 CURVE SMOOTH",
"871.698 948.267 OFFCURVE",
"898.169 974.737 OFFCURVE",
"930.811 974.737 CURVE SMOOTH",
"1528.31 974.737 LINE SMOOTH",
"1560.95 974.737 OFFCURVE",
"1587.42 948.267 OFFCURVE",
"1587.42 915.613 CURVE SMOOTH",
"1587.42 882.965 OFFCURVE",
"1560.95 856.5 OFFCURVE",
"1528.31 856.5 CURVE SMOOTH"
);
},
{
closed = 1;
nodes = (
"930.811 1169.98 LINE SMOOTH",
"898.169 1169.98 OFFCURVE",
"871.698 1196.45 OFFCURVE",
"871.698 1229.09 CURVE SMOOTH",
"871.698 1261.75 OFFCURVE",
"898.169 1288.22 OFFCURVE",
"930.811 1288.22 CURVE SMOOTH",
"1528.31 1288.22 LINE SMOOTH",
"1560.95 1288.22 OFFCURVE",
"1587.42 1261.75 OFFCURVE",
"1587.42 1229.09 CURVE SMOOTH",
"1587.42 1196.45 OFFCURVE",
"1560.95 1169.98 OFFCURVE",
"1528.31 1169.98 CURVE SMOOTH"
);
}
);
width = 2400;
}
);
unicode = 2397;
},
{
glyphname = printscreensymbol;
lastChange = "2013-07-29 10:57:13 +0100";
layers = (
{
layerId = "B666C820-39E7-4854-9B1A-8391CFDDE462";
name = Regular;
paths = (
{
closed = 1;
nodes = (
"1701.14 709.102 LINE",
"1701.33 1095.79 LINE",
"1364.7 1432.27 LINE",
"723.982 1432.59 LINE",
"723.624 709.585 LINE",
"439.914 709.726 LINE SMOOTH",
"390.436 709.75 OFFCURVE",
"350.296 669.665 OFFCURVE",
"350.272 620.18 CURVE SMOOTH",
"350 71.0824 LINE SMOOTH",
"349.976 21.6073 OFFCURVE",
"390.076 -19 OFFCURVE",
"439.553 -19 CURVE SMOOTH",
"723.263 -19 LINE",
"723.131 -288 LINE",
"1700.65 -288 LINE",
"1700.78 -19 LINE",
"1960.09 -19 LINE SMOOTH",
"2009.6 -19 OFFCURVE",
"2049.7 20.7659 OFFCURVE",
"2049.73 70.2418 CURVE SMOOTH",
"2050 619.339 LINE SMOOTH",
"2050.02 668.824 OFFCURVE",
"2009.96 708.949 OFFCURVE",
"1960.45 708.974 CURVE SMOOTH"
);
},
{
closed = 1;
nodes = (
"1586.88 1115.46 LINE",
"1384.18 1115.56 LINE",
"1384.28 1317.97 LINE"
);
},
{
closed = 1;
nodes = (
"1317.3 1365.3 LINE",
"1317.14 1048.6 LINE",
"1634.31 1048.44 LINE",
"1634.14 709.135 LINE",
"790.591 709.552 LINE",
"790.915 1365.56 LINE"
);
},
{
closed = 1;
nodes = (
"790.131 -221 LINE",
"790.231 -19 LINE",
"790.316 152.816 LINE",
"1633.87 152.399 LINE",
"1633.78 -19 LINE",
"1633.68 -221 LINE"
);
},
{
closed = 1;
nodes = (
"1986.43 568.894 OFFCURVE",
"1969.3 551.793 OFFCURVE",
"1948.2 551.803 CURVE SMOOTH",
"1780.72 551.886 LINE SMOOTH",
"1759.62 551.896 OFFCURVE",
"1742.54 569.014 OFFCURVE",
"1742.55 590.129 CURVE SMOOTH",
"1742.55 595.097 LINE SMOOTH",
"1742.56 613.086 OFFCURVE",
"1755.41 633.331 OFFCURVE",
"1780.76 633.318 CURVE SMOOTH",
"1800.39 633.308 OFFCURVE",
"1948.24 633.235 OFFCURVE",
"1948.24 633.235 CURVE",
"1969.34 633.225 OFFCURVE",
"1986.46 616.1 OFFCURVE",
"1986.45 594.977 CURVE SMOOTH",
"1986.44 590.009 LINE SMOOTH"
);
}
);
width = 2400;
}
);
unicode = 2399;
},
{
glyphname = rightarrowwithcircle;
lastChange = "2013-09-17 09:12:16 +0100";
layers = (
{
layerId = "B666C820-39E7-4854-9B1A-8391CFDDE462";
name = Regular;
paths = (
{
closed = 1;
nodes = (
"663 -240 OFFCURVE",
"768 -135 OFFCURVE",
"768 -6 CURVE SMOOTH",
"768 -5 OFFCURVE",
"768 -3 OFFCURVE",
"768 -2 CURVE",
"1227 189 LINE",
"1269 142 OFFCURVE",
"1331 112 OFFCURVE",
"1400 112 CURVE SMOOTH",
"1529 112 OFFCURVE",
"1634 217 OFFCURVE",
"1634 346 CURVE SMOOTH",
"1634 402 OFFCURVE",
"1614 453 OFFCURVE",
"1581 494 CURVE",
"1829 891 LINE",
"1841 890 OFFCURVE",
"1853 888 OFFCURVE",
"1866 888 CURVE SMOOTH",
"1995 888 OFFCURVE",
"2100 993 OFFCURVE",
"2100 1122 CURVE SMOOTH",
"2100 1252 OFFCURVE",
"1995 1357 OFFCURVE",
"1866 1357 CURVE SMOOTH",
"1737 1357 OFFCURVE",
"1632 1252 OFFCURVE",
"1632 1122 CURVE SMOOTH",
"1632 1059 OFFCURVE",
"1657 1002 OFFCURVE",
"1698 960 CURVE",
"1457 573 LINE",
"1439 578 OFFCURVE",
"1420 581 OFFCURVE",
"1400 581 CURVE SMOOTH",
"1271 581 OFFCURVE",
"1165 475 OFFCURVE",
"1165 346 CURVE SMOOTH",
"1165 339 OFFCURVE",
"1166 331 OFFCURVE",
"1167 324 CURVE",
"719 137 LINE",
"676 193 OFFCURVE",
"609 228 OFFCURVE",
"534 228 CURVE SMOOTH",
"405 228 OFFCURVE",
"300 123 OFFCURVE",
"300 -6 CURVE SMOOTH",
"300 -135 OFFCURVE",
"405 -240 OFFCURVE",
"534 -240 CURVE SMOOTH"
);
}
);
width = 2400;
}
);
unicode = 21F4;
},
{
glyphname = squaredKey;
lastChange = "2013-09-17 13:40:12 +0100";
layers = (
{
layerId = "B666C820-39E7-4854-9B1A-8391CFDDE462";
name = Regular;
paths = (
{
closed = 1;
nodes = (
"1565.85 846.771 OFFCURVE",
"1426.82 757.875 OFFCURVE",
"1354.93 626.819 CURVE",
"420.366 625.433 LINE SMOOTH",
"413.564 625.385 OFFCURVE",
"406.798 623.469 OFFCURVE",
"401.129 619.684 CURVE SMOOTH",
"265.932 531.243 LINE SMOOTH",
"257.668 525.788 OFFCURVE",
"252.036 517.132 OFFCURVE",
"250.455 507.345 CURVE SMOOTH",
"248.869 497.562 OFFCURVE",
"251.467 487.52 OFFCURVE",
"257.686 479.731 CURVE SMOOTH",
"393.16 309.391 LINE SMOOTH",
"399.97 300.935 OFFCURVE",
"410.079 296.083 OFFCURVE",
"420.869 296.092 CURVE SMOOTH",
"491.5 296.147 LINE SMOOTH",
"504.595 296.228 OFFCURVE",
"516.664 303.507 OFFCURVE",
"522.703 315.139 CURVE SMOOTH",
"580.311 425.603 LINE",
"666.449 269.623 LINE SMOOTH",
"672.69 258.332 OFFCURVE",
"684.513 251.357 OFFCURVE",
"697.379 251.391 CURVE SMOOTH",
"750.322 251.497 LINE SMOOTH",
"760.31 251.474 OFFCURVE",
"769.806 255.719 OFFCURVE",
"776.485 263.096 CURVE SMOOTH",
"877.586 375.185 LINE",
"1134.18 375.552 LINE",
"1189.3 265.761 LINE SMOOTH",
"1195.32 253.772 OFFCURVE",
"1207.5 246.229 OFFCURVE",
"1220.87 246.271 CURVE SMOOTH",
"1341.65 246.41 LINE",
"1408.8 100.715 OFFCURVE",
"1556.21 0 OFFCURVE",
"1727.09 0 CURVE SMOOTH",
"1960.99 0.369722 OFFCURVE",
"2150.37 190.221 OFFCURVE",
"2150 424.121 CURVE SMOOTH",
"2149.63 658.021 OFFCURVE",
"1959.75 847.338 OFFCURVE",
"1725.85 846.969 CURVE SMOOTH"
);
},
{
closed = 1;
nodes = (
"1882.95 260.536 OFFCURVE",
"1844.13 333.492 OFFCURVE",
"1844.02 423.643 CURVE SMOOTH",
"1843.81 513.756 OFFCURVE",
"1882.46 586.875 OFFCURVE",
"1930.11 586.964 CURVE SMOOTH",
"1977.83 587.033 OFFCURVE",
"2016.68 513.989 OFFCURVE",
"2016.82 423.899 CURVE SMOOTH",
"2016.89 333.775 OFFCURVE",
"1978.33 260.693 OFFCURVE",
"1930.58 260.566 CURVE SMOOTH"
);
}
);
width = 2400;
}
);
unicode = 26BF;
},
{
glyphname = watch;
lastChange = "2013-08-12 13:58:22 +0100";
layers = (
{
layerId = "B666C820-39E7-4854-9B1A-8391CFDDE462";
name = Regular;
paths = (
{
closed = 1;
nodes = (
"983.259 1399.99 OFFCURVE",
"780.391 1314.79 OFFCURVE",
"628.747 1160.08 CURVE SMOOTH",
"481.164 1009.73 OFFCURVE",
"400 810.803 OFFCURVE",
"400 600.051 CURVE SMOOTH",
"400 158.862 OFFCURVE",
"758.862 -200 OFFCURVE",
"1199.99 -200 CURVE SMOOTH",
"1641.13 -200 OFFCURVE",
"2000 158.862 OFFCURVE",
"2000 600.051 CURVE SMOOTH",
"2000 1041.15 OFFCURVE",
"1641.13 1399.99 OFFCURVE",
"1199.99 1399.99 CURVE SMOOTH"
);
},
{
closed = 1;
nodes = (
"855.839 -24 OFFCURVE",
"575.85 255.836 OFFCURVE",
"575.85 600.051 CURVE SMOOTH",
"575.85 764.464 OFFCURVE",
"639.159 919.643 OFFCURVE",
"754.281 1036.98 CURVE SMOOTH",
"872.611 1157.65 OFFCURVE",
"1030.89 1224.14 OFFCURVE",
"1199.99 1224.14 CURVE SMOOTH",
"1544.15 1224.14 OFFCURVE",
"1824.14 944.177 OFFCURVE",
"1824.14 600.051 CURVE SMOOTH",
"1824.14 255.836 OFFCURVE",
"1544.15 -24 OFFCURVE",
"1199.99 -24 CURVE SMOOTH"
);
},
{
closed = 1;
nodes = (
"1287.92 600.051 LINE SMOOTH",
"1287.92 599.674 OFFCURVE",
"1287.82 599.312 OFFCURVE",
"1287.82 598.935 CURVE SMOOTH",
"1287.75 595.64 OFFCURVE",
"1287.23 592.32 OFFCURVE",
"1286.84 589.086 CURVE SMOOTH",
"1286.49 586.568 OFFCURVE",
"1286.43 583.974 OFFCURVE",
"1285.92 581.532 CURVE SMOOTH",
"1285.4 579.275 OFFCURVE",
"1284.49 577.12 OFFCURVE",
"1283.86 574.927 CURVE SMOOTH",
"1282.89 571.632 OFFCURVE",
"1282.03 568.398 OFFCURVE",
"1280.72 565.278 CURVE SMOOTH",
"1280.02 563.676 OFFCURVE",
"1279 562.247 OFFCURVE",
"1278.2 560.58 CURVE SMOOTH",
"1276.48 557.197 OFFCURVE",
"1274.76 553.688 OFFCURVE",
"1272.58 550.443 CURVE SMOOTH",
"1271.49 548.839 OFFCURVE",
"1270.01 547.435 OFFCURVE",
"1268.81 545.944 CURVE SMOOTH",
"1266.51 542.974 OFFCURVE",
"1264.28 540.03 OFFCURVE",
"1261.65 537.386 CURVE SMOOTH",
"1260.33 536.145 OFFCURVE",
"1258.78 535.168 OFFCURVE",
"1257.42 533.94 CURVE SMOOTH",
"1254.38 531.296 OFFCURVE",
"1251.35 528.715 OFFCURVE",
"1247.96 526.497 CURVE",
"1247.74 526.284 OFFCURVE",
"1247.51 526.121 OFFCURVE",
"1247.29 525.921 CURVE",
"946.623 334.04 LINE SMOOTH",
"931.974 324.642 OFFCURVE",
"915.606 320.181 OFFCURVE",
"899.398 320.181 CURVE SMOOTH",
"870.382 320.181 OFFCURVE",
"841.982 334.541 OFFCURVE",
"825.21 360.793 CURVE SMOOTH",
"799.101 401.693 OFFCURVE",
"811.125 456.138 OFFCURVE",
"852.06 482.214 CURVE SMOOTH",
"1112.06 648.231 LINE",
"1112.06 1022.07 LINE SMOOTH",
"1112.06 1070.6 OFFCURVE",
"1151.45 1109.99 OFFCURVE",
"1199.99 1109.99 CURVE SMOOTH",
"1248.54 1109.99 OFFCURVE",
"1287.92 1070.6 OFFCURVE",
"1287.92 1022.07 CURVE SMOOTH"
);
}
);
width = 2400;
}
);
unicode = 231A;
},
{
glyphname = whiteCircleWithUpperRightQuadrant;
lastChange = "2013-09-17 09:10:51 +0100";
layers = (
{
layerId = "B666C820-39E7-4854-9B1A-8391CFDDE462";
name = Regular;
paths = (
{
closed = 1;
nodes = (
"1156 1391 LINE",
"722 1391 OFFCURVE",
"370 1040 OFFCURVE",
"370 606 CURVE SMOOTH",
"370 172 OFFCURVE",
"722 -180 OFFCURVE",
"1156 -180 CURVE SMOOTH",
"1579 -180 OFFCURVE",
"1924 154 OFFCURVE",
"1941 573 CURVE",
"1156 573 LINE"
);
},
{
closed = 1;
nodes = (
"2070 713 OFFCURVE",
"2070 723 OFFCURVE",
"2070 734 CURVE SMOOTH",
"2070 1168 OFFCURVE",
"1718 1520 OFFCURVE",
"1284 1520 CURVE",
"1284 702 LINE",
"2069 702 LINE"
);
}
);
width = 2400;
}
);
unicode = 25F7;
},
{
glyphname = whiteStarCircled;
lastChange = "2013-09-17 09:17:09 +0100";
layers = (
{
layerId = "B666C820-39E7-4854-9B1A-8391CFDDE462";
name = Regular;
paths = (
{
closed = 1;
nodes = (
"300 717 OFFCURVE",
"422 647 OFFCURVE",
"486 620 CURVE SMOOTH",
"509 610 OFFCURVE",
"524 626 OFFCURVE",
"524 652 CURVE SMOOTH",
"524 678 OFFCURVE",
"524 1010 OFFCURVE",
"524 1030 CURVE SMOOTH",
"524 1050 OFFCURVE",
"510 1067 OFFCURVE",
"489 1061 CURVE SMOOTH",
"426 1041 OFFCURVE",
"300 985 OFFCURVE",
"300 850 CURVE SMOOTH"
);
},
{
closed = 1;
nodes = (
"624 488 OFFCURVE",
"775 476 OFFCURVE",
"905 431 CURVE",
"905 431 OFFCURVE",
"1046 -95 OFFCURVE",
"1055 -123 CURVE SMOOTH",
"1064 -152 OFFCURVE",
"1067 -190 OFFCURVE",
"1023 -190 CURVE SMOOTH",
"980 -190 OFFCURVE",
"905 -187 OFFCURVE",
"854 -176 CURVE SMOOTH",
"802 -165 OFFCURVE",
"783 -97 OFFCURVE",
"783 -97 CURVE",
"624 488 LINE"
);
},
{
closed = 1;
nodes = (
"642 570 OFFCURVE",
"1262 503 OFFCURVE",
"1878 162 CURVE SMOOTH",
"1886 157 OFFCURVE",
"1896 157 OFFCURVE",
"1904 161 CURVE SMOOTH",
"1912 165 OFFCURVE",
"1917 173 OFFCURVE",
"1917 181 CURVE SMOOTH",
"1917 1498 LINE SMOOTH",
"1917 1506 OFFCURVE",
"1912 1514 OFFCURVE",
"1904 1518 CURVE SMOOTH",
"1900 1520 OFFCURVE",
"1896 1521 OFFCURVE",
"1892 1521 CURVE SMOOTH",
"1887 1521 OFFCURVE",
"1882 1520 OFFCURVE",
"1878 1517 CURVE SMOOTH",
"1262 1176 OFFCURVE",
"642 1109 OFFCURVE",
"635 1108 CURVE SMOOTH",
"621 1107 OFFCURVE",
"611 1097 OFFCURVE",
"611 1086 CURVE SMOOTH",
"611 593 LINE SMOOTH",
"611 582 OFFCURVE",
"621 572 OFFCURVE",
"635 571 CURVE SMOOTH"
);
},
{
closed = 1;
nodes = (
"2100 649 OFFCURVE",
"2087 636 OFFCURVE",
"2072 636 CURVE SMOOTH",
"2034 636 LINE SMOOTH",
"2019 636 OFFCURVE",
"2006 649 OFFCURVE",
"2006 664 CURVE SMOOTH",
"2006 1015 LINE SMOOTH",
"2006 1030 OFFCURVE",
"2019 1043 OFFCURVE",
"2034 1043 CURVE SMOOTH",
"2072 1043 LINE SMOOTH",
"2087 1043 OFFCURVE",
"2100 1030 OFFCURVE",
"2100 1015 CURVE SMOOTH",
"2100 664 LINE SMOOTH"
);
}
);
width = 2400;
}
);
unicode = 272A;
},
{
glyphname = whiterightTriangle;
lastChange = "2013-09-17 09:14:23 +0100";
layers = (
{
layerId = "B666C820-39E7-4854-9B1A-8391CFDDE462";
name = Regular;
paths = (
{
closed = 1;
nodes = (
"531 1560 LINE SMOOTH",
"403 1560 OFFCURVE",
"300 1457 OFFCURVE",
"300 1329 CURVE SMOOTH",
"300 -9 LINE SMOOTH",
"300 -137 OFFCURVE",
"403 -240 OFFCURVE",
"531 -240 CURVE SMOOTH",
"1869 -240 LINE SMOOTH",
"1997 -240 OFFCURVE",
"2100 -137 OFFCURVE",
"2100 -9 CURVE SMOOTH",
"2100 1329 LINE SMOOTH",
"2100 1457 OFFCURVE",
"1997 1560 OFFCURVE",
"1869 1560 CURVE SMOOTH"
);
},
{
closed = 1;
nodes = (
"956 227 LINE SMOOTH",
"947 221 OFFCURVE",
"937 218 OFFCURVE",
"926 218 CURVE SMOOTH",
"916 218 OFFCURVE",
"906 221 OFFCURVE",
"897 226 CURVE SMOOTH",
"878 237 OFFCURVE",
"867 257 OFFCURVE",
"867 278 CURVE SMOOTH",
"867 1042 LINE SMOOTH",
"867 1063 OFFCURVE",
"878 1083 OFFCURVE",
"897 1094 CURVE SMOOTH",
"915 1104 OFFCURVE",
"938 1104 OFFCURVE",
"956 1093 CURVE SMOOTH",
"1607 711 LINE SMOOTH",
"1625 700 OFFCURVE",
"1636 681 OFFCURVE",
"1636 660 CURVE SMOOTH",
"1636 639 OFFCURVE",
"1625 620 OFFCURVE",
"1607 609 CURVE SMOOTH"
);
}
);
width = 2400;
}
);
unicode = 25B7;
},
{
glyphname = unif021;
lastChange = "2013-04-22 12:32:32 +0100";
layers = (
{
layerId = "B666C820-39E7-4854-9B1A-8391CFDDE462";
name = Regular;
paths = (
{
closed = 1;
nodes = (
"465.137 1400 LINE SMOOTH",
"439.16 1400 OFFCURVE",
"418.066 1378.91 OFFCURVE",
"418.066 1352.93 CURVE SMOOTH",
"418.066 -103 LINE SMOOTH",
"418.066 -129 OFFCURVE",
"439.16 -150 OFFCURVE",
"465.137 -150 CURVE SMOOTH",
"1971 -150 LINE SMOOTH",
"1996.97 -150 OFFCURVE",
"2018.07 -129 OFFCURVE",
"2018.07 -103 CURVE SMOOTH",
"2018.07 1352.93 LINE SMOOTH",
"2018 1379 OFFCURVE",
"1996.97 1400 OFFCURVE",
"1971 1400 CURVE SMOOTH"
);
},
{
closed = 1;
nodes = (
"1909.96 -31 OFFCURVE",
"1888.87 -52 OFFCURVE",
"1862.89 -52 CURVE SMOOTH",
"573.144 -52 LINE SMOOTH",
"547.266 -52 OFFCURVE",
"526.172 -31 OFFCURVE",
"526.172 -5 CURVE SMOOTH",
"526.172 903.418 LINE SMOOTH",
"526.172 929.394 OFFCURVE",
"547.266 950.488 OFFCURVE",
"573.144 950.488 CURVE SMOOTH",
"1862.89 950.488 LINE SMOOTH",
"1888.87 950.488 OFFCURVE",
"1909.96 929.394 OFFCURVE",
"1909.96 903.418 CURVE SMOOTH",
"1909.96 -5 LINE SMOOTH"
);
},
{
closed = 1;
nodes = (
"1346.39 66.6992 LINE SMOOTH",
"1346.39 52.832 OFFCURVE",
"1335.16 41.6016 OFFCURVE",
"1321.29 41.6016 CURVE SMOOTH",
"1183.79 41.6016 LINE SMOOTH",
"1169.92 41.6016 OFFCURVE",
"1158.69 52.832 OFFCURVE",
"1158.69 66.6992 CURVE SMOOTH",
"1158.69 531.543 LINE",
"1115.62 499.512 OFFCURVE",
"1067.09 474.609 OFFCURVE",
"1013.96 457.031 CURVE SMOOTH",
"1006.25 454.59 OFFCURVE",
"997.852 455.762 OFFCURVE",
"991.406 460.449 CURVE SMOOTH",
"984.863 465.234 OFFCURVE",
"980.957 472.754 OFFCURVE",
"980.957 480.762 CURVE SMOOTH",
"980.957 605.664 LINE SMOOTH",
"980.957 616.406 OFFCURVE",
"987.988 626.074 OFFCURVE",
"998.242 629.492 CURVE SMOOTH",
"1031.35 640.332 OFFCURVE",
"1068.16 661.426 OFFCURVE",
"1107.62 692.188 CURVE SMOOTH",
"1145.8 721.875 OFFCURVE",
"1172.17 756.738 OFFCURVE",
"1186.13 795.703 CURVE SMOOTH",
"1189.65 805.664 OFFCURVE",
"1199.12 812.305 OFFCURVE",
"1209.67 812.305 CURVE SMOOTH",
"1321.29 812.305 LINE SMOOTH",
"1335.16 812.305 OFFCURVE",
"1346.39 801.074 OFFCURVE",
"1346.39 787.207 CURVE SMOOTH"
);
}
);
width = 2400;
}
);
unicode = F021;
},
{
glyphname = unif022;
lastChange = "2013-02-26 14:40:01 +0100";
layers = (
{
layerId = "B666C820-39E7-4854-9B1A-8391CFDDE462";
name = Regular;
paths = (
{
closed = 1;
nodes = (
"447.07 1400 LINE SMOOTH",
"421.094 1400 OFFCURVE",
"400 1378.91 OFFCURVE",
"400 1352.93 CURVE SMOOTH",
"400 -103 LINE SMOOTH",
"400 -129 OFFCURVE",
"421.094 -150 OFFCURVE",
"447.07 -150 CURVE SMOOTH",
"1952.93 -150 LINE SMOOTH",
"1978.91 -150 OFFCURVE",
"2000 -129 OFFCURVE",
"2000 -103 CURVE SMOOTH",
"2000 1352.93 LINE SMOOTH",
"2000 1378.91 OFFCURVE",
"1978.91 1400 OFFCURVE",
"1952.93 1400 CURVE SMOOTH"
);
},
{
closed = 1;
nodes = (
"1891.89 -31 OFFCURVE",
"1870.8 -52 OFFCURVE",
"1844.82 -52 CURVE SMOOTH",
"555.078 -52 LINE SMOOTH",
"529.199 -52 OFFCURVE",
"508.105 -31 OFFCURVE",
"508.105 -5 CURVE SMOOTH",
"508.105 903.516 LINE SMOOTH",
"508.105 929.492 OFFCURVE",
"529.199 950.586 OFFCURVE",
"555.078 950.586 CURVE SMOOTH",
"1844.82 950.586 LINE SMOOTH",
"1870.8 950.586 OFFCURVE",
"1891.89 929.492 OFFCURVE",
"1891.89 903.516 CURVE SMOOTH",
"1891.89 -5 LINE SMOOTH"
);
},
{
closed = 1;
nodes = (
"1415.82 66.9922 LINE",
"933.691 66.9922 LINE",
"938.867 115.234 OFFCURVE",
"954.59 161.035 OFFCURVE",
"980.664 204.199 CURVE SMOOTH",
"1006.74 247.461 OFFCURVE",
"1058.3 304.785 OFFCURVE",
"1135.35 376.27 CURVE SMOOTH",
"1197.36 433.984 OFFCURVE",
"1235.35 473.145 OFFCURVE",
"1249.41 493.75 CURVE SMOOTH",
"1268.36 522.07 OFFCURVE",
"1277.73 550.098 OFFCURVE",
"1277.73 577.93 CURVE SMOOTH",
"1277.73 608.496 OFFCURVE",
"1269.53 632.129 OFFCURVE",
"1253.03 648.535 CURVE SMOOTH",
"1236.52 665.137 OFFCURVE",
"1213.77 673.34 OFFCURVE",
"1184.77 673.34 CURVE SMOOTH",
"1156.05 673.34 OFFCURVE",
"1133.2 664.648 OFFCURVE",
"1116.21 647.363 CURVE SMOOTH",
"1099.22 630.078 OFFCURVE",
"1089.45 601.367 OFFCURVE",
"1086.91 561.231 CURVE",
"949.805 575 LINE",
"958.008 650.586 OFFCURVE",
"983.594 704.981 OFFCURVE",
"1026.66 737.891 CURVE SMOOTH",
"1069.73 770.801 OFFCURVE",
"1123.63 787.402 OFFCURVE",
"1188.18 787.402 CURVE SMOOTH",
"1259.08 787.402 OFFCURVE",
"1314.65 768.262 OFFCURVE",
"1355.08 730.078 CURVE SMOOTH",
"1395.61 691.894 OFFCURVE",
"1415.82 644.434 OFFCURVE",
"1415.82 587.695 CURVE SMOOTH",
"1415.82 555.371 OFFCURVE",
"1410.06 524.609 OFFCURVE",
"1398.44 495.41 CURVE SMOOTH",
"1386.82 466.211 OFFCURVE",
"1368.46 435.547 OFFCURVE",
"1343.36 403.711 CURVE SMOOTH",
"1326.76 382.422 OFFCURVE",
"1296.68 351.855 OFFCURVE",
"1253.32 312.109 CURVE SMOOTH",
"1209.86 272.266 OFFCURVE",
"1182.42 245.898 OFFCURVE",
"1170.8 232.91 CURVE SMOOTH",
"1159.18 219.727 OFFCURVE",
"1149.9 207.031 OFFCURVE",
"1142.68 194.727 CURVE",
"1415.82 194.727 LINE"
);
},
{
closed = 1;
nodes = (
"933.691 41.8945 LINE SMOOTH",
"926.562 41.8945 OFFCURVE",
"919.727 44.9219 OFFCURVE",
"915.039 50.1953 CURVE SMOOTH",
"910.254 55.4688 OFFCURVE",
"908.008 62.5977 OFFCURVE",
"908.789 69.6289 CURVE SMOOTH",
"914.356 121.387 OFFCURVE",
"931.348 171.094 OFFCURVE",
"959.18 217.188 CURVE SMOOTH",
"986.719 262.793 OFFCURVE",
"1038.77 320.801 OFFCURVE",
"1118.26 394.629 CURVE SMOOTH",
"1193.36 464.453 OFFCURVE",
"1219.82 494.824 OFFCURVE",
"1228.71 507.812 CURVE SMOOTH",
"1244.82 532.031 OFFCURVE",
"1252.73 554.981 OFFCURVE",
"1252.73 577.93 CURVE SMOOTH",
"1252.73 601.856 OFFCURVE",
"1247.07 619.238 OFFCURVE",
"1235.35 630.762 CURVE SMOOTH",
"1223.63 642.578 OFFCURVE",
"1207.13 648.242 OFFCURVE",
"1184.77 648.242 CURVE SMOOTH",
"1162.99 648.242 OFFCURVE",
"1146.39 642.285 OFFCURVE",
"1134.08 629.785 CURVE SMOOTH",
"1121.68 617.188 OFFCURVE",
"1114.06 592.871 OFFCURVE",
"1111.91 559.668 CURVE SMOOTH",
"1111.43 552.832 OFFCURVE",
"1108.3 546.484 OFFCURVE",
"1103.12 542.09 CURVE SMOOTH",
"1097.85 537.793 OFFCURVE",
"1091.11 535.742 OFFCURVE",
"1084.38 536.328 CURVE SMOOTH",
"947.363 550 LINE SMOOTH",
"940.625 550.684 OFFCURVE",
"934.57 554.004 OFFCURVE",
"930.371 559.18 CURVE SMOOTH",
"926.074 564.356 OFFCURVE",
"924.121 570.996 OFFCURVE",
"924.902 577.637 CURVE SMOOTH",
"933.789 660.059 OFFCURVE",
"962.891 720.703 OFFCURVE",
"1011.43 757.812 CURVE SMOOTH",
"1058.89 794.043 OFFCURVE",
"1118.36 812.402 OFFCURVE",
"1188.18 812.402 CURVE SMOOTH",
"1265.33 812.402 OFFCURVE",
"1327.25 790.82 OFFCURVE",
"1372.27 748.34 CURVE SMOOTH",
"1417.87 705.469 OFFCURVE",
"1440.92 651.367 OFFCURVE",
"1440.92 587.695 CURVE SMOOTH",
"1440.92 552.344 OFFCURVE",
"1434.47 518.164 OFFCURVE",
"1421.78 486.133 CURVE SMOOTH",
"1409.28 454.688 OFFCURVE",
"1389.45 421.777 OFFCURVE",
"1363.09 388.184 CURVE SMOOTH",
"1345.31 365.527 OFFCURVE",
"1314.94 334.57 OFFCURVE",
"1270.21 293.652 CURVE SMOOTH",
"1223.63 250.879 OFFCURVE",
"1202.44 229.98 OFFCURVE",
"1192.77 219.727 CURVE",
"1415.82 219.727 LINE SMOOTH",
"1429.69 219.727 OFFCURVE",
"1440.92 208.496 OFFCURVE",
"1440.92 194.727 CURVE SMOOTH",
"1440.92 66.9922 LINE SMOOTH",
"1440.92 53.125 OFFCURVE",
"1429.69 41.8945 OFFCURVE",
"1415.82 41.8945 CURVE SMOOTH"
);
},
{
closed = 1;
nodes = (
"1390.72 91.9922 LINE",
"1390.72 169.629 LINE",
"1142.68 169.629 LINE SMOOTH",
"1133.69 169.629 OFFCURVE",
"1125.39 174.414 OFFCURVE",
"1120.9 182.227 CURVE SMOOTH",
"1116.5 190.039 OFFCURVE",
"1116.5 199.609 OFFCURVE",
"1121 207.324 CURVE SMOOTH",
"1129.1 221.094 OFFCURVE",
"1139.45 235.352 OFFCURVE",
"1152.05 249.414 CURVE SMOOTH",
"1164.55 263.477 OFFCURVE",
"1192.09 289.941 OFFCURVE",
"1236.33 330.566 CURVE SMOOTH",
"1278.42 369.141 OFFCURVE",
"1307.81 398.828 OFFCURVE",
"1323.63 419.141 CURVE SMOOTH",
"1347.17 448.926 OFFCURVE",
"1364.45 477.734 OFFCURVE",
"1375.1 504.59 CURVE SMOOTH",
"1385.55 530.762 OFFCURVE",
"1390.72 558.691 OFFCURVE",
"1390.72 587.695 CURVE SMOOTH",
"1390.72 637.793 OFFCURVE",
"1373.44 678.418 OFFCURVE",
"1337.99 711.914 CURVE SMOOTH",
"1301.95 745.801 OFFCURVE",
"1252.93 762.305 OFFCURVE",
"1188.18 762.305 CURVE SMOOTH",
"1129.59 762.305 OFFCURVE",
"1080.37 747.461 OFFCURVE",
"1041.89 717.969 CURVE SMOOTH",
"1009.47 693.164 OFFCURVE",
"988.086 652.637 OFFCURVE",
"978.223 597.266 CURVE",
"1064.65 588.672 LINE",
"1069.92 622.168 OFFCURVE",
"1080.96 647.266 OFFCURVE",
"1098.34 664.941 CURVE SMOOTH",
"1120.21 687.109 OFFCURVE",
"1149.32 698.34 OFFCURVE",
"1184.77 698.34 CURVE SMOOTH",
"1220.61 698.34 OFFCURVE",
"1249.51 687.598 OFFCURVE",
"1270.8 666.309 CURVE SMOOTH",
"1291.99 645.117 OFFCURVE",
"1302.83 615.332 OFFCURVE",
"1302.83 577.93 CURVE SMOOTH",
"1302.83 545.215 OFFCURVE",
"1291.89 512.207 OFFCURVE",
"1270.21 479.785 CURVE SMOOTH",
"1254.79 457.227 OFFCURVE",
"1216.31 417.383 OFFCURVE",
"1152.44 357.91 CURVE SMOOTH",
"1077.34 288.281 OFFCURVE",
"1026.86 232.227 OFFCURVE",
"1002.05 191.309 CURVE SMOOTH",
"983.106 159.766 OFFCURVE",
"970.019 126.562 OFFCURVE",
"962.891 91.9922 CURVE"
);
}
);
width = 2400;
}
);
unicode = F022;
},
{
glyphname = unif023;
lastChange = "2013-02-26 14:40:41 +0100";
layers = (
{
layerId = "B666C820-39E7-4854-9B1A-8391CFDDE462";
name = Regular;
paths = (
{
closed = 1;
nodes = (
"447.07 1400 LINE SMOOTH",
"421.094 1400 OFFCURVE",
"400 1378.91 OFFCURVE",
"400 1352.93 CURVE SMOOTH",
"400 -103 LINE SMOOTH",
"400 -129 OFFCURVE",
"421.094 -150 OFFCURVE",
"447.07 -150 CURVE SMOOTH",
"1952.93 -150 LINE SMOOTH",
"1978.91 -150 OFFCURVE",
"2000 -129 OFFCURVE",
"2000 -103 CURVE SMOOTH",
"2000 1352.93 LINE SMOOTH",
"2000 1378.91 OFFCURVE",
"1978.91 1400 OFFCURVE",
"1952.93 1400 CURVE SMOOTH"
);
},
{
closed = 1;
nodes = (
"1891.89 -31 OFFCURVE",
"1870.8 -52 OFFCURVE",
"1844.82 -52 CURVE SMOOTH",
"555.078 -52 LINE SMOOTH",
"529.199 -52 OFFCURVE",
"508.105 -31 OFFCURVE",
"508.105 -5 CURVE SMOOTH",
"508.105 903.516 LINE SMOOTH",
"508.105 929.492 OFFCURVE",
"529.199 950.586 OFFCURVE",
"555.078 950.586 CURVE SMOOTH",
"1844.82 950.586 LINE SMOOTH",
"1870.8 950.586 OFFCURVE",
"1891.89 929.492 OFFCURVE",
"1891.89 903.516 CURVE SMOOTH",
"1891.89 -5 LINE SMOOTH"
);
},
{
closed = 1;
nodes = (
"1079.49 273.438 LINE",
"1083.79 239.551 OFFCURVE",
"1095.21 213.574 OFFCURVE",
"1113.77 195.703 CURVE SMOOTH",
"1132.42 177.637 OFFCURVE",
"1154.88 168.75 OFFCURVE",
"1181.35 168.75 CURVE SMOOTH",
"1209.77 168.75 OFFCURVE",
"1233.59 179.492 OFFCURVE",
"1253.03 201.074 CURVE SMOOTH",
"1272.46 222.559 OFFCURVE",
"1282.23 251.562 OFFCURVE",
"1282.23 288.184 CURVE SMOOTH",
"1282.23 322.754 OFFCURVE",
"1272.85 350.098 OFFCURVE",
"1254.3 370.41 CURVE SMOOTH",
"1235.64 390.527 OFFCURVE",
"1212.99 400.684 OFFCURVE",
"1186.23 400.684 CURVE SMOOTH",
"1168.65 400.684 OFFCURVE",
"1147.56 397.266 OFFCURVE",
"1123.14 390.43 CURVE",
"1138.28 502.539 LINE",
"1175.49 501.562 OFFCURVE",
"1203.91 509.57 OFFCURVE",
"1223.44 526.66 CURVE SMOOTH",
"1243.07 543.848 OFFCURVE",
"1252.83 566.602 OFFCURVE",
"1252.83 595.019 CURVE SMOOTH",
"1252.83 619.141 OFFCURVE",
"1245.61 638.379 OFFCURVE",
"1231.25 652.734 CURVE SMOOTH",
"1216.89 667.09 OFFCURVE",
"1197.85 674.316 OFFCURVE",
"1174.02 674.316 CURVE SMOOTH",
"1150.49 674.316 OFFCURVE",
"1130.47 666.113 OFFCURVE",
"1113.77 649.805 CURVE SMOOTH",
"1097.17 633.496 OFFCURVE",
"1087.01 609.668 OFFCURVE",
"1083.5 578.418 CURVE",
"956.641 599.902 LINE",
"965.43 643.262 OFFCURVE",
"978.809 677.93 OFFCURVE",
"996.582 703.906 CURVE SMOOTH",
"1014.36 729.785 OFFCURVE",
"1039.16 750.293 OFFCURVE",
"1071 765.039 CURVE SMOOTH",
"1102.83 779.883 OFFCURVE",
"1138.38 787.402 OFFCURVE",
"1177.93 787.402 CURVE SMOOTH",
"1245.51 787.402 OFFCURVE",
"1299.71 765.82 OFFCURVE",
"1340.43 722.754 CURVE SMOOTH",
"1374.02 687.5 OFFCURVE",
"1390.82 647.656 OFFCURVE",
"1390.82 603.32 CURVE SMOOTH",
"1390.82 540.332 OFFCURVE",
"1356.45 490.137 OFFCURVE",
"1287.6 452.637 CURVE",
"1328.71 443.75 OFFCURVE",
"1361.62 424.023 OFFCURVE",
"1386.23 393.359 CURVE SMOOTH",
"1410.84 362.695 OFFCURVE",
"1423.14 325.684 OFFCURVE",
"1423.14 282.324 CURVE SMOOTH",
"1423.14 219.238 OFFCURVE",
"1400.2 165.625 OFFCURVE",
"1354.1 121.289 CURVE SMOOTH",
"1308.11 76.8555 OFFCURVE",
"1250.88 54.6875 OFFCURVE",
"1182.32 54.6875 CURVE SMOOTH",
"1117.38 54.6875 OFFCURVE",
"1063.57 73.4375 OFFCURVE",
"1020.8 110.742 CURVE SMOOTH",
"978.027 148.145 OFFCURVE",
"953.223 196.973 OFFCURVE",
"946.387 257.324 CURVE"
);
},
{
closed = 1;
nodes = (
"1111.52 29.6875 OFFCURVE",
"1051.56 50.5859 OFFCURVE",
"1004.3 91.7969 CURVE SMOOTH",
"956.836 133.301 OFFCURVE",
"929.004 187.988 OFFCURVE",
"921.484 254.492 CURVE SMOOTH",
"919.922 268.164 OFFCURVE",
"929.688 280.566 OFFCURVE",
"943.359 282.227 CURVE SMOOTH",
"1076.46 298.34 LINE",
"1089.84 300.488 OFFCURVE",
"1102.73 290.332 OFFCURVE",
"1104.39 276.66 CURVE SMOOTH",
"1107.91 248.633 OFFCURVE",
"1116.89 227.441 OFFCURVE",
"1131.15 213.77 CURVE SMOOTH",
"1159.67 186.133 OFFCURVE",
"1206.15 186.426 OFFCURVE",
"1234.47 217.871 CURVE SMOOTH",
"1249.71 234.766 OFFCURVE",
"1257.13 257.715 OFFCURVE",
"1257.13 288.184 CURVE SMOOTH",
"1257.13 316.406 OFFCURVE",
"1250.2 337.793 OFFCURVE",
"1235.84 353.418 CURVE SMOOTH",
"1211.33 379.98 OFFCURVE",
"1180.57 380.469 OFFCURVE",
"1129.88 366.309 CURVE SMOOTH",
"1121.78 364.062 OFFCURVE",
"1112.99 366.016 OFFCURVE",
"1106.64 371.582 CURVE SMOOTH",
"1100.29 377.051 OFFCURVE",
"1097.17 385.449 OFFCURVE",
"1098.24 393.848 CURVE SMOOTH",
"1113.48 505.859 LINE SMOOTH",
"1115.14 518.555 OFFCURVE",
"1126.17 527.344 OFFCURVE",
"1138.87 527.539 CURVE SMOOTH",
"1144.24 527.441 LINE SMOOTH",
"1172.17 527.441 OFFCURVE",
"1193.26 533.594 OFFCURVE",
"1206.93 545.508 CURVE SMOOTH",
"1221 557.812 OFFCURVE",
"1227.73 574.023 OFFCURVE",
"1227.73 595.019 CURVE SMOOTH",
"1227.73 612.402 OFFCURVE",
"1223.14 625.488 OFFCURVE",
"1213.48 635.059 CURVE SMOOTH",
"1194.53 654.004 OFFCURVE",
"1155.37 655.371 OFFCURVE",
"1131.35 631.934 CURVE SMOOTH",
"1118.95 619.824 OFFCURVE",
"1111.23 600.781 OFFCURVE",
"1108.4 575.586 CURVE SMOOTH",
"1107.62 568.652 OFFCURVE",
"1104 562.5 OFFCURVE",
"1098.54 558.398 CURVE SMOOTH",
"1092.97 554.199 OFFCURVE",
"1085.94 552.539 OFFCURVE",
"1079.2 553.711 CURVE SMOOTH",
"952.441 575.195 LINE SMOOTH",
"945.801 576.367 OFFCURVE",
"939.844 580.176 OFFCURVE",
"936.035 585.742 CURVE SMOOTH",
"932.129 591.309 OFFCURVE",
"930.762 598.242 OFFCURVE",
"932.129 604.883 CURVE SMOOTH",
"941.504 651.367 OFFCURVE",
"956.25 689.356 OFFCURVE",
"975.879 717.969 CURVE SMOOTH",
"996.191 747.656 OFFCURVE",
"1024.71 771.191 OFFCURVE",
"1060.35 787.793 CURVE SMOOTH",
"1095.31 804.102 OFFCURVE",
"1134.96 812.402 OFFCURVE",
"1177.93 812.402 CURVE SMOOTH",
"1252.34 812.402 OFFCURVE",
"1313.09 788.086 OFFCURVE",
"1358.69 739.941 CURVE SMOOTH",
"1396.68 700.195 OFFCURVE",
"1415.92 654.199 OFFCURVE",
"1415.92 603.32 CURVE SMOOTH",
"1415.92 546.094 OFFCURVE",
"1391.6 497.949 OFFCURVE",
"1343.55 459.473 CURVE",
"1367.77 447.363 OFFCURVE",
"1388.57 430.469 OFFCURVE",
"1405.76 409.082 CURVE SMOOTH",
"1433.89 373.926 OFFCURVE",
"1448.24 331.25 OFFCURVE",
"1448.24 282.324 CURVE SMOOTH",
"1448.24 212.5 OFFCURVE",
"1422.46 152.246 OFFCURVE",
"1371.48 103.223 CURVE SMOOTH",
"1321 54.3945 OFFCURVE",
"1257.32 29.6875 OFFCURVE",
"1182.32 29.6875 CURVE SMOOTH"
);
},
{
closed = 1;
nodes = (
"984.57 192.676 OFFCURVE",
"1005.08 157.812 OFFCURVE",
"1037.3 129.59 CURVE SMOOTH",
"1075.68 96.0938 OFFCURVE",
"1123.14 79.7852 OFFCURVE",
"1182.32 79.7852 CURVE SMOOTH",
"1244.73 79.7852 OFFCURVE",
"1295.21 99.2188 OFFCURVE",
"1336.72 139.258 CURVE SMOOTH",
"1378.03 179.102 OFFCURVE",
"1398.14 225.879 OFFCURVE",
"1398.14 282.324 CURVE SMOOTH",
"1398.14 320.117 OFFCURVE",
"1387.79 351.27 OFFCURVE",
"1366.6 377.734 CURVE SMOOTH",
"1345.51 404.004 OFFCURVE",
"1317.97 420.41 OFFCURVE",
"1282.32 428.125 CURVE SMOOTH",
"1272.07 430.273 OFFCURVE",
"1264.26 438.672 OFFCURVE",
"1262.79 449.023 CURVE SMOOTH",
"1261.33 459.375 OFFCURVE",
"1266.41 469.629 OFFCURVE",
"1275.59 474.609 CURVE SMOOTH",
"1336.23 507.617 OFFCURVE",
"1365.82 549.707 OFFCURVE",
"1365.82 603.32 CURVE SMOOTH",
"1365.82 641.406 OFFCURVE",
"1351.56 674.805 OFFCURVE",
"1322.36 705.469 CURVE SMOOTH",
"1286.04 743.75 OFFCURVE",
"1238.87 762.305 OFFCURVE",
"1177.93 762.305 CURVE SMOOTH",
"1142.38 762.305 OFFCURVE",
"1109.86 755.566 OFFCURVE",
"1081.54 742.383 CURVE SMOOTH",
"1054 729.59 OFFCURVE",
"1032.42 711.816 OFFCURVE",
"1017.19 689.746 CURVE SMOOTH",
"1004.98 671.68 OFFCURVE",
"994.824 648.438 OFFCURVE",
"987.207 620.117 CURVE",
"1063.18 607.227 LINE",
"1069.53 632.031 OFFCURVE",
"1080.57 652.344 OFFCURVE",
"1096.19 667.676 CURVE SMOOTH",
"1139.65 710.059 OFFCURVE",
"1210.94 708.496 OFFCURVE",
"1248.93 670.508 CURVE SMOOTH",
"1268.16 651.269 OFFCURVE",
"1277.83 625.879 OFFCURVE",
"1277.83 595.019 CURVE SMOOTH",
"1277.83 559.18 OFFCURVE",
"1265.14 529.883 OFFCURVE",
"1239.94 507.812 CURVE SMOOTH",
"1220.02 490.43 OFFCURVE",
"1193.16 480.371 OFFCURVE",
"1160.25 477.93 CURVE",
"1152.73 422.852 LINE",
"1204.1 431.25 OFFCURVE",
"1241.99 420.605 OFFCURVE",
"1272.66 387.402 CURVE SMOOTH",
"1295.61 362.402 OFFCURVE",
"1307.23 329.004 OFFCURVE",
"1307.23 288.184 CURVE SMOOTH",
"1307.23 245.41 OFFCURVE",
"1295.21 210.449 OFFCURVE",
"1271.68 184.277 CURVE SMOOTH",
"1247.36 157.324 OFFCURVE",
"1216.99 143.652 OFFCURVE",
"1181.35 143.652 CURVE SMOOTH",
"1148.24 143.652 OFFCURVE",
"1119.63 155.176 OFFCURVE",
"1096.39 177.637 CURVE SMOOTH",
"1078.61 194.824 OFFCURVE",
"1066.11 217.676 OFFCURVE",
"1059.18 245.801 CURVE",
"975.293 235.645 LINE"
);
}
);
width = 2400;
}
);
unicode = F023;
},
{
glyphname = unif024;
lastChange = "2013-02-26 14:41:09 +0100";
layers = (
{
layerId = "B666C820-39E7-4854-9B1A-8391CFDDE462";
name = Regular;
paths = (
{
closed = 1;
nodes = (
"447.07 1400 LINE SMOOTH",
"421.094 1400 OFFCURVE",
"400 1378.91 OFFCURVE",
"400 1352.93 CURVE SMOOTH",
"400 -103 LINE SMOOTH",
"400 -129 OFFCURVE",
"421.094 -150 OFFCURVE",
"447.07 -150 CURVE SMOOTH",
"1952.93 -150 LINE SMOOTH",
"1978.91 -150 OFFCURVE",
"2000 -129 OFFCURVE",
"2000 -103 CURVE SMOOTH",
"2000 1352.93 LINE SMOOTH",
"2000 1378.91 OFFCURVE",
"1978.91 1400 OFFCURVE",
"1952.93 1400 CURVE SMOOTH"
);
},
{
closed = 1;
nodes = (
"1891.89 -31 OFFCURVE",
"1870.8 -52 OFFCURVE",
"1844.82 -52 CURVE SMOOTH",
"555.078 -52 LINE SMOOTH",
"529.199 -52 OFFCURVE",
"508.105 -31 OFFCURVE",
"508.105 -5 CURVE SMOOTH",
"508.105 903.516 LINE SMOOTH",
"508.105 929.492 OFFCURVE",
"529.199 950.586 OFFCURVE",
"555.078 950.586 CURVE SMOOTH",
"1844.82 950.586 LINE SMOOTH",
"1870.8 950.586 OFFCURVE",
"1891.89 929.492 OFFCURVE",
"1891.89 903.516 CURVE SMOOTH",
"1891.89 -5 LINE SMOOTH"
);
},
{
closed = 1;
nodes = (
"1221 211.328 LINE",
"927.344 211.328 LINE",
"927.344 331.738 LINE",
"1238.57 787.402 LINE",
"1354.1 787.402 LINE",
"1354.1 332.227 LINE",
"1443.26 332.227 LINE",
"1443.26 211.328 LINE",
"1354.1 211.328 LINE",
"1354.1 66.9922 LINE",
"1221 66.9922 LINE"
);
},
{
closed = 1;
nodes = (
"1221 577.441 LINE",
"1056.05 332.227 LINE",
"1221 332.227 LINE"
);
},
{
closed = 1;
nodes = (
"1221 41.8945 LINE SMOOTH",
"1207.13 41.8945 OFFCURVE",
"1195.9 53.125 OFFCURVE",
"1195.9 66.9922 CURVE SMOOTH",
"1195.9 186.23 LINE",
"927.344 186.23 LINE SMOOTH",
"913.477 186.23 OFFCURVE",
"902.246 197.461 OFFCURVE",
"902.246 211.328 CURVE SMOOTH",
"902.246 331.738 LINE SMOOTH",
"902.246 336.719 OFFCURVE",
"903.711 341.699 OFFCURVE",
"906.543 345.898 CURVE SMOOTH",
"1217.87 801.465 LINE SMOOTH",
"1222.66 808.301 OFFCURVE",
"1230.37 812.402 OFFCURVE",
"1238.57 812.402 CURVE SMOOTH",
"1354.1 812.402 LINE SMOOTH",
"1367.97 812.402 OFFCURVE",
"1379.2 801.172 OFFCURVE",
"1379.2 787.402 CURVE SMOOTH",
"1379.2 357.227 LINE",
"1443.26 357.227 LINE SMOOTH",
"1457.13 357.227 OFFCURVE",
"1468.26 346.094 OFFCURVE",
"1468.26 332.227 CURVE SMOOTH",
"1468.26 211.328 LINE SMOOTH",
"1468.26 197.461 OFFCURVE",
"1457.13 186.23 OFFCURVE",
"1443.26 186.23 CURVE SMOOTH",
"1379.2 186.23 LINE",
"1379.2 66.9922 LINE SMOOTH",
"1379.2 53.125 OFFCURVE",
"1367.97 41.8945 OFFCURVE",
"1354.1 41.8945 CURVE SMOOTH"
);
},
{
closed = 1;
nodes = (
"1329.1 91.9922 LINE",
"1329.1 211.328 LINE SMOOTH",
"1329.1 225.195 OFFCURVE",
"1340.33 236.426 OFFCURVE",
"1354.1 236.426 CURVE SMOOTH",
"1418.16 236.426 LINE",
"1418.16 307.129 LINE",
"1354.1 307.129 LINE SMOOTH",
"1340.33 307.129 OFFCURVE",
"1329.1 318.359 OFFCURVE",
"1329.1 332.227 CURVE SMOOTH",
"1329.1 762.305 LINE",
"1251.86 762.305 LINE",
"952.344 324.023 LINE",
"952.344 236.426 LINE",
"1221 236.426 LINE SMOOTH",
"1234.86 236.426 OFFCURVE",
"1246.09 225.195 OFFCURVE",
"1246.09 211.328 CURVE SMOOTH",
"1246.09 91.9922 LINE"
);
},
{
closed = 1;
nodes = (
"1056.05 307.129 LINE SMOOTH",
"1046.78 307.129 OFFCURVE",
"1038.28 312.207 OFFCURVE",
"1033.89 320.41 CURVE SMOOTH",
"1029.59 328.613 OFFCURVE",
"1030.08 338.574 OFFCURVE",
"1035.25 346.191 CURVE SMOOTH",
"1200.2 591.406 LINE SMOOTH",
"1206.35 600.586 OFFCURVE",
"1217.77 604.59 OFFCURVE",
"1228.32 601.367 CURVE SMOOTH",
"1238.87 598.144 OFFCURVE",
"1246.09 588.379 OFFCURVE",
"1246.09 577.441 CURVE SMOOTH",
"1246.09 332.227 LINE SMOOTH",
"1246.09 318.359 OFFCURVE",
"1234.86 307.129 OFFCURVE",
"1221 307.129 CURVE SMOOTH"
);
},
{
closed = 1;
nodes = (
"1195.9 357.227 LINE",
"1195.9 495.215 LINE",
"1103.12 357.227 LINE"
);
}
);
width = 2400;
}
);
unicode = F024;
},
{
glyphname = unif025;
lastChange = "2013-02-26 14:41:34 +0100";
layers = (
{
layerId = "B666C820-39E7-4854-9B1A-8391CFDDE462";
name = Regular;
paths = (
{
closed = 1;
nodes = (
"447.07 1400 LINE SMOOTH",
"421.094 1400 OFFCURVE",
"400 1378.91 OFFCURVE",
"400 1352.93 CURVE SMOOTH",
"400 -103 LINE SMOOTH",
"400 -129 OFFCURVE",
"421.094 -150 OFFCURVE",
"447.07 -150 CURVE SMOOTH",
"1952.93 -150 LINE SMOOTH",
"1978.91 -150 OFFCURVE",
"2000 -129 OFFCURVE",
"2000 -103 CURVE SMOOTH",
"2000 1352.93 LINE SMOOTH",
"2000 1378.91 OFFCURVE",
"1978.91 1400 OFFCURVE",
"1952.93 1400 CURVE SMOOTH"
);
},
{
closed = 1;
nodes = (
"1891.89 -31 OFFCURVE",
"1870.8 -52 OFFCURVE",
"1844.82 -52 CURVE SMOOTH",
"555.078 -52 LINE SMOOTH",
"529.199 -52 OFFCURVE",
"508.105 -31 OFFCURVE",
"508.105 -5 CURVE SMOOTH",
"508.105 903.516 LINE SMOOTH",
"508.105 929.492 OFFCURVE",
"529.199 950.586 OFFCURVE",
"555.078 950.586 CURVE SMOOTH",
"1844.82 950.586 LINE SMOOTH",
"1870.8 950.586 OFFCURVE",
"1891.89 929.492 OFFCURVE",
"1891.89 903.516 CURVE SMOOTH",
"1891.89 -5 LINE SMOOTH"
);
},
{
closed = 1;
nodes = (
"1090.33 265.625 LINE",
"1094.24 234.668 OFFCURVE",
"1105.86 210.059 OFFCURVE",
"1125.1 191.992 CURVE SMOOTH",
"1144.34 173.828 OFFCURVE",
"1166.5 164.844 OFFCURVE",
"1191.6 164.844 CURVE SMOOTH",
"1220.41 164.844 OFFCURVE",
"1244.63 176.465 OFFCURVE",
"1264.55 199.805 CURVE SMOOTH",
"1284.47 223.145 OFFCURVE",
"1294.43 258.301 OFFCURVE",
"1294.43 305.273 CURVE SMOOTH",
"1294.43 349.316 OFFCURVE",
"1284.57 382.324 OFFCURVE",
"1264.84 404.395 CURVE SMOOTH",
"1245.12 426.367 OFFCURVE",
"1219.34 437.402 OFFCURVE",
"1187.7 437.402 CURVE SMOOTH",
"1148.24 437.402 OFFCURVE",
"1112.79 419.922 OFFCURVE",
"1081.45 385.059 CURVE",
"969.922 401.172 LINE",
"1040.33 774.609 LINE",
"1404.1 774.609 LINE",
"1404.1 645.898 LINE",
"1144.63 645.898 LINE",
"1123.14 524.023 LINE",
"1153.81 539.356 OFFCURVE",
"1185.16 547.07 OFFCURVE",
"1217.09 547.07 CURVE SMOOTH",
"1278.12 547.07 OFFCURVE",
"1329.79 524.805 OFFCURVE",
"1372.27 480.469 CURVE SMOOTH",
"1414.75 436.035 OFFCURVE",
"1435.94 378.516 OFFCURVE",
"1435.94 307.715 CURVE SMOOTH",
"1435.94 248.633 OFFCURVE",
"1418.75 195.996 OFFCURVE",
"1384.47 149.707 CURVE SMOOTH",
"1337.89 86.3281 OFFCURVE",
"1273.05 54.6875 OFFCURVE",
"1190.14 54.6875 CURVE SMOOTH",
"1123.93 54.6875 OFFCURVE",
"1069.92 72.4609 OFFCURVE",
"1028.12 108.105 CURVE SMOOTH",
"986.426 143.555 OFFCURVE",
"961.426 191.406 OFFCURVE",
"953.223 251.465 CURVE"
);
},
{
closed = 1;
nodes = (
"1117.97 29.6875 OFFCURVE",
"1058.01 49.6094 OFFCURVE",
"1011.91 89.0625 CURVE SMOOTH",
"965.43 128.516 OFFCURVE",
"937.402 182.031 OFFCURVE",
"928.418 248.047 CURVE SMOOTH",
"927.539 254.785 OFFCURVE",
"929.394 261.621 OFFCURVE",
"933.496 266.895 CURVE SMOOTH",
"937.695 272.266 OFFCURVE",
"943.848 275.684 OFFCURVE",
"950.684 276.367 CURVE SMOOTH",
"1087.7 290.527 LINE SMOOTH",
"1100.98 292.09 OFFCURVE",
"1113.48 282.324 OFFCURVE",
"1115.14 268.75 CURVE SMOOTH",
"1118.36 243.457 OFFCURVE",
"1127.25 224.316 OFFCURVE",
"1142.29 210.156 CURVE SMOOTH",
"1173.34 180.957 OFFCURVE",
"1216.89 182.617 OFFCURVE",
"1245.51 216.113 CURVE SMOOTH",
"1261.33 234.668 OFFCURVE",
"1269.34 264.648 OFFCURVE",
"1269.34 305.273 CURVE SMOOTH",
"1269.34 342.773 OFFCURVE",
"1261.52 370.41 OFFCURVE",
"1246.19 387.598 CURVE SMOOTH",
"1231.25 404.297 OFFCURVE",
"1212.11 412.402 OFFCURVE",
"1187.7 412.402 CURVE SMOOTH",
"1155.47 412.402 OFFCURVE",
"1126.76 397.949 OFFCURVE",
"1100.1 368.359 CURVE SMOOTH",
"1094.53 362.109 OFFCURVE",
"1086.23 359.18 OFFCURVE",
"1077.93 360.254 CURVE SMOOTH",
"966.309 376.367 LINE SMOOTH",
"959.57 377.344 OFFCURVE",
"953.516 381.152 OFFCURVE",
"949.512 386.621 CURVE SMOOTH",
"945.508 392.188 OFFCURVE",
"943.945 399.121 OFFCURVE",
"945.215 405.859 CURVE SMOOTH",
"1015.72 779.297 LINE SMOOTH",
"1017.97 791.113 OFFCURVE",
"1028.32 799.707 OFFCURVE",
"1040.33 799.707 CURVE SMOOTH",
"1404.1 799.707 LINE SMOOTH",
"1417.97 799.707 OFFCURVE",
"1429.1 788.477 OFFCURVE",
"1429.1 774.609 CURVE SMOOTH",
"1429.1 645.898 LINE SMOOTH",
"1429.1 632.031 OFFCURVE",
"1417.97 620.898 OFFCURVE",
"1404.1 620.898 CURVE SMOOTH",
"1165.62 620.898 LINE",
"1155.47 563.477 LINE",
"1175.78 569.238 OFFCURVE",
"1196.39 572.168 OFFCURVE",
"1217.09 572.168 CURVE SMOOTH",
"1284.86 572.168 OFFCURVE",
"1343.16 547.07 OFFCURVE",
"1390.33 497.852 CURVE SMOOTH",
"1437.21 448.828 OFFCURVE",
"1460.94 384.863 OFFCURVE",
"1460.94 307.715 CURVE SMOOTH",
"1460.94 243.457 OFFCURVE",
"1441.99 185.254 OFFCURVE",
"1404.69 134.766 CURVE SMOOTH",
"1353.22 65.0391 OFFCURVE",
"1281.15 29.6875 OFFCURVE",
"1190.14 29.6875 CURVE SMOOTH"
);
},
{
closed = 1;
nodes = (
"992.969 187.207 OFFCURVE",
"1013.18 153.711 OFFCURVE",
"1044.43 127.148 CURVE SMOOTH",
"1081.74 95.2148 OFFCURVE",
"1129.39 79.7852 OFFCURVE",
"1190.14 79.7852 CURVE SMOOTH",
"1265.33 79.7852 OFFCURVE",
"1322.36 107.52 OFFCURVE",
"1364.36 164.551 CURVE SMOOTH",
"1395.61 206.836 OFFCURVE",
"1410.84 253.711 OFFCURVE",
"1410.84 307.715 CURVE SMOOTH",
"1410.84 372.363 OFFCURVE",
"1392.29 423.242 OFFCURVE",
"1354.1 463.184 CURVE SMOOTH",
"1316.21 502.734 OFFCURVE",
"1271.39 521.973 OFFCURVE",
"1217.09 521.973 CURVE SMOOTH",
"1189.36 521.973 OFFCURVE",
"1161.43 515.137 OFFCURVE",
"1134.28 501.66 CURVE SMOOTH",
"1125.78 497.363 OFFCURVE",
"1115.72 498.242 OFFCURVE",
"1108.11 504.004 CURVE SMOOTH",
"1100.49 509.668 OFFCURVE",
"1096.78 519.141 OFFCURVE",
"1098.44 528.418 CURVE SMOOTH",
"1119.92 650.293 LINE SMOOTH",
"1122.07 662.305 OFFCURVE",
"1132.52 670.996 OFFCURVE",
"1144.63 670.996 CURVE SMOOTH",
"1379 670.996 LINE",
"1379 749.609 LINE",
"1061.13 749.609 LINE",
"999.316 422.266 LINE",
"1072.27 411.719 LINE",
"1106.25 445.41 OFFCURVE",
"1145.02 462.5 OFFCURVE",
"1187.7 462.5 CURVE SMOOTH",
"1226.66 462.5 OFFCURVE",
"1258.89 448.535 OFFCURVE",
"1283.5 421.094 CURVE SMOOTH",
"1307.42 394.434 OFFCURVE",
"1319.53 355.469 OFFCURVE",
"1319.53 305.273 CURVE SMOOTH",
"1319.53 252.441 OFFCURVE",
"1307.42 211.523 OFFCURVE",
"1283.69 183.496 CURVE SMOOTH",
"1258.79 154.492 OFFCURVE",
"1227.83 139.746 OFFCURVE",
"1191.6 139.746 CURVE SMOOTH",
"1159.96 139.746 OFFCURVE",
"1131.84 151.172 OFFCURVE",
"1107.91 173.73 CURVE SMOOTH",
"1089.75 190.82 OFFCURVE",
"1077.05 212.5 OFFCURVE",
"1070.12 238.379 CURVE",
"982.812 229.297 LINE"
);
}
);
width = 2400;
}
);
unicode = F025;
},
{
glyphname = unif026;
lastChange = "2013-02-26 14:42:11 +0100";
layers = (
{
layerId = "B666C820-39E7-4854-9B1A-8391CFDDE462";
name = Regular;
paths = (
{
closed = 1;
nodes = (
"447.07 1400 LINE SMOOTH",
"421.094 1400 OFFCURVE",
"400 1378.91 OFFCURVE",
"400 1352.93 CURVE SMOOTH",
"400 -103 LINE SMOOTH",
"400 -129 OFFCURVE",
"421.094 -150 OFFCURVE",
"447.07 -150 CURVE SMOOTH",
"1952.93 -150 LINE SMOOTH",
"1978.91 -150 OFFCURVE",
"2000 -129 OFFCURVE",
"2000 -103 CURVE SMOOTH",
"2000 1352.93 LINE SMOOTH",
"2000 1378.91 OFFCURVE",
"1978.91 1400 OFFCURVE",
"1952.93 1400 CURVE SMOOTH"
);
},
{
closed = 1;
nodes = (
"1891.89 -31 OFFCURVE",
"1870.8 -52 OFFCURVE",
"1844.82 -52 CURVE SMOOTH",
"555.078 -52 LINE SMOOTH",
"529.199 -52 OFFCURVE",
"508.105 -31 OFFCURVE",
"508.105 -5 CURVE SMOOTH",
"508.105 903.516 LINE SMOOTH",
"508.105 929.492 OFFCURVE",
"529.199 950.586 OFFCURVE",
"555.078 950.586 CURVE SMOOTH",
"1844.82 950.586 LINE SMOOTH",
"1870.8 950.586 OFFCURVE",
"1891.89 929.492 OFFCURVE",
"1891.89 903.516 CURVE SMOOTH",
"1891.89 -5 LINE SMOOTH"
);
},
{
closed = 1;
nodes = (
"1284.18 594.043 LINE",
"1280.86 621.484 OFFCURVE",
"1272.36 641.602 OFFCURVE",
"1258.69 654.688 CURVE SMOOTH",
"1245.02 667.773 OFFCURVE",
"1227.25 674.316 OFFCURVE",
"1205.37 674.316 CURVE SMOOTH",
"1176.27 674.316 OFFCURVE",
"1151.76 661.231 OFFCURVE",
"1131.64 635.156 CURVE SMOOTH",
"1111.62 608.984 OFFCURVE",
"1098.93 554.688 OFFCURVE",
"1093.75 472.168 CURVE",
"1128.03 512.598 OFFCURVE",
"1170.61 532.91 OFFCURVE",
"1221.48 532.91 CURVE SMOOTH",
"1278.91 532.91 OFFCURVE",
"1328.12 510.938 OFFCURVE",
"1369.04 467.285 CURVE SMOOTH",
"1410.06 423.535 OFFCURVE",
"1430.47 367.09 OFFCURVE",
"1430.47 297.949 CURVE SMOOTH",
"1430.47 224.512 OFFCURVE",
"1408.98 165.625 OFFCURVE",
"1365.92 121.289 CURVE SMOOTH",
"1322.85 76.8555 OFFCURVE",
"1267.48 54.6875 OFFCURVE",
"1199.9 54.6875 CURVE SMOOTH",
"1127.54 54.6875 OFFCURVE",
"1067.97 82.8125 OFFCURVE",
"1021.29 139.062 CURVE SMOOTH",
"974.609 195.41 OFFCURVE",
"951.269 287.695 OFFCURVE",
"951.269 415.918 CURVE SMOOTH",
"951.269 547.363 OFFCURVE",
"975.586 642.09 OFFCURVE",
"1024.22 700.293 CURVE SMOOTH",
"1072.85 758.301 OFFCURVE",
"1135.94 787.402 OFFCURVE",
"1213.67 787.402 CURVE SMOOTH",
"1268.16 787.402 OFFCURVE",
"1313.28 772.07 OFFCURVE",
"1349.02 741.504 CURVE SMOOTH",
"1384.77 711.133 OFFCURVE",
"1407.52 666.797 OFFCURVE",
"1417.29 608.691 CURVE"
);
},
{
closed = 1;
nodes = (
"1105.47 263.965 OFFCURVE",
"1115.72 229.492 OFFCURVE",
"1136.33 205.176 CURVE SMOOTH",
"1156.84 180.859 OFFCURVE",
"1180.37 168.75 OFFCURVE",
"1206.84 168.75 CURVE SMOOTH",
"1232.23 168.75 OFFCURVE",
"1253.42 178.613 OFFCURVE",
"1270.41 198.633 CURVE SMOOTH",
"1287.4 218.457 OFFCURVE",
"1295.9 251.074 OFFCURVE",
"1295.9 296.484 CURVE SMOOTH",
"1295.9 343.066 OFFCURVE",
"1286.72 377.344 OFFCURVE",
"1268.46 398.926 CURVE SMOOTH",
"1250.2 420.703 OFFCURVE",
"1227.34 431.543 OFFCURVE",
"1199.9 431.543 CURVE SMOOTH",
"1173.54 431.543 OFFCURVE",
"1151.17 421.191 OFFCURVE",
"1132.91 400.391 CURVE SMOOTH",
"1114.65 379.785 OFFCURVE",
"1105.47 349.121 OFFCURVE",
"1105.47 308.691 CURVE SMOOTH"
);
},
{
closed = 1;
nodes = (
"1119.92 29.6875 OFFCURVE",
"1053.42 61.0352 OFFCURVE",
"1001.95 123.047 CURVE SMOOTH",
"950.977 184.57 OFFCURVE",
"926.172 280.371 OFFCURVE",
"926.172 415.918 CURVE SMOOTH",
"926.172 554.688 OFFCURVE",
"951.953 652.93 OFFCURVE",
"1004.98 716.309 CURVE SMOOTH",
"1058.4 780.078 OFFCURVE",
"1128.61 812.402 OFFCURVE",
"1213.67 812.402 CURVE SMOOTH",
"1274.02 812.402 OFFCURVE",
"1325.1 795.019 OFFCURVE",
"1365.33 760.547 CURVE SMOOTH",
"1405.37 726.465 OFFCURVE",
"1431.25 676.66 OFFCURVE",
"1441.99 612.891 CURVE SMOOTH",
"1443.16 606.055 OFFCURVE",
"1441.41 599.121 OFFCURVE",
"1437.3 593.652 CURVE SMOOTH",
"1433.11 588.086 OFFCURVE",
"1426.86 584.57 OFFCURVE",
"1420.02 583.789 CURVE SMOOTH",
"1286.91 569.141 LINE SMOOTH",
"1273.54 567.481 OFFCURVE",
"1260.94 577.344 OFFCURVE",
"1259.28 591.016 CURVE SMOOTH",
"1256.74 612.402 OFFCURVE",
"1250.68 627.734 OFFCURVE",
"1241.41 636.621 CURVE SMOOTH",
"1232.42 645.117 OFFCURVE",
"1220.7 649.219 OFFCURVE",
"1205.37 649.219 CURVE SMOOTH",
"1184.08 649.219 OFFCURVE",
"1166.99 639.941 OFFCURVE",
"1151.56 619.824 CURVE SMOOTH",
"1142.87 608.496 OFFCURVE",
"1132.13 584.082 OFFCURVE",
"1124.71 531.836 CURVE",
"1153.42 549.121 OFFCURVE",
"1185.84 557.91 OFFCURVE",
"1221.48 557.91 CURVE SMOOTH",
"1285.74 557.91 OFFCURVE",
"1341.6 533.203 OFFCURVE",
"1387.3 484.375 CURVE SMOOTH",
"1432.62 436.035 OFFCURVE",
"1455.57 373.34 OFFCURVE",
"1455.57 297.949 CURVE SMOOTH",
"1455.57 218.164 OFFCURVE",
"1431.45 152.832 OFFCURVE",
"1383.89 103.809 CURVE SMOOTH",
"1336.13 54.5898 OFFCURVE",
"1274.32 29.6875 OFFCURVE",
"1199.9 29.6875 CURVE SMOOTH"
);
},
{
closed = 1;
nodes = (
"1143.16 762.305 OFFCURVE",
"1087.5 736.719 OFFCURVE",
"1043.46 684.18 CURVE SMOOTH",
"998.926 630.859 OFFCURVE",
"976.367 540.625 OFFCURVE",
"976.367 415.918 CURVE SMOOTH",
"976.367 294.238 OFFCURVE",
"997.949 206.445 OFFCURVE",
"1040.53 155.078 CURVE SMOOTH",
"1082.52 104.395 OFFCURVE",
"1134.67 79.7852 OFFCURVE",
"1199.9 79.7852 CURVE SMOOTH",
"1261.04 79.7852 OFFCURVE",
"1309.47 99.0234 OFFCURVE",
"1347.85 138.672 CURVE SMOOTH",
"1386.62 178.613 OFFCURVE",
"1405.47 230.664 OFFCURVE",
"1405.47 297.949 CURVE SMOOTH",
"1405.47 361.133 OFFCURVE",
"1387.6 410.84 OFFCURVE",
"1350.78 450.195 CURVE SMOOTH",
"1314.36 488.965 OFFCURVE",
"1272.07 507.812 OFFCURVE",
"1221.48 507.812 CURVE SMOOTH",
"1177.93 507.812 OFFCURVE",
"1142.48 490.918 OFFCURVE",
"1112.89 455.957 CURVE SMOOTH",
"1105.86 447.754 OFFCURVE",
"1094.43 444.922 OFFCURVE",
"1084.38 448.926 CURVE SMOOTH",
"1074.32 453.027 OFFCURVE",
"1068.07 462.988 OFFCURVE",
"1068.75 473.73 CURVE SMOOTH",
"1074.32 562.207 OFFCURVE",
"1088.48 620.019 OFFCURVE",
"1111.82 650.391 CURVE SMOOTH",
"1136.82 682.91 OFFCURVE",
"1168.26 699.414 OFFCURVE",
"1205.37 699.414 CURVE SMOOTH",
"1233.69 699.414 OFFCURVE",
"1257.42 690.43 OFFCURVE",
"1275.98 672.852 CURVE SMOOTH",
"1289.26 660.156 OFFCURVE",
"1298.83 642.969 OFFCURVE",
"1304.49 621.484 CURVE",
"1386.91 630.566 LINE",
"1376.46 669.922 OFFCURVE",
"1358.3 700.781 OFFCURVE",
"1332.71 722.461 CURVE SMOOTH",
"1301.37 749.316 OFFCURVE",
"1262.5 762.305 OFFCURVE",
"1213.67 762.305 CURVE SMOOTH"
);
},
{
closed = 1;
nodes = (
"1172.75 143.652 OFFCURVE",
"1142.68 158.887 OFFCURVE",
"1117.19 188.965 CURVE SMOOTH",
"1092.77 217.871 OFFCURVE",
"1080.37 258.203 OFFCURVE",
"1080.37 308.691 CURVE SMOOTH",
"1080.37 355.273 OFFCURVE",
"1091.8 391.699 OFFCURVE",
"1114.06 416.992 CURVE SMOOTH",
"1137.21 443.262 OFFCURVE",
"1166.11 456.641 OFFCURVE",
"1199.9 456.641 CURVE SMOOTH",
"1234.96 456.641 OFFCURVE",
"1264.55 442.578 OFFCURVE",
"1287.7 415.039 CURVE SMOOTH",
"1309.77 388.965 OFFCURVE",
"1321 349.023 OFFCURVE",
"1321 296.484 CURVE SMOOTH",
"1321 244.434 OFFCURVE",
"1310.64 207.031 OFFCURVE",
"1289.45 182.324 CURVE SMOOTH",
"1267.68 156.738 OFFCURVE",
"1239.84 143.652 OFFCURVE",
"1206.84 143.652 CURVE SMOOTH"
);
},
{
closed = 1;
nodes = (
"1180.66 406.543 OFFCURVE",
"1165.33 399.316 OFFCURVE",
"1151.66 383.887 CURVE SMOOTH",
"1137.6 367.969 OFFCURVE",
"1130.57 342.676 OFFCURVE",
"1130.57 308.691 CURVE SMOOTH",
"1130.57 270.312 OFFCURVE",
"1138.87 240.918 OFFCURVE",
"1155.47 221.289 CURVE SMOOTH",
"1186.23 185.059 OFFCURVE",
"1226.46 185.645 OFFCURVE",
"1251.37 214.844 CURVE SMOOTH",
"1264.16 229.785 OFFCURVE",
"1270.8 258.008 OFFCURVE",
"1270.8 296.484 CURVE SMOOTH",
"1270.8 336.816 OFFCURVE",
"1263.57 365.918 OFFCURVE",
"1249.32 382.812 CURVE SMOOTH",
"1235.74 398.926 OFFCURVE",
"1220.12 406.543 OFFCURVE",
"1199.9 406.543 CURVE SMOOTH"
);
}
);
width = 2400;
}
);
unicode = F026;
},
{
glyphname = unif027;
lastChange = "2013-02-26 14:42:46 +0100";
layers = (
{
layerId = "B666C820-39E7-4854-9B1A-8391CFDDE462";
name = Regular;
paths = (
{
closed = 1;
nodes = (
"447.07 1400 LINE SMOOTH",
"421.094 1400 OFFCURVE",
"400 1378.91 OFFCURVE",
"400 1352.93 CURVE SMOOTH",
"400 -103 LINE SMOOTH",
"400 -129 OFFCURVE",
"421.094 -150 OFFCURVE",
"447.07 -150 CURVE SMOOTH",
"1952.93 -150 LINE SMOOTH",
"1978.91 -150 OFFCURVE",
"2000 -129 OFFCURVE",
"2000 -103 CURVE SMOOTH",
"2000 1352.93 LINE SMOOTH",
"2000 1378.91 OFFCURVE",
"1978.91 1400 OFFCURVE",
"1952.93 1400 CURVE SMOOTH"
);
},
{
closed = 1;
nodes = (
"1891.89 -31 OFFCURVE",
"1870.8 -52 OFFCURVE",
"1844.82 -52 CURVE SMOOTH",
"555.078 -52 LINE SMOOTH",
"529.199 -52 OFFCURVE",
"508.105 -31 OFFCURVE",
"508.105 -5 CURVE SMOOTH",
"508.105 903.516 LINE SMOOTH",
"508.105 929.492 OFFCURVE",
"529.199 950.586 OFFCURVE",
"555.078 950.586 CURVE SMOOTH",
"1844.82 950.586 LINE SMOOTH",
"1870.8 950.586 OFFCURVE",
"1891.89 929.492 OFFCURVE",
"1891.89 903.516 CURVE SMOOTH",
"1891.89 -5 LINE SMOOTH"
);
},
{
closed = 1;
nodes = (
"951.269 774.609 LINE",
"1421.68 774.609 LINE",
"1421.68 674.805 LINE",
"1382.91 636.621 OFFCURVE",
"1343.36 581.836 OFFCURVE",
"1303.22 510.352 CURVE SMOOTH",
"1263.09 438.867 OFFCURVE",
"1232.52 362.988 OFFCURVE",
"1211.43 282.52 CURVE SMOOTH",
"1190.43 202.148 OFFCURVE",
"1179.98 130.176 OFFCURVE",
"1180.37 66.9922 CURVE",
"1047.75 66.9922 LINE",
"1050 166.113 OFFCURVE",
"1070.51 267.188 OFFCURVE",
"1109.18 370.41 CURVE SMOOTH",
"1147.85 473.438 OFFCURVE",
"1199.41 565.625 OFFCURVE",
"1264.06 646.875 CURVE",
"951.269 646.875 LINE"
);
},
{
closed = 1;
nodes = (
"1047.75 41.8945 LINE SMOOTH",
"1040.92 41.8945 OFFCURVE",
"1034.47 44.6289 OFFCURVE",
"1029.79 49.4141 CURVE SMOOTH",
"1025.1 54.2969 OFFCURVE",
"1022.46 60.7422 OFFCURVE",
"1022.66 67.5781 CURVE SMOOTH",
"1025 169.043 OFFCURVE",
"1046.19 273.926 OFFCURVE",
"1085.74 379.199 CURVE SMOOTH",
"1118.85 467.48 OFFCURVE",
"1161.82 548.926 OFFCURVE",
"1213.87 621.875 CURVE",
"951.269 621.875 LINE SMOOTH",
"937.402 621.875 OFFCURVE",
"926.172 633.008 OFFCURVE",
"926.172 646.875 CURVE SMOOTH",
"926.172 774.609 LINE SMOOTH",
"926.172 788.477 OFFCURVE",
"937.402 799.707 OFFCURVE",
"951.269 799.707 CURVE SMOOTH",
"1421.68 799.707 LINE SMOOTH",
"1435.55 799.707 OFFCURVE",
"1446.78 788.477 OFFCURVE",
"1446.78 774.609 CURVE SMOOTH",
"1446.78 674.805 LINE SMOOTH",
"1446.78 668.066 OFFCURVE",
"1444.04 661.621 OFFCURVE",
"1439.26 656.934 CURVE SMOOTH",
"1402.25 620.606 OFFCURVE",
"1363.87 567.09 OFFCURVE",
"1325.1 498.047 CURVE SMOOTH",
"1286.23 428.809 OFFCURVE",
"1256.05 354.102 OFFCURVE",
"1235.64 276.172 CURVE SMOOTH",
"1215.23 198.242 OFFCURVE",
"1205.08 127.93 OFFCURVE",
"1205.47 67.0898 CURVE SMOOTH",
"1205.47 60.3516 OFFCURVE",
"1202.83 54.0039 OFFCURVE",
"1198.14 49.3164 CURVE SMOOTH",
"1193.46 44.5313 OFFCURVE",
"1187.01 41.8945 OFFCURVE",
"1180.37 41.8945 CURVE SMOOTH"
);
},
{
closed = 1;
nodes = (
"1155.66 91.9922 LINE",
"1157.81 150.977 OFFCURVE",
"1168.46 217.09 OFFCURVE",
"1187.21 288.867 CURVE SMOOTH",
"1208.69 370.996 OFFCURVE",
"1240.43 449.609 OFFCURVE",
"1281.45 522.656 CURVE SMOOTH",
"1319.92 591.211 OFFCURVE",
"1358.69 645.801 OFFCURVE",
"1396.68 685.156 CURVE",
"1396.68 749.609 LINE",
"976.367 749.609 LINE",
"976.367 671.973 LINE",
"1264.06 671.973 LINE SMOOTH",
"1273.73 671.973 OFFCURVE",
"1282.52 666.406 OFFCURVE",
"1286.62 657.812 CURVE SMOOTH",
"1290.82 649.121 OFFCURVE",
"1289.65 638.867 OFFCURVE",
"1283.69 631.25 CURVE SMOOTH",
"1221.09 552.539 OFFCURVE",
"1170.21 461.719 OFFCURVE",
"1132.62 361.621 CURVE SMOOTH",
"1098.44 270.41 OFFCURVE",
"1078.71 179.883 OFFCURVE",
"1073.83 91.9922 CURVE"
);
}
);
width = 2400;
}
);
unicode = F027;
},
